<?xml version="1.0" encoding="us-ascii" standalone="no"?><svg xmlns="http://www.w3.org/2000/svg" xmlns:xlink="http://www.w3.org/1999/xlink" contentStyleType="text/css" height="507px" preserveAspectRatio="none" style="width:834px;height:507px;background:#FFFFFF;" version="1.1" viewBox="0 0 834 507" width="834px" zoomAndPan="magnify"><defs/><g><!--class RequestState--><g id="elem_RequestState"><rect codeLine="1" fill="#F1F1F1" height="96.8906" id="RequestState" rx="2.5" ry="2.5" style="stroke:#181818;stroke-width:0.5;" width="131" x="489.5" y="31.5"/><ellipse cx="504.5" cy="47.5" fill="#EB937F" rx="11" ry="11" style="stroke:#181818;stroke-width:1.0;"/><path d="M503.2969,48.375 L504.75,48.375 L504.75,48.4844 C504.75,48.8906 504.7813,49.0469 504.8594,49.2031 C505.0156,49.4531 505.2969,49.6094 505.5938,49.6094 C505.8438,49.6094 506.1094,49.4688 506.2656,49.25 C506.3906,49.0938 506.4219,48.9375 506.4219,48.4844 L506.4219,46.5625 C506.4219,46.4063 506.4219,46.3594 506.4063,46.2031 C506.3438,45.7344 506.0313,45.4219 505.5781,45.4219 C505.3281,45.4219 505.0625,45.5625 504.8906,45.7813 C504.7813,45.9531 504.75,46.1094 504.75,46.5625 L504.75,46.6875 L503.2969,46.6875 L503.2969,44.2813 L507.2813,44.2813 L507.2813,45.1406 C507.2813,45.5469 507.3125,45.7188 507.3906,45.875 C507.5625,46.125 507.8438,46.2813 508.125,46.2813 C508.3906,46.2813 508.6563,46.1406 508.8281,45.9219 C508.9375,45.75 508.9688,45.6094 508.9688,45.1406 L508.9688,42.5938 L501.3438,42.5938 C500.9063,42.5938 500.7813,42.6094 500.625,42.7031 C500.375,42.8594 500.2188,43.1563 500.2188,43.4375 C500.2188,43.7188 500.3594,43.9688 500.5781,44.1406 C500.7344,44.25 500.9219,44.2813 501.3438,44.2813 L501.5938,44.2813 L501.5938,50.7969 L501.3438,50.7969 C500.9375,50.7969 500.7813,50.8125 500.625,50.9219 C500.375,51.0938 500.2188,51.3594 500.2188,51.6563 C500.2188,51.9219 500.3594,52.1719 500.5781,52.3281 C500.7188,52.4531 500.9531,52.5 501.3438,52.5 L509.3438,52.5 L509.3438,49.9219 C509.3438,49.4844 509.3125,49.3438 509.2344,49.1875 C509.0625,48.9375 508.7813,48.7813 508.5,48.7813 C508.2344,48.7813 507.9688,48.8906 507.7969,49.1406 C507.6875,49.2969 507.6563,49.4375 507.6563,49.9219 L507.6563,50.7969 L503.2969,50.7969 L503.2969,48.375 Z " fill="#000000"/><text fill="#000000" font-family="sans-serif" font-size="14" lengthAdjust="spacing" textLength="99" x="518.5" y="52.3467">RequestState</text><line style="stroke:#181818;stroke-width:0.5;" x1="490.5" x2="619.5" y1="63.5" y2="63.5"/><text fill="#000000" font-family="sans-serif" font-size="14" lengthAdjust="spacing" textLength="53" x="495.5" y="80.4951">Validee</text><text fill="#000000" font-family="sans-serif" font-size="14" lengthAdjust="spacing" textLength="58" x="495.5" y="96.792">Refusee</text><text fill="#000000" font-family="sans-serif" font-size="14" lengthAdjust="spacing" textLength="78" x="495.5" y="113.0889">En attente</text><line style="stroke:#181818;stroke-width:0.5;" x1="490.5" x2="619.5" y1="120.3906" y2="120.3906"/></g><!--class ObjectState--><g id="elem_ObjectState"><rect codeLine="7" fill="#F1F1F1" height="145.7813" id="ObjectState" rx="2.5" ry="2.5" style="stroke:#181818;stroke-width:0.5;" width="121" x="655.5" y="7"/><ellipse cx="670.5" cy="23" fill="#EB937F" rx="11" ry="11" style="stroke:#181818;stroke-width:1.0;"/><path d="M669.2969,23.875 L670.75,23.875 L670.75,23.9844 C670.75,24.3906 670.7813,24.5469 670.8594,24.7031 C671.0156,24.9531 671.2969,25.1094 671.5938,25.1094 C671.8438,25.1094 672.1094,24.9688 672.2656,24.75 C672.3906,24.5938 672.4219,24.4375 672.4219,23.9844 L672.4219,22.0625 C672.4219,21.9063 672.4219,21.8594 672.4063,21.7031 C672.3438,21.2344 672.0313,20.9219 671.5781,20.9219 C671.3281,20.9219 671.0625,21.0625 670.8906,21.2813 C670.7813,21.4531 670.75,21.6094 670.75,22.0625 L670.75,22.1875 L669.2969,22.1875 L669.2969,19.7813 L673.2813,19.7813 L673.2813,20.6406 C673.2813,21.0469 673.3125,21.2188 673.3906,21.375 C673.5625,21.625 673.8438,21.7813 674.125,21.7813 C674.3906,21.7813 674.6563,21.6406 674.8281,21.4219 C674.9375,21.25 674.9688,21.1094 674.9688,20.6406 L674.9688,18.0938 L667.3438,18.0938 C666.9063,18.0938 666.7813,18.1094 666.625,18.2031 C666.375,18.3594 666.2188,18.6563 666.2188,18.9375 C666.2188,19.2188 666.3594,19.4688 666.5781,19.6406 C666.7344,19.75 666.9219,19.7813 667.3438,19.7813 L667.5938,19.7813 L667.5938,26.2969 L667.3438,26.2969 C666.9375,26.2969 666.7813,26.3125 666.625,26.4219 C666.375,26.5938 666.2188,26.8594 666.2188,27.1563 C666.2188,27.4219 666.3594,27.6719 666.5781,27.8281 C666.7188,27.9531 666.9531,28 667.3438,28 L675.3438,28 L675.3438,25.4219 C675.3438,24.9844 675.3125,24.8438 675.2344,24.6875 C675.0625,24.4375 674.7813,24.2813 674.5,24.2813 C674.2344,24.2813 673.9688,24.3906 673.7969,24.6406 C673.6875,24.7969 673.6563,24.9375 673.6563,25.4219 L673.6563,26.2969 L669.2969,26.2969 L669.2969,23.875 Z " fill="#000000"/><text fill="#000000" font-family="sans-serif" font-size="14" lengthAdjust="spacing" textLength="89" x="684.5" y="27.8467">ObjectState</text><line style="stroke:#181818;stroke-width:0.5;" x1="656.5" x2="775.5" y1="39" y2="39"/><text fill="#000000" font-family="sans-serif" font-size="14" lengthAdjust="spacing" textLength="32" x="661.5" y="55.9951">neuf</text><text fill="#000000" font-family="sans-serif" font-size="14" lengthAdjust="spacing" textLength="57" x="661.5" y="72.292">tresBon</text><text fill="#000000" font-family="sans-serif" font-size="14" lengthAdjust="spacing" textLength="28" x="661.5" y="88.5889">bon</text><text fill="#000000" font-family="sans-serif" font-size="14" lengthAdjust="spacing" textLength="49" x="661.5" y="104.8857">moyen</text><text fill="#000000" font-family="sans-serif" font-size="14" lengthAdjust="spacing" textLength="57" x="661.5" y="121.1826">mauvais</text><text fill="#000000" font-family="sans-serif" font-size="14" lengthAdjust="spacing" textLength="84" x="661.5" y="137.4795">tresMauvais</text><line style="stroke:#181818;stroke-width:0.5;" x1="656.5" x2="775.5" y1="144.7813" y2="144.7813"/></g><!--class TemporaryAccess--><g id="elem_TemporaryAccess"><rect codeLine="16" fill="#F1F1F1" height="96.8906" id="TemporaryAccess" rx="2.5" ry="2.5" style="stroke:#181818;stroke-width:0.5;" width="162" x="7" y="31.5"/><ellipse cx="22.9" cy="47.5" fill="#ADD1B2" rx="11" ry="11" style="stroke:#181818;stroke-width:1.0;"/><path d="M25.2438,43.1719 C24.3063,42.7344 23.7125,42.5938 22.8375,42.5938 C20.2125,42.5938 18.2125,44.6719 18.2125,47.3906 L18.2125,48.5156 C18.2125,51.0938 20.3219,52.9844 23.2125,52.9844 C24.4313,52.9844 25.5875,52.6875 26.3375,52.1406 C26.9156,51.7344 27.2438,51.2813 27.2438,50.8906 C27.2438,50.4375 26.8531,50.0469 26.3844,50.0469 C26.1656,50.0469 25.9625,50.125 25.775,50.3125 C25.3219,50.7969 25.3219,50.7969 25.1344,50.8906 C24.7125,51.1563 24.025,51.2813 23.2594,51.2813 C21.2125,51.2813 19.9156,50.1875 19.9156,48.4844 L19.9156,47.3906 C19.9156,45.6094 21.1656,44.2969 22.9,44.2969 C23.4781,44.2969 24.0875,44.4531 24.5563,44.7031 C25.0406,44.9844 25.2125,45.2031 25.3063,45.6094 C25.3688,46.0156 25.4,46.1406 25.5406,46.2656 C25.6813,46.4063 25.9156,46.5156 26.1344,46.5156 C26.4,46.5156 26.6656,46.375 26.8375,46.1563 C26.9469,46 26.9781,45.8125 26.9781,45.3906 L26.9781,43.9688 C26.9781,43.5313 26.9625,43.4063 26.8688,43.25 C26.7125,42.9844 26.4313,42.8438 26.1344,42.8438 C25.8375,42.8438 25.6344,42.9375 25.4156,43.25 L25.2438,43.1719 Z " fill="#000000"/><text fill="#000000" font-family="sans-serif" font-size="14" lengthAdjust="spacing" textLength="128" x="37.1" y="52.3467">TemporaryAccess</text><line style="stroke:#181818;stroke-width:0.5;" x1="8" x2="168" y1="63.5" y2="63.5"/><text fill="#000000" font-family="sans-serif" font-size="14" lengthAdjust="spacing" textLength="81" x="13" y="80.4951">user: string</text><text fill="#000000" font-family="sans-serif" font-size="14" lengthAdjust="spacing" textLength="109" x="13" y="96.792">end_date: date</text><text fill="#000000" font-family="sans-serif" font-size="14" lengthAdjust="spacing" textLength="150" x="13" y="113.0889">state : RequestState</text><line style="stroke:#181818;stroke-width:0.5;" x1="8" x2="168" y1="120.3906" y2="120.3906"/></g><!--class Item--><g id="elem_Item"><rect codeLine="22" fill="#F1F1F1" height="80.5938" id="Item" rx="2.5" ry="2.5" style="stroke:#181818;stroke-width:0.5;" width="145" x="317.5" y="420"/><ellipse cx="368.75" cy="436" fill="#ADD1B2" rx="11" ry="11" style="stroke:#181818;stroke-width:1.0;"/><path d="M371.0938,431.6719 C370.1563,431.2344 369.5625,431.0938 368.6875,431.0938 C366.0625,431.0938 364.0625,433.1719 364.0625,435.8906 L364.0625,437.0156 C364.0625,439.5938 366.1719,441.4844 369.0625,441.4844 C370.2813,441.4844 371.4375,441.1875 372.1875,440.6406 C372.7656,440.2344 373.0938,439.7813 373.0938,439.3906 C373.0938,438.9375 372.7031,438.5469 372.2344,438.5469 C372.0156,438.5469 371.8125,438.625 371.625,438.8125 C371.1719,439.2969 371.1719,439.2969 370.9844,439.3906 C370.5625,439.6563 369.875,439.7813 369.1094,439.7813 C367.0625,439.7813 365.7656,438.6875 365.7656,436.9844 L365.7656,435.8906 C365.7656,434.1094 367.0156,432.7969 368.75,432.7969 C369.3281,432.7969 369.9375,432.9531 370.4063,433.2031 C370.8906,433.4844 371.0625,433.7031 371.1563,434.1094 C371.2188,434.5156 371.25,434.6406 371.3906,434.7656 C371.5313,434.9063 371.7656,435.0156 371.9844,435.0156 C372.25,435.0156 372.5156,434.875 372.6875,434.6563 C372.7969,434.5 372.8281,434.3125 372.8281,433.8906 L372.8281,432.4688 C372.8281,432.0313 372.8125,431.9063 372.7188,431.75 C372.5625,431.4844 372.2813,431.3438 371.9844,431.3438 C371.6875,431.3438 371.4844,431.4375 371.2656,431.75 L371.0938,431.6719 Z " fill="#000000"/><text fill="#000000" font-family="sans-serif" font-size="14" lengthAdjust="spacing" textLength="34" x="389.25" y="440.8467">Item</text><line style="stroke:#181818;stroke-width:0.5;" x1="318.5" x2="461.5" y1="452" y2="452"/><text fill="#000000" font-family="sans-serif" font-size="14" lengthAdjust="spacing" textLength="91" x="323.5" y="468.9951">state : State</text><text fill="#000000" font-family="sans-serif" font-size="14" lengthAdjust="spacing" textLength="133" x="323.5" y="485.292">description: string</text><line style="stroke:#181818;stroke-width:0.5;" x1="318.5" x2="461.5" y1="492.5938" y2="492.5938"/></g><!--class Class--><g id="elem_Class"><rect codeLine="27" fill="#F1F1F1" height="113.1875" id="Class" rx="2.5" ry="2.5" style="stroke:#181818;stroke-width:0.5;" width="149" x="652.5" y="222"/><ellipse cx="704.75" cy="238" fill="#ADD1B2" rx="11" ry="11" style="stroke:#181818;stroke-width:1.0;"/><path d="M707.0938,233.6719 C706.1563,233.2344 705.5625,233.0938 704.6875,233.0938 C702.0625,233.0938 700.0625,235.1719 700.0625,237.8906 L700.0625,239.0156 C700.0625,241.5938 702.1719,243.4844 705.0625,243.4844 C706.2813,243.4844 707.4375,243.1875 708.1875,242.6406 C708.7656,242.2344 709.0938,241.7813 709.0938,241.3906 C709.0938,240.9375 708.7031,240.5469 708.2344,240.5469 C708.0156,240.5469 707.8125,240.625 707.625,240.8125 C707.1719,241.2969 707.1719,241.2969 706.9844,241.3906 C706.5625,241.6563 705.875,241.7813 705.1094,241.7813 C703.0625,241.7813 701.7656,240.6875 701.7656,238.9844 L701.7656,237.8906 C701.7656,236.1094 703.0156,234.7969 704.75,234.7969 C705.3281,234.7969 705.9375,234.9531 706.4063,235.2031 C706.8906,235.4844 707.0625,235.7031 707.1563,236.1094 C707.2188,236.5156 707.25,236.6406 707.3906,236.7656 C707.5313,236.9063 707.7656,237.0156 707.9844,237.0156 C708.25,237.0156 708.5156,236.875 708.6875,236.6563 C708.7969,236.5 708.8281,236.3125 708.8281,235.8906 L708.8281,234.4688 C708.8281,234.0313 708.8125,233.9063 708.7188,233.75 C708.5625,233.4844 708.2813,233.3438 707.9844,233.3438 C707.6875,233.3438 707.4844,233.4375 707.2656,233.75 L707.0938,233.6719 Z " fill="#000000"/><text fill="#000000" font-family="sans-serif" font-size="14" lengthAdjust="spacing" textLength="36" x="725.25" y="242.8467">Class</text><line style="stroke:#181818;stroke-width:0.5;" x1="653.5" x2="800.5" y1="254" y2="254"/><text fill="#000000" font-family="sans-serif" font-size="14" lengthAdjust="spacing" textLength="84" x="658.5" y="270.9951">name : char</text><text fill="#000000" font-family="sans-serif" font-size="14" lengthAdjust="spacing" textLength="137" x="658.5" y="287.292">description : string</text><text fill="#000000" font-family="sans-serif" font-size="14" lengthAdjust="spacing" textLength="135" x="658.5" y="303.5889">association : string</text><text fill="#000000" font-family="sans-serif" font-size="14" lengthAdjust="spacing" textLength="97" x="658.5" y="319.8857">private : bool</text><line style="stroke:#181818;stroke-width:0.5;" x1="653.5" x2="800.5" y1="327.1875" y2="327.1875"/></g><!--class Category--><g id="elem_Category"><rect codeLine="34" fill="#F1F1F1" height="64.2969" id="Category" rx="2.5" ry="2.5" style="stroke:#181818;stroke-width:0.5;" width="107" x="700.5" y="428.5"/><ellipse cx="719.55" cy="444.5" fill="#ADD1B2" rx="11" ry="11" style="stroke:#181818;stroke-width:1.0;"/><path d="M721.8938,440.1719 C720.9563,439.7344 720.3625,439.5938 719.4875,439.5938 C716.8625,439.5938 714.8625,441.6719 714.8625,444.3906 L714.8625,445.5156 C714.8625,448.0938 716.9719,449.9844 719.8625,449.9844 C721.0813,449.9844 722.2375,449.6875 722.9875,449.1406 C723.5656,448.7344 723.8938,448.2813 723.8938,447.8906 C723.8938,447.4375 723.5031,447.0469 723.0344,447.0469 C722.8156,447.0469 722.6125,447.125 722.425,447.3125 C721.9719,447.7969 721.9719,447.7969 721.7844,447.8906 C721.3625,448.1563 720.675,448.2813 719.9094,448.2813 C717.8625,448.2813 716.5656,447.1875 716.5656,445.4844 L716.5656,444.3906 C716.5656,442.6094 717.8156,441.2969 719.55,441.2969 C720.1281,441.2969 720.7375,441.4531 721.2063,441.7031 C721.6906,441.9844 721.8625,442.2031 721.9563,442.6094 C722.0188,443.0156 722.05,443.1406 722.1906,443.2656 C722.3313,443.4063 722.5656,443.5156 722.7844,443.5156 C723.05,443.5156 723.3156,443.375 723.4875,443.1563 C723.5969,443 723.6281,442.8125 723.6281,442.3906 L723.6281,440.9688 C723.6281,440.5313 723.6125,440.4063 723.5188,440.25 C723.3625,439.9844 723.0813,439.8438 722.7844,439.8438 C722.4875,439.8438 722.2844,439.9375 722.0656,440.25 L721.8938,440.1719 Z " fill="#000000"/><text fill="#000000" font-family="sans-serif" font-size="14" lengthAdjust="spacing" textLength="66" x="734.45" y="449.3467">Category</text><line style="stroke:#181818;stroke-width:0.5;" x1="701.5" x2="806.5" y1="460.5" y2="460.5"/><text fill="#000000" font-family="sans-serif" font-size="14" lengthAdjust="spacing" textLength="95" x="706.5" y="477.4951">name : string</text><line style="stroke:#181818;stroke-width:0.5;" x1="701.5" x2="806.5" y1="484.7969" y2="484.7969"/></g><!--class Unavailability--><g id="elem_Unavailability"><rect codeLine="38" fill="#F1F1F1" height="80.5938" id="Unavailability" rx="2.5" ry="2.5" style="stroke:#181818;stroke-width:0.5;" width="133" x="429.5" y="238"/><ellipse cx="447.2" cy="254" fill="#ADD1B2" rx="11" ry="11" style="stroke:#181818;stroke-width:1.0;"/><path d="M449.5438,249.6719 C448.6063,249.2344 448.0125,249.0938 447.1375,249.0938 C444.5125,249.0938 442.5125,251.1719 442.5125,253.8906 L442.5125,255.0156 C442.5125,257.5938 444.6219,259.4844 447.5125,259.4844 C448.7313,259.4844 449.8875,259.1875 450.6375,258.6406 C451.2156,258.2344 451.5438,257.7813 451.5438,257.3906 C451.5438,256.9375 451.1531,256.5469 450.6844,256.5469 C450.4656,256.5469 450.2625,256.625 450.075,256.8125 C449.6219,257.2969 449.6219,257.2969 449.4344,257.3906 C449.0125,257.6563 448.325,257.7813 447.5594,257.7813 C445.5125,257.7813 444.2156,256.6875 444.2156,254.9844 L444.2156,253.8906 C444.2156,252.1094 445.4656,250.7969 447.2,250.7969 C447.7781,250.7969 448.3875,250.9531 448.8563,251.2031 C449.3406,251.4844 449.5125,251.7031 449.6063,252.1094 C449.6688,252.5156 449.7,252.6406 449.8406,252.7656 C449.9813,252.9063 450.2156,253.0156 450.4344,253.0156 C450.7,253.0156 450.9656,252.875 451.1375,252.6563 C451.2469,252.5 451.2781,252.3125 451.2781,251.8906 L451.2781,250.4688 C451.2781,250.0313 451.2625,249.9063 451.1688,249.75 C451.0125,249.4844 450.7313,249.3438 450.4344,249.3438 C450.1375,249.3438 449.9344,249.4375 449.7156,249.75 L449.5438,249.6719 Z " fill="#000000"/><text fill="#000000" font-family="sans-serif" font-size="14" lengthAdjust="spacing" textLength="95" x="461.8" y="258.8467">Unavailability</text><line style="stroke:#181818;stroke-width:0.5;" x1="430.5" x2="561.5" y1="270" y2="270"/><text fill="#000000" font-family="sans-serif" font-size="14" lengthAdjust="spacing" textLength="121" x="435.5" y="286.9951">start_date : date</text><text fill="#000000" font-family="sans-serif" font-size="14" lengthAdjust="spacing" textLength="113" x="435.5" y="303.292">end_date : date</text><line style="stroke:#181818;stroke-width:0.5;" x1="430.5" x2="561.5" y1="310.5938" y2="310.5938"/></g><!--class Borrow_Request--><g id="elem_Borrow_Request"><rect codeLine="43" fill="#F1F1F1" height="129.4844" id="Borrow_Request" rx="2.5" ry="2.5" style="stroke:#181818;stroke-width:0.5;" width="191" x="50.5" y="214"/><ellipse cx="84.4" cy="230" fill="#ADD1B2" rx="11" ry="11" style="stroke:#181818;stroke-width:1.0;"/><path d="M86.7438,225.6719 C85.8063,225.2344 85.2125,225.0938 84.3375,225.0938 C81.7125,225.0938 79.7125,227.1719 79.7125,229.8906 L79.7125,231.0156 C79.7125,233.5938 81.8219,235.4844 84.7125,235.4844 C85.9313,235.4844 87.0875,235.1875 87.8375,234.6406 C88.4156,234.2344 88.7438,233.7813 88.7438,233.3906 C88.7438,232.9375 88.3531,232.5469 87.8844,232.5469 C87.6656,232.5469 87.4625,232.625 87.275,232.8125 C86.8219,233.2969 86.8219,233.2969 86.6344,233.3906 C86.2125,233.6563 85.525,233.7813 84.7594,233.7813 C82.7125,233.7813 81.4156,232.6875 81.4156,230.9844 L81.4156,229.8906 C81.4156,228.1094 82.6656,226.7969 84.4,226.7969 C84.9781,226.7969 85.5875,226.9531 86.0563,227.2031 C86.5406,227.4844 86.7125,227.7031 86.8063,228.1094 C86.8688,228.5156 86.9,228.6406 87.0406,228.7656 C87.1813,228.9063 87.4156,229.0156 87.6344,229.0156 C87.9,229.0156 88.1656,228.875 88.3375,228.6563 C88.4469,228.5 88.4781,228.3125 88.4781,227.8906 L88.4781,226.4688 C88.4781,226.0313 88.4625,225.9063 88.3688,225.75 C88.2125,225.4844 87.9313,225.3438 87.6344,225.3438 C87.3375,225.3438 87.1344,225.4375 86.9156,225.75 L86.7438,225.6719 Z " fill="#000000"/><text fill="#000000" font-family="sans-serif" font-size="14" lengthAdjust="spacing" textLength="117" x="102.6" y="234.8467">Borrow_Request</text><line style="stroke:#181818;stroke-width:0.5;" x1="51.5" x2="240.5" y1="246" y2="246"/><text fill="#000000" font-family="sans-serif" font-size="14" lengthAdjust="spacing" textLength="179" x="56.5" y="262.9951">request_date : datetime,</text><text fill="#000000" font-family="sans-serif" font-size="14" lengthAdjust="spacing" textLength="167" x="56.5" y="279.292">debut_date : datetime,</text><text fill="#000000" font-family="sans-serif" font-size="14" lengthAdjust="spacing" textLength="151" x="56.5" y="295.5889">end_date : datetime,</text><text fill="#000000" font-family="sans-serif" font-size="14" lengthAdjust="spacing" textLength="154" x="56.5" y="311.8857">state : RequestState,</text><text fill="#000000" font-family="sans-serif" font-size="14" lengthAdjust="spacing" textLength="125" x="56.5" y="328.1826">comment : string</text><line style="stroke:#181818;stroke-width:0.5;" x1="51.5" x2="240.5" y1="335.4844" y2="335.4844"/></g><!--class Inventory--><g id="elem_Inventory"><rect codeLine="51" fill="#F1F1F1" height="96.8906" id="Inventory" rx="2.5" ry="2.5" style="stroke:#181818;stroke-width:0.5;" width="101" x="353.5" y="31.5"/><ellipse cx="368.5" cy="47.5" fill="#ADD1B2" rx="11" ry="11" style="stroke:#181818;stroke-width:1.0;"/><path d="M370.8438,43.1719 C369.9063,42.7344 369.3125,42.5938 368.4375,42.5938 C365.8125,42.5938 363.8125,44.6719 363.8125,47.3906 L363.8125,48.5156 C363.8125,51.0938 365.9219,52.9844 368.8125,52.9844 C370.0313,52.9844 371.1875,52.6875 371.9375,52.1406 C372.5156,51.7344 372.8438,51.2813 372.8438,50.8906 C372.8438,50.4375 372.4531,50.0469 371.9844,50.0469 C371.7656,50.0469 371.5625,50.125 371.375,50.3125 C370.9219,50.7969 370.9219,50.7969 370.7344,50.8906 C370.3125,51.1563 369.625,51.2813 368.8594,51.2813 C366.8125,51.2813 365.5156,50.1875 365.5156,48.4844 L365.5156,47.3906 C365.5156,45.6094 366.7656,44.2969 368.5,44.2969 C369.0781,44.2969 369.6875,44.4531 370.1563,44.7031 C370.6406,44.9844 370.8125,45.2031 370.9063,45.6094 C370.9688,46.0156 371,46.1406 371.1406,46.2656 C371.2813,46.4063 371.5156,46.5156 371.7344,46.5156 C372,46.5156 372.2656,46.375 372.4375,46.1563 C372.5469,46 372.5781,45.8125 372.5781,45.3906 L372.5781,43.9688 C372.5781,43.5313 372.5625,43.4063 372.4688,43.25 C372.3125,42.9844 372.0313,42.8438 371.7344,42.8438 C371.4375,42.8438 371.2344,42.9375 371.0156,43.25 L370.8438,43.1719 Z " fill="#000000"/><text fill="#000000" font-family="sans-serif" font-size="14" lengthAdjust="spacing" textLength="69" x="382.5" y="52.3467">Inventory</text><line style="stroke:#181818;stroke-width:0.5;" x1="354.5" x2="453.5" y1="63.5" y2="63.5"/><text fill="#000000" font-family="sans-serif" font-size="14" lengthAdjust="spacing" textLength="81" x="359.5" y="80.4951">user: string</text><text fill="#000000" font-family="sans-serif" font-size="14" lengthAdjust="spacing" textLength="82" x="359.5" y="96.792">asso: string</text><text fill="#000000" font-family="sans-serif" font-size="14" lengthAdjust="spacing" textLength="75" x="359.5" y="113.0889">date: date</text><line style="stroke:#181818;stroke-width:0.5;" x1="354.5" x2="453.5" y1="120.3906" y2="120.3906"/></g><!--class Association--><g id="elem_Association"><rect codeLine="57" fill="#F1F1F1" height="64.2969" id="Association" rx="2.5" ry="2.5" style="stroke:#181818;stroke-width:0.5;" width="114" x="204" y="48"/><ellipse cx="219" cy="64" fill="#ADD1B2" rx="11" ry="11" style="stroke:#181818;stroke-width:1.0;"/><path d="M221.3438,59.6719 C220.4063,59.2344 219.8125,59.0938 218.9375,59.0938 C216.3125,59.0938 214.3125,61.1719 214.3125,63.8906 L214.3125,65.0156 C214.3125,67.5938 216.4219,69.4844 219.3125,69.4844 C220.5313,69.4844 221.6875,69.1875 222.4375,68.6406 C223.0156,68.2344 223.3438,67.7813 223.3438,67.3906 C223.3438,66.9375 222.9531,66.5469 222.4844,66.5469 C222.2656,66.5469 222.0625,66.625 221.875,66.8125 C221.4219,67.2969 221.4219,67.2969 221.2344,67.3906 C220.8125,67.6563 220.125,67.7813 219.3594,67.7813 C217.3125,67.7813 216.0156,66.6875 216.0156,64.9844 L216.0156,63.8906 C216.0156,62.1094 217.2656,60.7969 219,60.7969 C219.5781,60.7969 220.1875,60.9531 220.6563,61.2031 C221.1406,61.4844 221.3125,61.7031 221.4063,62.1094 C221.4688,62.5156 221.5,62.6406 221.6406,62.7656 C221.7813,62.9063 222.0156,63.0156 222.2344,63.0156 C222.5,63.0156 222.7656,62.875 222.9375,62.6563 C223.0469,62.5 223.0781,62.3125 223.0781,61.8906 L223.0781,60.4688 C223.0781,60.0313 223.0625,59.9063 222.9688,59.75 C222.8125,59.4844 222.5313,59.3438 222.2344,59.3438 C221.9375,59.3438 221.7344,59.4375 221.5156,59.75 L221.3438,59.6719 Z " fill="#000000"/><text fill="#000000" font-family="sans-serif" font-size="14" lengthAdjust="spacing" textLength="82" x="233" y="68.8467">Association</text><line style="stroke:#181818;stroke-width:0.5;" x1="205" x2="317" y1="80" y2="80"/><text fill="#000000" font-family="sans-serif" font-size="14" lengthAdjust="spacing" textLength="91" x="210" y="96.9951">name: string</text><line style="stroke:#181818;stroke-width:0.5;" x1="205" x2="317" y1="104.2969" y2="104.2969"/></g><!--link Class to Item--><g id="link_Class_Item"><path codeLine="61" d="M654.478,335.256 C628.106,354.068 597.515,374.265 568,390 C534.627,407.7919 495.679,423.5199 462.739,435.4941 " fill="none" id="Class-Item" style="stroke:#181818;stroke-width:1.0;"/><polygon fill="#000000" points="604.431,379.2499,595.0536,380.836,597.7768,386.045,604.431,379.2499" style="stroke:#000000;stroke-width:1.0;"/><text fill="#000000" font-family="sans-serif" font-size="13" lengthAdjust="spacing" textLength="70" x="609" y="386.0669">"belong to"</text><text fill="#000000" font-family="sans-serif" font-size="13" lengthAdjust="spacing" textLength="24" x="620.7051" y="354.7493">1..1</text><text fill="#000000" font-family="sans-serif" font-size="13" lengthAdjust="spacing" textLength="23" x="470.5048" y="429.5892">1..*</text></g><!--link Borrow_Request to Item--><g id="link_Borrow_Request_Item"><path codeLine="62" d="M149.613,343.071 C153.391,360.042 160.154,377.198 172,390 C209.232,430.2362 269.671,447.2886 317.479,454.4601 " fill="none" id="Borrow_Request-Item" style="stroke:#181818;stroke-width:1.0;"/><polygon fill="#000000" points="181.1662,384.3309,175.2544,376.881,172.0045,381.7787,181.1662,384.3309" style="stroke:#000000;stroke-width:1.0;"/><text fill="#000000" font-family="sans-serif" font-size="13" lengthAdjust="spacing" textLength="99" x="186" y="386.0669">"correspond to"</text><text fill="#000000" font-family="sans-serif" font-size="13" lengthAdjust="spacing" textLength="24" x="124.6433" y="363.4508">1..1</text><text fill="#000000" font-family="sans-serif" font-size="13" lengthAdjust="spacing" textLength="23" x="286.4707" y="450.2622">0..*</text></g><!--link Class to Category--><g id="link_Class_Category"><path codeLine="63" d="M735.395,335.466 C739.993,366.117 745.517,402.9446 749.345,428.4689 " fill="none" id="Class-Category" style="stroke:#181818;stroke-width:1.0;"/><polygon fill="#000000" points="746.2583,376.6217,744.6936,386.0027,750.5064,385.1308,746.2583,376.6217" style="stroke:#000000;stroke-width:1.0;"/><text fill="#000000" font-family="sans-serif" font-size="13" lengthAdjust="spacing" textLength="70" x="756" y="386.0669">"belong to"</text><text fill="#000000" font-family="sans-serif" font-size="13" lengthAdjust="spacing" textLength="23" x="712.0166" y="355.3864">1..*</text><text fill="#000000" font-family="sans-serif" font-size="13" lengthAdjust="spacing" textLength="23" x="723.013" y="417.3656">0..*</text></g><!--link Unavailability to Item--><g id="link_Unavailability_Item"><path codeLine="64" d="M472.738,319.002 C455.125,348.91 431.035,389.818 413.391,419.7798 " fill="none" id="Unavailability-Item" style="stroke:#181818;stroke-width:1.0;"/><polygon fill="#000000" points="446.5372,377.258,439.4149,383.5607,444.4798,386.5433,446.5372,377.258" style="stroke:#000000;stroke-width:1.0;"/><text fill="#000000" font-family="sans-serif" font-size="13" lengthAdjust="spacing" textLength="106" x="453" y="386.0669">"is not available"</text><text fill="#000000" font-family="sans-serif" font-size="13" lengthAdjust="spacing" textLength="24" x="443.1181" y="338.7622">1..1</text><text fill="#000000" font-family="sans-serif" font-size="13" lengthAdjust="spacing" textLength="23" x="392.3604" y="408.9049">0..*</text></g><!--link TemporaryAccess to Association--><g id="link_TemporaryAccess_Association"><path codeLine="65" d="M169.094,80 C180.702,80 192.31,80 203.918,80 " fill="none" id="TemporaryAccess-Association" style="stroke:#181818;stroke-width:1.0;"/><text fill="#000000" font-family="sans-serif" font-size="13" lengthAdjust="spacing" textLength="23" x="173.0893" y="75.9834">0..*</text><text fill="#000000" font-family="sans-serif" font-size="13" lengthAdjust="spacing" textLength="24" x="171.9304" y="92.9246">1..1</text></g><!--link Association to Inventory--><g id="link_Association_Inventory"><path codeLine="66" d="M318.256,80 C329.979,80 341.702,80 353.424,80 " fill="none" id="Association-Inventory" style="stroke:#181818;stroke-width:1.0;"/><text fill="#000000" font-family="sans-serif" font-size="13" lengthAdjust="spacing" textLength="24" x="325.8309" y="76.2376">1..1</text><text fill="#000000" font-family="sans-serif" font-size="13" lengthAdjust="spacing" textLength="23" x="326.005" y="93.45">0..*</text></g><!--link Association to Borrow_Request--><g id="link_Association_Borrow_Request"><path codeLine="67" d="M242.778,112.136 C226.818,139.407 203.124,179.892 183.176,213.978 " fill="none" id="Association-Borrow_Request" style="stroke:#181818;stroke-width:1.0;"/><text fill="#000000" font-family="sans-serif" font-size="13" lengthAdjust="spacing" textLength="24" x="212.5447" y="132.3609">1..1</text><text fill="#000000" font-family="sans-serif" font-size="13" lengthAdjust="spacing" textLength="23" x="162.9843" y="203.1483">0..*</text></g><!--link Association to Item--><g id="link_Association_Item"><path codeLine="68" d="M266.943,112.342 C276.906,162.201 298.981,262.201 330,343 C340.151,369.443 354.62,397.72 366.805,419.7929 " fill="none" id="Association-Item" style="stroke:#181818;stroke-width:1.0;"/><polygon fill="#000000" points="336.5446,283.3218,336.5456,273.8113,330.9552,275.6271,336.5446,283.3218" style="stroke:#000000;stroke-width:1.0;"/><text fill="#000000" font-family="sans-serif" font-size="13" lengthAdjust="spacing" textLength="67" x="344" y="283.0669">Belongs to</text><text fill="#000000" font-family="sans-serif" font-size="13" lengthAdjust="spacing" textLength="20" x="246.1062" y="132.6094">1.1</text><text fill="#000000" font-family="sans-serif" font-size="13" lengthAdjust="spacing" textLength="23" x="338.0586" y="408.9201">0..*</text></g><!--SRC=[TLDDRuCm3BtdLrWSfxPQhzLKgPrsw66Qr7rSgn3SBXCaB0cTgch_VKa8WL360Onvpyz-3YYQ2lRutQ0shuOQl1AmrmSjUO7eupqU6ntY9m7K61G6oIyXwCWl-HUo8LTWS_I1KQYtKlWu3yzANZ14j3bJhYFoERpRkgoaMiCRLhLKL5qsZA7MRN7RYLg1DegBaq-WA0w5rLw1k_kKTht0AXchBxipM5qJN0jmcG8rKxmsN8ee4ecFxXv6f9KZia-gnZn8khCCoJYz_L0hVcxLSodBWOXDdgIw93hZJju5jLQLDESbDnPg1r76km31XiwLxZrIjr8f-NC8rbo9QeCXsF0APwJ0l9b8ZmgtoId3PuJ9gh8dPQB_dJZR3t7AcvqwrvB4OC6noAQtjZThgENt1P0j5ujb1lDv6zvb_WJOhh8SIobEO6G63q1IPmQqx3vXCOj3NKjHUEOww8JQFRxRv5Y9fDlxNuXh4D9009VekAD_egFCkoe3KyWWZY9Hezl092h2Ka_6sAHWspHi_QJQZWhhFm00]--></g></svg>