<?xml version="1.0" encoding="us-ascii" standalone="no"?><svg xmlns="http://www.w3.org/2000/svg" xmlns:xlink="http://www.w3.org/1999/xlink" contentStyleType="text/css" height="868px" preserveAspectRatio="none" style="width:790px;height:868px;background:#FFFFFF;" version="1.1" viewBox="0 0 790 868" width="790px" zoomAndPan="magnify"><defs/><g><!--class RequestState--><g id="elem_RequestState"><rect codeLine="1" fill="#F1F1F1" height="96.8906" id="RequestState" rx="2.5" ry="2.5" style="stroke:#181818;stroke-width:0.5;" width="131" x="515" y="31.5"/><ellipse cx="530" cy="47.5" fill="#EB937F" rx="11" ry="11" style="stroke:#181818;stroke-width:1.0;"/><path d="M528.7969,48.375 L530.25,48.375 L530.25,48.4844 C530.25,48.8906 530.2813,49.0469 530.3594,49.2031 C530.5156,49.4531 530.7969,49.6094 531.0938,49.6094 C531.3438,49.6094 531.6094,49.4688 531.7656,49.25 C531.8906,49.0938 531.9219,48.9375 531.9219,48.4844 L531.9219,46.5625 C531.9219,46.4063 531.9219,46.3594 531.9063,46.2031 C531.8438,45.7344 531.5313,45.4219 531.0781,45.4219 C530.8281,45.4219 530.5625,45.5625 530.3906,45.7813 C530.2813,45.9531 530.25,46.1094 530.25,46.5625 L530.25,46.6875 L528.7969,46.6875 L528.7969,44.2813 L532.7813,44.2813 L532.7813,45.1406 C532.7813,45.5469 532.8125,45.7188 532.8906,45.875 C533.0625,46.125 533.3438,46.2813 533.625,46.2813 C533.8906,46.2813 534.1563,46.1406 534.3281,45.9219 C534.4375,45.75 534.4688,45.6094 534.4688,45.1406 L534.4688,42.5938 L526.8438,42.5938 C526.4063,42.5938 526.2813,42.6094 526.125,42.7031 C525.875,42.8594 525.7188,43.1563 525.7188,43.4375 C525.7188,43.7188 525.8594,43.9688 526.0781,44.1406 C526.2344,44.25 526.4219,44.2813 526.8438,44.2813 L527.0938,44.2813 L527.0938,50.7969 L526.8438,50.7969 C526.4375,50.7969 526.2813,50.8125 526.125,50.9219 C525.875,51.0938 525.7188,51.3594 525.7188,51.6563 C525.7188,51.9219 525.8594,52.1719 526.0781,52.3281 C526.2188,52.4531 526.4531,52.5 526.8438,52.5 L534.8438,52.5 L534.8438,49.9219 C534.8438,49.4844 534.8125,49.3438 534.7344,49.1875 C534.5625,48.9375 534.2813,48.7813 534,48.7813 C533.7344,48.7813 533.4688,48.8906 533.2969,49.1406 C533.1875,49.2969 533.1563,49.4375 533.1563,49.9219 L533.1563,50.7969 L528.7969,50.7969 L528.7969,48.375 Z " fill="#000000"/><text fill="#000000" font-family="sans-serif" font-size="14" lengthAdjust="spacing" textLength="99" x="544" y="52.3467">RequestState</text><line style="stroke:#181818;stroke-width:0.5;" x1="516" x2="645" y1="63.5" y2="63.5"/><text fill="#000000" font-family="sans-serif" font-size="14" lengthAdjust="spacing" textLength="53" x="521" y="80.4951">Validee</text><text fill="#000000" font-family="sans-serif" font-size="14" lengthAdjust="spacing" textLength="58" x="521" y="96.792">Refusee</text><text fill="#000000" font-family="sans-serif" font-size="14" lengthAdjust="spacing" textLength="78" x="521" y="113.0889">En attente</text><line style="stroke:#181818;stroke-width:0.5;" x1="516" x2="645" y1="120.3906" y2="120.3906"/></g><!--class Condition--><g id="elem_Condition"><rect codeLine="7" fill="#F1F1F1" height="145.7813" id="Condition" rx="2.5" ry="2.5" style="stroke:#181818;stroke-width:0.5;" width="102" x="681.5" y="7"/><ellipse cx="696.5" cy="23" fill="#EB937F" rx="11" ry="11" style="stroke:#181818;stroke-width:1.0;"/><path d="M695.2969,23.875 L696.75,23.875 L696.75,23.9844 C696.75,24.3906 696.7813,24.5469 696.8594,24.7031 C697.0156,24.9531 697.2969,25.1094 697.5938,25.1094 C697.8438,25.1094 698.1094,24.9688 698.2656,24.75 C698.3906,24.5938 698.4219,24.4375 698.4219,23.9844 L698.4219,22.0625 C698.4219,21.9063 698.4219,21.8594 698.4063,21.7031 C698.3438,21.2344 698.0313,20.9219 697.5781,20.9219 C697.3281,20.9219 697.0625,21.0625 696.8906,21.2813 C696.7813,21.4531 696.75,21.6094 696.75,22.0625 L696.75,22.1875 L695.2969,22.1875 L695.2969,19.7813 L699.2813,19.7813 L699.2813,20.6406 C699.2813,21.0469 699.3125,21.2188 699.3906,21.375 C699.5625,21.625 699.8438,21.7813 700.125,21.7813 C700.3906,21.7813 700.6563,21.6406 700.8281,21.4219 C700.9375,21.25 700.9688,21.1094 700.9688,20.6406 L700.9688,18.0938 L693.3438,18.0938 C692.9063,18.0938 692.7813,18.1094 692.625,18.2031 C692.375,18.3594 692.2188,18.6563 692.2188,18.9375 C692.2188,19.2188 692.3594,19.4688 692.5781,19.6406 C692.7344,19.75 692.9219,19.7813 693.3438,19.7813 L693.5938,19.7813 L693.5938,26.2969 L693.3438,26.2969 C692.9375,26.2969 692.7813,26.3125 692.625,26.4219 C692.375,26.5938 692.2188,26.8594 692.2188,27.1563 C692.2188,27.4219 692.3594,27.6719 692.5781,27.8281 C692.7188,27.9531 692.9531,28 693.3438,28 L701.3438,28 L701.3438,25.4219 C701.3438,24.9844 701.3125,24.8438 701.2344,24.6875 C701.0625,24.4375 700.7813,24.2813 700.5,24.2813 C700.2344,24.2813 699.9688,24.3906 699.7969,24.6406 C699.6875,24.7969 699.6563,24.9375 699.6563,25.4219 L699.6563,26.2969 L695.2969,26.2969 L695.2969,23.875 Z " fill="#000000"/><text fill="#000000" font-family="sans-serif" font-size="14" lengthAdjust="spacing" textLength="70" x="710.5" y="27.8467">Condition</text><line style="stroke:#181818;stroke-width:0.5;" x1="682.5" x2="782.5" y1="39" y2="39"/><text fill="#000000" font-family="sans-serif" font-size="14" lengthAdjust="spacing" textLength="32" x="687.5" y="55.9951">neuf</text><text fill="#000000" font-family="sans-serif" font-size="14" lengthAdjust="spacing" textLength="57" x="687.5" y="72.292">tresBon</text><text fill="#000000" font-family="sans-serif" font-size="14" lengthAdjust="spacing" textLength="28" x="687.5" y="88.5889">bon</text><text fill="#000000" font-family="sans-serif" font-size="14" lengthAdjust="spacing" textLength="49" x="687.5" y="104.8857">moyen</text><text fill="#000000" font-family="sans-serif" font-size="14" lengthAdjust="spacing" textLength="57" x="687.5" y="121.1826">mauvais</text><text fill="#000000" font-family="sans-serif" font-size="14" lengthAdjust="spacing" textLength="84" x="687.5" y="137.4795">tresMauvais</text><line style="stroke:#181818;stroke-width:0.5;" x1="682.5" x2="782.5" y1="144.7813" y2="144.7813"/></g><!--class ConditionHistory--><g id="elem_ConditionHistory"><rect codeLine="16" fill="#F1F1F1" height="80.5938" id="ConditionHistory" rx="2.5" ry="2.5" style="stroke:#181818;stroke-width:0.5;" width="159" x="329" y="781"/><ellipse cx="346.7" cy="797" fill="#ADD1B2" rx="11" ry="11" style="stroke:#181818;stroke-width:1.0;"/><path d="M349.0438,792.6719 C348.1063,792.2344 347.5125,792.0938 346.6375,792.0938 C344.0125,792.0938 342.0125,794.1719 342.0125,796.8906 L342.0125,798.0156 C342.0125,800.5938 344.1219,802.4844 347.0125,802.4844 C348.2313,802.4844 349.3875,802.1875 350.1375,801.6406 C350.7156,801.2344 351.0438,800.7813 351.0438,800.3906 C351.0438,799.9375 350.6531,799.5469 350.1844,799.5469 C349.9656,799.5469 349.7625,799.625 349.575,799.8125 C349.1219,800.2969 349.1219,800.2969 348.9344,800.3906 C348.5125,800.6563 347.825,800.7813 347.0594,800.7813 C345.0125,800.7813 343.7156,799.6875 343.7156,797.9844 L343.7156,796.8906 C343.7156,795.1094 344.9656,793.7969 346.7,793.7969 C347.2781,793.7969 347.8875,793.9531 348.3563,794.2031 C348.8406,794.4844 349.0125,794.7031 349.1063,795.1094 C349.1688,795.5156 349.2,795.6406 349.3406,795.7656 C349.4813,795.9063 349.7156,796.0156 349.9344,796.0156 C350.2,796.0156 350.4656,795.875 350.6375,795.6563 C350.7469,795.5 350.7781,795.3125 350.7781,794.8906 L350.7781,793.4688 C350.7781,793.0313 350.7625,792.9063 350.6688,792.75 C350.5125,792.4844 350.2313,792.3438 349.9344,792.3438 C349.6375,792.3438 349.4344,792.4375 349.2156,792.75 L349.0438,792.6719 Z " fill="#000000"/><text fill="#000000" font-family="sans-serif" font-size="14" lengthAdjust="spacing" textLength="121" x="361.3" y="801.8467">ConditionHistory</text><line style="stroke:#181818;stroke-width:0.5;" x1="330" x2="487" y1="813" y2="813"/><text fill="#000000" font-family="sans-serif" font-size="14" lengthAdjust="spacing" textLength="113" x="335" y="829.9951">date: datetime,</text><text fill="#000000" font-family="sans-serif" font-size="14" lengthAdjust="spacing" textLength="147" x="335" y="846.292">condition: Condition</text><line style="stroke:#181818;stroke-width:0.5;" x1="330" x2="487" y1="853.5938" y2="853.5938"/></g><!--class TemporaryAccess--><g id="elem_TemporaryAccess"><rect codeLine="21" fill="#F1F1F1" height="96.8906" id="TemporaryAccess" rx="2.5" ry="2.5" style="stroke:#181818;stroke-width:0.5;" width="162" x="317.5" y="31.5"/><ellipse cx="333.4" cy="47.5" fill="#ADD1B2" rx="11" ry="11" style="stroke:#181818;stroke-width:1.0;"/><path d="M335.7438,43.1719 C334.8063,42.7344 334.2125,42.5938 333.3375,42.5938 C330.7125,42.5938 328.7125,44.6719 328.7125,47.3906 L328.7125,48.5156 C328.7125,51.0938 330.8219,52.9844 333.7125,52.9844 C334.9313,52.9844 336.0875,52.6875 336.8375,52.1406 C337.4156,51.7344 337.7438,51.2813 337.7438,50.8906 C337.7438,50.4375 337.3531,50.0469 336.8844,50.0469 C336.6656,50.0469 336.4625,50.125 336.275,50.3125 C335.8219,50.7969 335.8219,50.7969 335.6344,50.8906 C335.2125,51.1563 334.525,51.2813 333.7594,51.2813 C331.7125,51.2813 330.4156,50.1875 330.4156,48.4844 L330.4156,47.3906 C330.4156,45.6094 331.6656,44.2969 333.4,44.2969 C333.9781,44.2969 334.5875,44.4531 335.0563,44.7031 C335.5406,44.9844 335.7125,45.2031 335.8063,45.6094 C335.8688,46.0156 335.9,46.1406 336.0406,46.2656 C336.1813,46.4063 336.4156,46.5156 336.6344,46.5156 C336.9,46.5156 337.1656,46.375 337.3375,46.1563 C337.4469,46 337.4781,45.8125 337.4781,45.3906 L337.4781,43.9688 C337.4781,43.5313 337.4625,43.4063 337.3688,43.25 C337.2125,42.9844 336.9313,42.8438 336.6344,42.8438 C336.3375,42.8438 336.1344,42.9375 335.9156,43.25 L335.7438,43.1719 Z " fill="#000000"/><text fill="#000000" font-family="sans-serif" font-size="14" lengthAdjust="spacing" textLength="128" x="347.6" y="52.3467">TemporaryAccess</text><line style="stroke:#181818;stroke-width:0.5;" x1="318.5" x2="478.5" y1="63.5" y2="63.5"/><text fill="#000000" font-family="sans-serif" font-size="14" lengthAdjust="spacing" textLength="81" x="323.5" y="80.4951">user: string</text><text fill="#000000" font-family="sans-serif" font-size="14" lengthAdjust="spacing" textLength="109" x="323.5" y="96.792">end_date: date</text><text fill="#000000" font-family="sans-serif" font-size="14" lengthAdjust="spacing" textLength="150" x="323.5" y="113.0889">state : RequestState</text><line style="stroke:#181818;stroke-width:0.5;" x1="318.5" x2="478.5" y1="120.3906" y2="120.3906"/></g><!--class Item--><g id="elem_Item"><rect codeLine="27" fill="#F1F1F1" height="64.2969" id="Item" rx="2.5" ry="2.5" style="stroke:#181818;stroke-width:0.5;" width="145" x="336" y="656"/><ellipse cx="387.25" cy="672" fill="#ADD1B2" rx="11" ry="11" style="stroke:#181818;stroke-width:1.0;"/><path d="M389.5938,667.6719 C388.6563,667.2344 388.0625,667.0938 387.1875,667.0938 C384.5625,667.0938 382.5625,669.1719 382.5625,671.8906 L382.5625,673.0156 C382.5625,675.5938 384.6719,677.4844 387.5625,677.4844 C388.7813,677.4844 389.9375,677.1875 390.6875,676.6406 C391.2656,676.2344 391.5938,675.7813 391.5938,675.3906 C391.5938,674.9375 391.2031,674.5469 390.7344,674.5469 C390.5156,674.5469 390.3125,674.625 390.125,674.8125 C389.6719,675.2969 389.6719,675.2969 389.4844,675.3906 C389.0625,675.6563 388.375,675.7813 387.6094,675.7813 C385.5625,675.7813 384.2656,674.6875 384.2656,672.9844 L384.2656,671.8906 C384.2656,670.1094 385.5156,668.7969 387.25,668.7969 C387.8281,668.7969 388.4375,668.9531 388.9063,669.2031 C389.3906,669.4844 389.5625,669.7031 389.6563,670.1094 C389.7188,670.5156 389.75,670.6406 389.8906,670.7656 C390.0313,670.9063 390.2656,671.0156 390.4844,671.0156 C390.75,671.0156 391.0156,670.875 391.1875,670.6563 C391.2969,670.5 391.3281,670.3125 391.3281,669.8906 L391.3281,668.4688 C391.3281,668.0313 391.3125,667.9063 391.2188,667.75 C391.0625,667.4844 390.7813,667.3438 390.4844,667.3438 C390.1875,667.3438 389.9844,667.4375 389.7656,667.75 L389.5938,667.6719 Z " fill="#000000"/><text fill="#000000" font-family="sans-serif" font-size="14" lengthAdjust="spacing" textLength="34" x="407.75" y="676.8467">Item</text><line style="stroke:#181818;stroke-width:0.5;" x1="337" x2="480" y1="688" y2="688"/><text fill="#000000" font-family="sans-serif" font-size="14" lengthAdjust="spacing" textLength="133" x="342" y="704.9951">description: string</text><line style="stroke:#181818;stroke-width:0.5;" x1="337" x2="480" y1="712.2969" y2="712.2969"/></g><!--class Class--><g id="elem_Class"><rect codeLine="31" fill="#F1F1F1" height="96.8906" id="Class" rx="2.5" ry="2.5" style="stroke:#181818;stroke-width:0.5;" width="149" x="7" y="466"/><ellipse cx="59.25" cy="482" fill="#ADD1B2" rx="11" ry="11" style="stroke:#181818;stroke-width:1.0;"/><path d="M61.5938,477.6719 C60.6563,477.2344 60.0625,477.0938 59.1875,477.0938 C56.5625,477.0938 54.5625,479.1719 54.5625,481.8906 L54.5625,483.0156 C54.5625,485.5938 56.6719,487.4844 59.5625,487.4844 C60.7813,487.4844 61.9375,487.1875 62.6875,486.6406 C63.2656,486.2344 63.5938,485.7813 63.5938,485.3906 C63.5938,484.9375 63.2031,484.5469 62.7344,484.5469 C62.5156,484.5469 62.3125,484.625 62.125,484.8125 C61.6719,485.2969 61.6719,485.2969 61.4844,485.3906 C61.0625,485.6563 60.375,485.7813 59.6094,485.7813 C57.5625,485.7813 56.2656,484.6875 56.2656,482.9844 L56.2656,481.8906 C56.2656,480.1094 57.5156,478.7969 59.25,478.7969 C59.8281,478.7969 60.4375,478.9531 60.9063,479.2031 C61.3906,479.4844 61.5625,479.7031 61.6563,480.1094 C61.7188,480.5156 61.75,480.6406 61.8906,480.7656 C62.0313,480.9063 62.2656,481.0156 62.4844,481.0156 C62.75,481.0156 63.0156,480.875 63.1875,480.6563 C63.2969,480.5 63.3281,480.3125 63.3281,479.8906 L63.3281,478.4688 C63.3281,478.0313 63.3125,477.9063 63.2188,477.75 C63.0625,477.4844 62.7813,477.3438 62.4844,477.3438 C62.1875,477.3438 61.9844,477.4375 61.7656,477.75 L61.5938,477.6719 Z " fill="#000000"/><text fill="#000000" font-family="sans-serif" font-size="14" lengthAdjust="spacing" textLength="36" x="79.75" y="486.8467">Class</text><line style="stroke:#181818;stroke-width:0.5;" x1="8" x2="155" y1="498" y2="498"/><text fill="#000000" font-family="sans-serif" font-size="14" lengthAdjust="spacing" textLength="84" x="13" y="514.9951">name : char</text><text fill="#000000" font-family="sans-serif" font-size="14" lengthAdjust="spacing" textLength="137" x="13" y="531.292">description : string</text><text fill="#000000" font-family="sans-serif" font-size="14" lengthAdjust="spacing" textLength="97" x="13" y="547.5889">private : bool</text><line style="stroke:#181818;stroke-width:0.5;" x1="8" x2="155" y1="554.8906" y2="554.8906"/></g><!--class Category--><g id="elem_Category"><rect codeLine="37" fill="#F1F1F1" height="64.2969" id="Category" rx="2.5" ry="2.5" style="stroke:#181818;stroke-width:0.5;" width="107" x="10" y="656"/><ellipse cx="29.05" cy="672" fill="#ADD1B2" rx="11" ry="11" style="stroke:#181818;stroke-width:1.0;"/><path d="M31.3938,667.6719 C30.4563,667.2344 29.8625,667.0938 28.9875,667.0938 C26.3625,667.0938 24.3625,669.1719 24.3625,671.8906 L24.3625,673.0156 C24.3625,675.5938 26.4719,677.4844 29.3625,677.4844 C30.5813,677.4844 31.7375,677.1875 32.4875,676.6406 C33.0656,676.2344 33.3938,675.7813 33.3938,675.3906 C33.3938,674.9375 33.0031,674.5469 32.5344,674.5469 C32.3156,674.5469 32.1125,674.625 31.925,674.8125 C31.4719,675.2969 31.4719,675.2969 31.2844,675.3906 C30.8625,675.6563 30.175,675.7813 29.4094,675.7813 C27.3625,675.7813 26.0656,674.6875 26.0656,672.9844 L26.0656,671.8906 C26.0656,670.1094 27.3156,668.7969 29.05,668.7969 C29.6281,668.7969 30.2375,668.9531 30.7063,669.2031 C31.1906,669.4844 31.3625,669.7031 31.4563,670.1094 C31.5188,670.5156 31.55,670.6406 31.6906,670.7656 C31.8313,670.9063 32.0656,671.0156 32.2844,671.0156 C32.55,671.0156 32.8156,670.875 32.9875,670.6563 C33.0969,670.5 33.1281,670.3125 33.1281,669.8906 L33.1281,668.4688 C33.1281,668.0313 33.1125,667.9063 33.0188,667.75 C32.8625,667.4844 32.5813,667.3438 32.2844,667.3438 C31.9875,667.3438 31.7844,667.4375 31.5656,667.75 L31.3938,667.6719 Z " fill="#000000"/><text fill="#000000" font-family="sans-serif" font-size="14" lengthAdjust="spacing" textLength="66" x="43.95" y="676.8467">Category</text><line style="stroke:#181818;stroke-width:0.5;" x1="11" x2="116" y1="688" y2="688"/><text fill="#000000" font-family="sans-serif" font-size="14" lengthAdjust="spacing" textLength="95" x="16" y="704.9951">name : string</text><line style="stroke:#181818;stroke-width:0.5;" x1="11" x2="116" y1="712.2969" y2="712.2969"/></g><!--class Unavailability--><g id="elem_Unavailability"><rect codeLine="41" fill="#F1F1F1" height="80.5938" id="Unavailability" rx="2.5" ry="2.5" style="stroke:#181818;stroke-width:0.5;" width="133" x="228" y="474"/><ellipse cx="245.7" cy="490" fill="#ADD1B2" rx="11" ry="11" style="stroke:#181818;stroke-width:1.0;"/><path d="M248.0438,485.6719 C247.1063,485.2344 246.5125,485.0938 245.6375,485.0938 C243.0125,485.0938 241.0125,487.1719 241.0125,489.8906 L241.0125,491.0156 C241.0125,493.5938 243.1219,495.4844 246.0125,495.4844 C247.2313,495.4844 248.3875,495.1875 249.1375,494.6406 C249.7156,494.2344 250.0438,493.7813 250.0438,493.3906 C250.0438,492.9375 249.6531,492.5469 249.1844,492.5469 C248.9656,492.5469 248.7625,492.625 248.575,492.8125 C248.1219,493.2969 248.1219,493.2969 247.9344,493.3906 C247.5125,493.6563 246.825,493.7813 246.0594,493.7813 C244.0125,493.7813 242.7156,492.6875 242.7156,490.9844 L242.7156,489.8906 C242.7156,488.1094 243.9656,486.7969 245.7,486.7969 C246.2781,486.7969 246.8875,486.9531 247.3563,487.2031 C247.8406,487.4844 248.0125,487.7031 248.1063,488.1094 C248.1688,488.5156 248.2,488.6406 248.3406,488.7656 C248.4813,488.9063 248.7156,489.0156 248.9344,489.0156 C249.2,489.0156 249.4656,488.875 249.6375,488.6563 C249.7469,488.5 249.7781,488.3125 249.7781,487.8906 L249.7781,486.4688 C249.7781,486.0313 249.7625,485.9063 249.6688,485.75 C249.5125,485.4844 249.2313,485.3438 248.9344,485.3438 C248.6375,485.3438 248.4344,485.4375 248.2156,485.75 L248.0438,485.6719 Z " fill="#000000"/><text fill="#000000" font-family="sans-serif" font-size="14" lengthAdjust="spacing" textLength="95" x="260.3" y="494.8467">Unavailability</text><line style="stroke:#181818;stroke-width:0.5;" x1="229" x2="360" y1="506" y2="506"/><text fill="#000000" font-family="sans-serif" font-size="14" lengthAdjust="spacing" textLength="121" x="234" y="522.9951">start_date : date</text><text fill="#000000" font-family="sans-serif" font-size="14" lengthAdjust="spacing" textLength="113" x="234" y="539.292">end_date : date</text><line style="stroke:#181818;stroke-width:0.5;" x1="229" x2="360" y1="546.5938" y2="546.5938"/></g><!--class Borrow_Request--><g id="elem_Borrow_Request"><rect codeLine="46" fill="#F1F1F1" height="129.4844" id="Borrow_Request" rx="2.5" ry="2.5" style="stroke:#181818;stroke-width:0.5;" width="191" x="436" y="450"/><ellipse cx="469.9" cy="466" fill="#ADD1B2" rx="11" ry="11" style="stroke:#181818;stroke-width:1.0;"/><path d="M472.2438,461.6719 C471.3063,461.2344 470.7125,461.0938 469.8375,461.0938 C467.2125,461.0938 465.2125,463.1719 465.2125,465.8906 L465.2125,467.0156 C465.2125,469.5938 467.3219,471.4844 470.2125,471.4844 C471.4313,471.4844 472.5875,471.1875 473.3375,470.6406 C473.9156,470.2344 474.2438,469.7813 474.2438,469.3906 C474.2438,468.9375 473.8531,468.5469 473.3844,468.5469 C473.1656,468.5469 472.9625,468.625 472.775,468.8125 C472.3219,469.2969 472.3219,469.2969 472.1344,469.3906 C471.7125,469.6563 471.025,469.7813 470.2594,469.7813 C468.2125,469.7813 466.9156,468.6875 466.9156,466.9844 L466.9156,465.8906 C466.9156,464.1094 468.1656,462.7969 469.9,462.7969 C470.4781,462.7969 471.0875,462.9531 471.5563,463.2031 C472.0406,463.4844 472.2125,463.7031 472.3063,464.1094 C472.3688,464.5156 472.4,464.6406 472.5406,464.7656 C472.6813,464.9063 472.9156,465.0156 473.1344,465.0156 C473.4,465.0156 473.6656,464.875 473.8375,464.6563 C473.9469,464.5 473.9781,464.3125 473.9781,463.8906 L473.9781,462.4688 C473.9781,462.0313 473.9625,461.9063 473.8688,461.75 C473.7125,461.4844 473.4313,461.3438 473.1344,461.3438 C472.8375,461.3438 472.6344,461.4375 472.4156,461.75 L472.2438,461.6719 Z " fill="#000000"/><text fill="#000000" font-family="sans-serif" font-size="14" lengthAdjust="spacing" textLength="117" x="488.1" y="470.8467">Borrow_Request</text><line style="stroke:#181818;stroke-width:0.5;" x1="437" x2="626" y1="482" y2="482"/><text fill="#000000" font-family="sans-serif" font-size="14" lengthAdjust="spacing" textLength="179" x="442" y="498.9951">request_date : datetime,</text><text fill="#000000" font-family="sans-serif" font-size="14" lengthAdjust="spacing" textLength="167" x="442" y="515.292">debut_date : datetime,</text><text fill="#000000" font-family="sans-serif" font-size="14" lengthAdjust="spacing" textLength="151" x="442" y="531.5889">end_date : datetime,</text><text fill="#000000" font-family="sans-serif" font-size="14" lengthAdjust="spacing" textLength="154" x="442" y="547.8857">state : RequestState,</text><text fill="#000000" font-family="sans-serif" font-size="14" lengthAdjust="spacing" textLength="125" x="442" y="564.1826">comment : string</text><line style="stroke:#181818;stroke-width:0.5;" x1="437" x2="626" y1="571.4844" y2="571.4844"/></g><!--class Inventory--><g id="elem_Inventory"><rect codeLine="54" fill="#F1F1F1" height="80.5938" id="Inventory" rx="2.5" ry="2.5" style="stroke:#181818;stroke-width:0.5;" width="101" x="491" y="230"/><ellipse cx="506" cy="246" fill="#ADD1B2" rx="11" ry="11" style="stroke:#181818;stroke-width:1.0;"/><path d="M508.3438,241.6719 C507.4063,241.2344 506.8125,241.0938 505.9375,241.0938 C503.3125,241.0938 501.3125,243.1719 501.3125,245.8906 L501.3125,247.0156 C501.3125,249.5938 503.4219,251.4844 506.3125,251.4844 C507.5313,251.4844 508.6875,251.1875 509.4375,250.6406 C510.0156,250.2344 510.3438,249.7813 510.3438,249.3906 C510.3438,248.9375 509.9531,248.5469 509.4844,248.5469 C509.2656,248.5469 509.0625,248.625 508.875,248.8125 C508.4219,249.2969 508.4219,249.2969 508.2344,249.3906 C507.8125,249.6563 507.125,249.7813 506.3594,249.7813 C504.3125,249.7813 503.0156,248.6875 503.0156,246.9844 L503.0156,245.8906 C503.0156,244.1094 504.2656,242.7969 506,242.7969 C506.5781,242.7969 507.1875,242.9531 507.6563,243.2031 C508.1406,243.4844 508.3125,243.7031 508.4063,244.1094 C508.4688,244.5156 508.5,244.6406 508.6406,244.7656 C508.7813,244.9063 509.0156,245.0156 509.2344,245.0156 C509.5,245.0156 509.7656,244.875 509.9375,244.6563 C510.0469,244.5 510.0781,244.3125 510.0781,243.8906 L510.0781,242.4688 C510.0781,242.0313 510.0625,241.9063 509.9688,241.75 C509.8125,241.4844 509.5313,241.3438 509.2344,241.3438 C508.9375,241.3438 508.7344,241.4375 508.5156,241.75 L508.3438,241.6719 Z " fill="#000000"/><text fill="#000000" font-family="sans-serif" font-size="14" lengthAdjust="spacing" textLength="69" x="520" y="250.8467">Inventory</text><line style="stroke:#181818;stroke-width:0.5;" x1="492" x2="591" y1="262" y2="262"/><text fill="#000000" font-family="sans-serif" font-size="14" lengthAdjust="spacing" textLength="81" x="497" y="278.9951">user: string</text><text fill="#000000" font-family="sans-serif" font-size="14" lengthAdjust="spacing" textLength="75" x="497" y="295.292">date: date</text><line style="stroke:#181818;stroke-width:0.5;" x1="492" x2="591" y1="302.5938" y2="302.5938"/></g><!--class Association--><g id="elem_Association"><rect codeLine="59" fill="#F1F1F1" height="64.2969" id="Association" rx="2.5" ry="2.5" style="stroke:#181818;stroke-width:0.5;" width="114" x="341.5" y="238.5"/><ellipse cx="356.5" cy="254.5" fill="#ADD1B2" rx="11" ry="11" style="stroke:#181818;stroke-width:1.0;"/><path d="M358.8438,250.1719 C357.9063,249.7344 357.3125,249.5938 356.4375,249.5938 C353.8125,249.5938 351.8125,251.6719 351.8125,254.3906 L351.8125,255.5156 C351.8125,258.0938 353.9219,259.9844 356.8125,259.9844 C358.0313,259.9844 359.1875,259.6875 359.9375,259.1406 C360.5156,258.7344 360.8438,258.2813 360.8438,257.8906 C360.8438,257.4375 360.4531,257.0469 359.9844,257.0469 C359.7656,257.0469 359.5625,257.125 359.375,257.3125 C358.9219,257.7969 358.9219,257.7969 358.7344,257.8906 C358.3125,258.1563 357.625,258.2813 356.8594,258.2813 C354.8125,258.2813 353.5156,257.1875 353.5156,255.4844 L353.5156,254.3906 C353.5156,252.6094 354.7656,251.2969 356.5,251.2969 C357.0781,251.2969 357.6875,251.4531 358.1563,251.7031 C358.6406,251.9844 358.8125,252.2031 358.9063,252.6094 C358.9688,253.0156 359,253.1406 359.1406,253.2656 C359.2813,253.4063 359.5156,253.5156 359.7344,253.5156 C360,253.5156 360.2656,253.375 360.4375,253.1563 C360.5469,253 360.5781,252.8125 360.5781,252.3906 L360.5781,250.9688 C360.5781,250.5313 360.5625,250.4063 360.4688,250.25 C360.3125,249.9844 360.0313,249.8438 359.7344,249.8438 C359.4375,249.8438 359.2344,249.9375 359.0156,250.25 L358.8438,250.1719 Z " fill="#000000"/><text fill="#000000" font-family="sans-serif" font-size="14" lengthAdjust="spacing" textLength="82" x="370.5" y="259.3467">Association</text><line style="stroke:#181818;stroke-width:0.5;" x1="342.5" x2="454.5" y1="270.5" y2="270.5"/><text fill="#000000" font-family="sans-serif" font-size="14" lengthAdjust="spacing" textLength="91" x="347.5" y="287.4951">name: string</text><line style="stroke:#181818;stroke-width:0.5;" x1="342.5" x2="454.5" y1="294.7969" y2="294.7969"/></g><ellipse cx="398.5" cy="514.5" fill="#181818" rx="2" ry="2" style="stroke:#181818;stroke-width:1.0;"/><!--link Class to Item--><g id="link_Class_Item"><path codeLine="63" d="M140.088,563.164 C168.089,584.366 202.791,608.448 236.5,626 C267.834,642.316 304.501,655.991 335.913,666.23 " fill="none" id="Class-Item" style="stroke:#181818;stroke-width:1.0;"/><polygon fill="#000000" points="237.0754,615.2377,243.7108,622.0511,246.4484,616.8497,237.0754,615.2377" style="stroke:#000000;stroke-width:1.0;"/><text fill="#000000" font-family="sans-serif" font-size="13" lengthAdjust="spacing" textLength="70" x="250.5" y="622.0669">"belong to"</text><text fill="#000000" font-family="sans-serif" font-size="13" lengthAdjust="spacing" textLength="24" x="122.3483" y="582.7942">1..1</text><text fill="#000000" font-family="sans-serif" font-size="13" lengthAdjust="spacing" textLength="23" x="304.8985" y="660.4993">1..*</text></g><!--reverse link Borrow_Request to Item--><g id="link_Borrow_Request_Item"><path codeLine="64" d="M489.5955,589.3913 C480.0015,605.1073 475.476,611.377 464.5,626 C456.906,636.118 447.915,646.488 439.386,655.741 " fill="none" id="Borrow_Request-backto-Item" style="stroke:#181818;stroke-width:1.0;"/><polygon fill="none" points="495.848,579.149,489.3076,582.186,489.5955,589.3913,496.1358,586.3544,495.848,579.149" style="stroke:#181818;stroke-width:1.0;"/><polygon fill="#000000" points="477.4828,621.5535,485.2845,616.1143,480.5974,612.5674,477.4828,621.5535" style="stroke:#000000;stroke-width:1.0;"/><text fill="#000000" font-family="sans-serif" font-size="13" lengthAdjust="spacing" textLength="99" x="489.5" y="622.0669">"correspond to"</text><text fill="#000000" font-family="sans-serif" font-size="13" lengthAdjust="spacing" textLength="23" x="467.3961" y="599.5378">0..*</text><text fill="#000000" font-family="sans-serif" font-size="13" lengthAdjust="spacing" textLength="23" x="420.2026" y="644.9642">1..*</text></g><!--link Class to Category--><g id="link_Class_Category"><path codeLine="65" d="M68.6541,563.203 C65.305,577.788 62.169,593.953 60.5,609 C59.6671,616.51 60.3144,618.447 60.5,626 C60.7397,635.752 61.1945,646.373 61.6789,655.979 " fill="none" id="Class-Category" style="stroke:#181818;stroke-width:1.0;"/><polygon fill="#000000" points="65.8749,612.5805,62.2661,621.3798,68.1274,621.8204,65.8749,612.5805" style="stroke:#000000;stroke-width:1.0;"/><text fill="#000000" font-family="sans-serif" font-size="13" lengthAdjust="spacing" textLength="70" x="74.5" y="622.0669">"belong to"</text><text fill="#000000" font-family="sans-serif" font-size="13" lengthAdjust="spacing" textLength="23" x="42.3826" y="582.8384">0..*</text><text fill="#000000" font-family="sans-serif" font-size="13" lengthAdjust="spacing" textLength="23" x="35.9314" y="644.8778">0..*</text></g><!--link Unavailability to Item--><g id="link_Unavailability_Item"><path codeLine="66" d="M305.672,555.051 C313.09,577.178 324.284,604.541 339.5,626 C347.176,636.826 357.128,647.044 367.073,655.91 " fill="none" id="Unavailability-Item" style="stroke:#181818;stroke-width:1.0;"/><polygon fill="#000000" points="341.9,613.2956,344.0931,622.5498,349.1138,619.4933,341.9,613.2956" style="stroke:#000000;stroke-width:1.0;"/><text fill="#000000" font-family="sans-serif" font-size="13" lengthAdjust="spacing" textLength="106" x="353.5" y="622.0669">"is not available"</text><text fill="#000000" font-family="sans-serif" font-size="13" lengthAdjust="spacing" textLength="24" x="281.5452" y="574.517">1..1</text><text fill="#000000" font-family="sans-serif" font-size="13" lengthAdjust="spacing" textLength="23" x="333.1568" y="644.7945">0..*</text></g><!--link TemporaryAccess to Association--><g id="link_TemporaryAccess_Association"><path codeLine="67" d="M398.5,128.567 C398.5,162.922 398.5,208.349 398.5,238.221 " fill="none" id="TemporaryAccess-Association" style="stroke:#181818;stroke-width:1.0;"/><polygon fill="#000000" points="403.5,186.5664,400.5611,195.6115,406.4389,195.6115,403.5,186.5664" style="stroke:#000000;stroke-width:1.0;"/><text fill="#000000" font-family="sans-serif" font-size="13" lengthAdjust="spacing" textLength="34" x="412.5" y="196.0669">gives</text><text fill="#000000" font-family="sans-serif" font-size="13" lengthAdjust="spacing" textLength="23" x="373.8828" y="148.5353">0..*</text><text fill="#000000" font-family="sans-serif" font-size="13" lengthAdjust="spacing" textLength="24" x="372.1375" y="227.4403">1..1</text></g><!--link Association to Inventory--><g id="link_Association_Inventory"><path codeLine="68" d="M455.756,270.5 C467.479,270.5 479.202,270.5 490.924,270.5 " fill="none" id="Association-Inventory" style="stroke:#181818;stroke-width:1.0;"/><text fill="#000000" font-family="sans-serif" font-size="13" lengthAdjust="spacing" textLength="24" x="463.3309" y="266.7376">1..1</text><text fill="#000000" font-family="sans-serif" font-size="13" lengthAdjust="spacing" textLength="23" x="463.505" y="283.9699">0..*</text></g><!--link Association to Item--><g id="link_Association_Item"><path codeLine="69" d="M452.485,302.63 C518.408,341.921 623.736,409.279 644.5,450 C681.279,522.128 666.574,583.765 597.5,626 C561.907,647.764 517.737,662.581 481.05,672.157 " fill="none" id="Association-Item" style="stroke:#181818;stroke-width:1.0;"/><polygon fill="#000000" points="624.8854,416.5515,627.1184,407.3068,621.2581,407.7599,624.8854,416.5515" style="stroke:#000000;stroke-width:1.0;"/><text fill="#000000" font-family="sans-serif" font-size="13" lengthAdjust="spacing" textLength="67" x="633.5" y="416.0669">Belongs to</text><text fill="#000000" font-family="sans-serif" font-size="13" lengthAdjust="spacing" textLength="20" x="441.5569" y="322.8537">1.1</text><text fill="#000000" font-family="sans-serif" font-size="13" lengthAdjust="spacing" textLength="23" x="489.061" y="666.9912">0..*</text></g><!--link Association to apoint21--><g id="link_Association_apoint21"><path d="M389.618,302.642 C382.641,365.449 385.103,502.255 397.002,512.847 " fill="none" id="Association-apoint21" style="stroke:#181818;stroke-width:1.0;"/><text fill="#000000" font-family="sans-serif" font-size="13" lengthAdjust="spacing" textLength="23" x="362.4142" y="322.8681">0..*</text></g><!--link apoint21 to Association--><g id="link_apoint21_Association"><path d="M400.086,512.847 C412.685,502.255 415.292,365.449 407.905,302.642 " fill="none" id="apoint21-Association" style="stroke:#181818;stroke-width:1.0;"/><text fill="#000000" font-family="sans-serif" font-size="13" lengthAdjust="spacing" textLength="23" x="412.2167" y="322.8681">0..*</text></g><!--link apoint21 to Borrow_Request--><g id="link_apoint21_Borrow_Request"><path d="M400.578,514.5 C412.341,514.5 424.103,514.5 435.866,514.5 " fill="none" id="apoint21-Borrow_Request" style="stroke:#181818;stroke-width:1.0;stroke-dasharray:7.0,7.0;"/></g><!--link Item to ConditionHistory--><g id="link_Item_ConditionHistory"><path codeLine="73" d="M408.5,720.164 C408.5,738.24 408.5,761.191 408.5,780.5799 " fill="none" id="Item-ConditionHistory" style="stroke:#181818;stroke-width:1.0;"/><text fill="#000000" font-family="sans-serif" font-size="13" lengthAdjust="spacing" textLength="24" x="382.025" y="740.3947">1..1</text><text fill="#000000" font-family="sans-serif" font-size="13" lengthAdjust="spacing" textLength="23" x="383.6672" y="769.9728">1..*</text></g><!--SRC=[RLInZjim3Dtr5OIdjaY2PWsA0fUYG3DqINjT3xBCv0JOKYhAAOAW_twq9DkoBXaSYkPxv7iKZARlu8X_UoJ_oqkFTm7y-oDRtI26-8YddbBytO3q7er7yLy87C3Vh6cqrzP4fC7-50BlaFRMXBXE_vszOOfaVvMQfigVwSoigfL4C-qFJTwwMsHlUC9TU7hTuIhar5Yvcq4pps_iBjP9TtjI2eaY3UjnEo3lj3c719hcPUOEAHhSWDt2d9dsuB5B8o4ffoznW4GvgnYUoHZP3NJgLReI1ujPBavVO-lQsZRZukHvSYBHbGsVZMGVMrdhLdikPHNE1scGj8rIn_C4tLldxB-NfFSkN0poucXwWtN_85qGn-GZ5rT2sQxZI_HW_eEvyej9vRj5PKkQC4z4LccPtK7s9gSEMm2ejflDjeBrEeQVgh157gAgiRNc3DvMy0N4qWYeFeTQoxW2fhWGwSANBa2_faO9CDJ7QDnSsKeijvKDc81Z8qrWh8TKtEA0BIvstZNIPBOmnrbVaHYMPyT-KxlHV2ZB7aq5-o25M0jBNm36KIP8zbPyo0wh_Cr7s1INK8ZGA_CbBg3yEBm1]--></g></svg>