<?xml version="1.0" encoding="us-ascii" standalone="no"?><svg xmlns="http://www.w3.org/2000/svg" xmlns:xlink="http://www.w3.org/1999/xlink" contentStyleType="text/css" height="491px" preserveAspectRatio="none" style="width:739px;height:491px;background:#FFFFFF;" version="1.1" viewBox="0 0 739 491" width="739px" zoomAndPan="magnify"><defs/><g><!--class Role--><g id="elem_Role"><rect codeLine="1" fill="#F1F1F1" height="113.1875" id="Role" rx="2.5" ry="2.5" style="stroke:#181818;stroke-width:0.5;" width="100" x="465.5" y="23.5"/><ellipse cx="496.7" cy="39.5" fill="#EB937F" rx="11" ry="11" style="stroke:#181818;stroke-width:1.0;"/><path d="M495.4969,40.375 L496.95,40.375 L496.95,40.4844 C496.95,40.8906 496.9813,41.0469 497.0594,41.2031 C497.2156,41.4531 497.4969,41.6094 497.7938,41.6094 C498.0438,41.6094 498.3094,41.4688 498.4656,41.25 C498.5906,41.0938 498.6219,40.9375 498.6219,40.4844 L498.6219,38.5625 C498.6219,38.4063 498.6219,38.3594 498.6063,38.2031 C498.5438,37.7344 498.2313,37.4219 497.7781,37.4219 C497.5281,37.4219 497.2625,37.5625 497.0906,37.7813 C496.9813,37.9531 496.95,38.1094 496.95,38.5625 L496.95,38.6875 L495.4969,38.6875 L495.4969,36.2813 L499.4813,36.2813 L499.4813,37.1406 C499.4813,37.5469 499.5125,37.7188 499.5906,37.875 C499.7625,38.125 500.0438,38.2813 500.325,38.2813 C500.5906,38.2813 500.8563,38.1406 501.0281,37.9219 C501.1375,37.75 501.1688,37.6094 501.1688,37.1406 L501.1688,34.5938 L493.5438,34.5938 C493.1063,34.5938 492.9813,34.6094 492.825,34.7031 C492.575,34.8594 492.4188,35.1563 492.4188,35.4375 C492.4188,35.7188 492.5594,35.9688 492.7781,36.1406 C492.9344,36.25 493.1219,36.2813 493.5438,36.2813 L493.7938,36.2813 L493.7938,42.7969 L493.5438,42.7969 C493.1375,42.7969 492.9813,42.8125 492.825,42.9219 C492.575,43.0938 492.4188,43.3594 492.4188,43.6563 C492.4188,43.9219 492.5594,44.1719 492.7781,44.3281 C492.9188,44.4531 493.1531,44.5 493.5438,44.5 L501.5438,44.5 L501.5438,41.9219 C501.5438,41.4844 501.5125,41.3438 501.4344,41.1875 C501.2625,40.9375 500.9813,40.7813 500.7,40.7813 C500.4344,40.7813 500.1688,40.8906 499.9969,41.1406 C499.8875,41.2969 499.8563,41.4375 499.8563,41.9219 L499.8563,42.7969 L495.4969,42.7969 L495.4969,40.375 Z " fill="#000000"/><text fill="#000000" font-family="sans-serif" font-size="14" lengthAdjust="spacing" textLength="32" x="514.3" y="44.3467">Role</text><line style="stroke:#181818;stroke-width:0.5;" x1="466.5" x2="564.5" y1="55.5" y2="55.5"/><text fill="#000000" font-family="sans-serif" font-size="14" lengthAdjust="spacing" textLength="62" x="471.5" y="72.4951">membre</text><text fill="#000000" font-family="sans-serif" font-size="14" lengthAdjust="spacing" textLength="88" x="471.5" y="88.792">responsable</text><text fill="#000000" font-family="sans-serif" font-size="14" lengthAdjust="spacing" textLength="32" x="471.5" y="105.0889">pole</text><text fill="#000000" font-family="sans-serif" font-size="14" lengthAdjust="spacing" textLength="28" x="471.5" y="121.3857">bde</text><line style="stroke:#181818;stroke-width:0.5;" x1="466.5" x2="564.5" y1="128.6875" y2="128.6875"/></g><!--class State--><g id="elem_State"><rect codeLine="8" fill="#F1F1F1" height="145.7813" id="State" rx="2.5" ry="2.5" style="stroke:#181818;stroke-width:0.5;" width="96" x="600.5" y="7"/><ellipse cx="626.3" cy="23" fill="#EB937F" rx="11" ry="11" style="stroke:#181818;stroke-width:1.0;"/><path d="M625.0969,23.875 L626.55,23.875 L626.55,23.9844 C626.55,24.3906 626.5813,24.5469 626.6594,24.7031 C626.8156,24.9531 627.0969,25.1094 627.3938,25.1094 C627.6438,25.1094 627.9094,24.9688 628.0656,24.75 C628.1906,24.5938 628.2219,24.4375 628.2219,23.9844 L628.2219,22.0625 C628.2219,21.9063 628.2219,21.8594 628.2063,21.7031 C628.1438,21.2344 627.8313,20.9219 627.3781,20.9219 C627.1281,20.9219 626.8625,21.0625 626.6906,21.2813 C626.5813,21.4531 626.55,21.6094 626.55,22.0625 L626.55,22.1875 L625.0969,22.1875 L625.0969,19.7813 L629.0813,19.7813 L629.0813,20.6406 C629.0813,21.0469 629.1125,21.2188 629.1906,21.375 C629.3625,21.625 629.6438,21.7813 629.925,21.7813 C630.1906,21.7813 630.4563,21.6406 630.6281,21.4219 C630.7375,21.25 630.7688,21.1094 630.7688,20.6406 L630.7688,18.0938 L623.1438,18.0938 C622.7063,18.0938 622.5813,18.1094 622.425,18.2031 C622.175,18.3594 622.0188,18.6563 622.0188,18.9375 C622.0188,19.2188 622.1594,19.4688 622.3781,19.6406 C622.5344,19.75 622.7219,19.7813 623.1438,19.7813 L623.3938,19.7813 L623.3938,26.2969 L623.1438,26.2969 C622.7375,26.2969 622.5813,26.3125 622.425,26.4219 C622.175,26.5938 622.0188,26.8594 622.0188,27.1563 C622.0188,27.4219 622.1594,27.6719 622.3781,27.8281 C622.5188,27.9531 622.7531,28 623.1438,28 L631.1438,28 L631.1438,25.4219 C631.1438,24.9844 631.1125,24.8438 631.0344,24.6875 C630.8625,24.4375 630.5813,24.2813 630.3,24.2813 C630.0344,24.2813 629.7688,24.3906 629.5969,24.6406 C629.4875,24.7969 629.4563,24.9375 629.4563,25.4219 L629.4563,26.2969 L625.0969,26.2969 L625.0969,23.875 Z " fill="#000000"/><text fill="#000000" font-family="sans-serif" font-size="14" lengthAdjust="spacing" textLength="40" x="642.7" y="27.8467">State</text><line style="stroke:#181818;stroke-width:0.5;" x1="601.5" x2="695.5" y1="39" y2="39"/><text fill="#000000" font-family="sans-serif" font-size="14" lengthAdjust="spacing" textLength="32" x="606.5" y="55.9951">neuf</text><text fill="#000000" font-family="sans-serif" font-size="14" lengthAdjust="spacing" textLength="57" x="606.5" y="72.292">tresBon</text><text fill="#000000" font-family="sans-serif" font-size="14" lengthAdjust="spacing" textLength="28" x="606.5" y="88.5889">bon</text><text fill="#000000" font-family="sans-serif" font-size="14" lengthAdjust="spacing" textLength="49" x="606.5" y="104.8857">moyen</text><text fill="#000000" font-family="sans-serif" font-size="14" lengthAdjust="spacing" textLength="57" x="606.5" y="121.1826">mauvais</text><text fill="#000000" font-family="sans-serif" font-size="14" lengthAdjust="spacing" textLength="84" x="606.5" y="137.4795">tresMauvais</text><line style="stroke:#181818;stroke-width:0.5;" x1="601.5" x2="695.5" y1="144.7813" y2="144.7813"/></g><!--class TemporaryAccess--><g id="elem_TemporaryAccess"><rect codeLine="17" fill="#F1F1F1" height="113.1875" id="TemporaryAccess" rx="2.5" ry="2.5" style="stroke:#181818;stroke-width:0.5;" width="160" x="435.5" y="230"/><ellipse cx="450.5" cy="246" fill="#ADD1B2" rx="11" ry="11" style="stroke:#181818;stroke-width:1.0;"/><path d="M452.8438,241.6719 C451.9063,241.2344 451.3125,241.0938 450.4375,241.0938 C447.8125,241.0938 445.8125,243.1719 445.8125,245.8906 L445.8125,247.0156 C445.8125,249.5938 447.9219,251.4844 450.8125,251.4844 C452.0313,251.4844 453.1875,251.1875 453.9375,250.6406 C454.5156,250.2344 454.8438,249.7813 454.8438,249.3906 C454.8438,248.9375 454.4531,248.5469 453.9844,248.5469 C453.7656,248.5469 453.5625,248.625 453.375,248.8125 C452.9219,249.2969 452.9219,249.2969 452.7344,249.3906 C452.3125,249.6563 451.625,249.7813 450.8594,249.7813 C448.8125,249.7813 447.5156,248.6875 447.5156,246.9844 L447.5156,245.8906 C447.5156,244.1094 448.7656,242.7969 450.5,242.7969 C451.0781,242.7969 451.6875,242.9531 452.1563,243.2031 C452.6406,243.4844 452.8125,243.7031 452.9063,244.1094 C452.9688,244.5156 453,244.6406 453.1406,244.7656 C453.2813,244.9063 453.5156,245.0156 453.7344,245.0156 C454,245.0156 454.2656,244.875 454.4375,244.6563 C454.5469,244.5 454.5781,244.3125 454.5781,243.8906 L454.5781,242.4688 C454.5781,242.0313 454.5625,241.9063 454.4688,241.75 C454.3125,241.4844 454.0313,241.3438 453.7344,241.3438 C453.4375,241.3438 453.2344,241.4375 453.0156,241.75 L452.8438,241.6719 Z " fill="#000000"/><text fill="#000000" font-family="sans-serif" font-size="14" lengthAdjust="spacing" textLength="128" x="464.5" y="250.8467">TemporaryAccess</text><line style="stroke:#181818;stroke-width:0.5;" x1="436.5" x2="594.5" y1="262" y2="262"/><text fill="#000000" font-family="sans-serif" font-size="14" lengthAdjust="spacing" textLength="81" x="441.5" y="278.9951">user: string</text><text fill="#000000" font-family="sans-serif" font-size="14" lengthAdjust="spacing" textLength="82" x="441.5" y="295.292">asso: string</text><text fill="#000000" font-family="sans-serif" font-size="14" lengthAdjust="spacing" textLength="69" x="441.5" y="311.5889">role: Role</text><text fill="#000000" font-family="sans-serif" font-size="14" lengthAdjust="spacing" textLength="119" x="441.5" y="327.8857">semester: string</text><line style="stroke:#181818;stroke-width:0.5;" x1="436.5" x2="594.5" y1="335.1875" y2="335.1875"/></g><!--class Item--><g id="elem_Item"><rect codeLine="24" fill="#F1F1F1" height="80.5938" id="Item" rx="2.5" ry="2.5" style="stroke:#181818;stroke-width:0.5;" width="103" x="297" y="246"/><ellipse cx="328.65" cy="262" fill="#ADD1B2" rx="11" ry="11" style="stroke:#181818;stroke-width:1.0;"/><path d="M330.9938,257.6719 C330.0563,257.2344 329.4625,257.0938 328.5875,257.0938 C325.9625,257.0938 323.9625,259.1719 323.9625,261.8906 L323.9625,263.0156 C323.9625,265.5938 326.0719,267.4844 328.9625,267.4844 C330.1813,267.4844 331.3375,267.1875 332.0875,266.6406 C332.6656,266.2344 332.9938,265.7813 332.9938,265.3906 C332.9938,264.9375 332.6031,264.5469 332.1344,264.5469 C331.9156,264.5469 331.7125,264.625 331.525,264.8125 C331.0719,265.2969 331.0719,265.2969 330.8844,265.3906 C330.4625,265.6563 329.775,265.7813 329.0094,265.7813 C326.9625,265.7813 325.6656,264.6875 325.6656,262.9844 L325.6656,261.8906 C325.6656,260.1094 326.9156,258.7969 328.65,258.7969 C329.2281,258.7969 329.8375,258.9531 330.3063,259.2031 C330.7906,259.4844 330.9625,259.7031 331.0563,260.1094 C331.1188,260.5156 331.15,260.6406 331.2906,260.7656 C331.4313,260.9063 331.6656,261.0156 331.8844,261.0156 C332.15,261.0156 332.4156,260.875 332.5875,260.6563 C332.6969,260.5 332.7281,260.3125 332.7281,259.8906 L332.7281,258.4688 C332.7281,258.0313 332.7125,257.9063 332.6188,257.75 C332.4625,257.4844 332.1813,257.3438 331.8844,257.3438 C331.5875,257.3438 331.3844,257.4375 331.1656,257.75 L330.9938,257.6719 Z " fill="#000000"/><text fill="#000000" font-family="sans-serif" font-size="14" lengthAdjust="spacing" textLength="34" x="346.35" y="266.8467">Item</text><line style="stroke:#181818;stroke-width:0.5;" x1="298" x2="399" y1="278" y2="278"/><text fill="#000000" font-family="sans-serif" font-size="14" lengthAdjust="spacing" textLength="55" x="303" y="294.9951">id : uuid</text><text fill="#000000" font-family="sans-serif" font-size="14" lengthAdjust="spacing" textLength="91" x="303" y="311.292">state : State</text><line style="stroke:#181818;stroke-width:0.5;" x1="298" x2="399" y1="318.5938" y2="318.5938"/></g><!--class Class--><g id="elem_Class"><rect codeLine="29" fill="#F1F1F1" height="96.8906" id="Class" rx="2.5" ry="2.5" style="stroke:#181818;stroke-width:0.5;" width="149" x="28" y="238"/><ellipse cx="80.25" cy="254" fill="#ADD1B2" rx="11" ry="11" style="stroke:#181818;stroke-width:1.0;"/><path d="M82.5938,249.6719 C81.6563,249.2344 81.0625,249.0938 80.1875,249.0938 C77.5625,249.0938 75.5625,251.1719 75.5625,253.8906 L75.5625,255.0156 C75.5625,257.5938 77.6719,259.4844 80.5625,259.4844 C81.7813,259.4844 82.9375,259.1875 83.6875,258.6406 C84.2656,258.2344 84.5938,257.7813 84.5938,257.3906 C84.5938,256.9375 84.2031,256.5469 83.7344,256.5469 C83.5156,256.5469 83.3125,256.625 83.125,256.8125 C82.6719,257.2969 82.6719,257.2969 82.4844,257.3906 C82.0625,257.6563 81.375,257.7813 80.6094,257.7813 C78.5625,257.7813 77.2656,256.6875 77.2656,254.9844 L77.2656,253.8906 C77.2656,252.1094 78.5156,250.7969 80.25,250.7969 C80.8281,250.7969 81.4375,250.9531 81.9063,251.2031 C82.3906,251.4844 82.5625,251.7031 82.6563,252.1094 C82.7188,252.5156 82.75,252.6406 82.8906,252.7656 C83.0313,252.9063 83.2656,253.0156 83.4844,253.0156 C83.75,253.0156 84.0156,252.875 84.1875,252.6563 C84.2969,252.5 84.3281,252.3125 84.3281,251.8906 L84.3281,250.4688 C84.3281,250.0313 84.3125,249.9063 84.2188,249.75 C84.0625,249.4844 83.7813,249.3438 83.4844,249.3438 C83.1875,249.3438 82.9844,249.4375 82.7656,249.75 L82.5938,249.6719 Z " fill="#000000"/><text fill="#000000" font-family="sans-serif" font-size="14" lengthAdjust="spacing" textLength="36" x="100.75" y="258.8467">Class</text><line style="stroke:#181818;stroke-width:0.5;" x1="29" x2="176" y1="270" y2="270"/><text fill="#000000" font-family="sans-serif" font-size="14" lengthAdjust="spacing" textLength="84" x="34" y="286.9951">name : char</text><text fill="#000000" font-family="sans-serif" font-size="14" lengthAdjust="spacing" textLength="137" x="34" y="303.292">description : string</text><text fill="#000000" font-family="sans-serif" font-size="14" lengthAdjust="spacing" textLength="97" x="34" y="319.5889">private : bool</text><line style="stroke:#181818;stroke-width:0.5;" x1="29" x2="176" y1="326.8906" y2="326.8906"/></g><!--class Category--><g id="elem_Category"><rect codeLine="35" fill="#F1F1F1" height="64.2969" id="Category" rx="2.5" ry="2.5" style="stroke:#181818;stroke-width:0.5;" width="107" x="49" y="420"/><ellipse cx="68.05" cy="436" fill="#ADD1B2" rx="11" ry="11" style="stroke:#181818;stroke-width:1.0;"/><path d="M70.3938,431.6719 C69.4563,431.2344 68.8625,431.0938 67.9875,431.0938 C65.3625,431.0938 63.3625,433.1719 63.3625,435.8906 L63.3625,437.0156 C63.3625,439.5938 65.4719,441.4844 68.3625,441.4844 C69.5813,441.4844 70.7375,441.1875 71.4875,440.6406 C72.0656,440.2344 72.3938,439.7813 72.3938,439.3906 C72.3938,438.9375 72.0031,438.5469 71.5344,438.5469 C71.3156,438.5469 71.1125,438.625 70.925,438.8125 C70.4719,439.2969 70.4719,439.2969 70.2844,439.3906 C69.8625,439.6563 69.175,439.7813 68.4094,439.7813 C66.3625,439.7813 65.0656,438.6875 65.0656,436.9844 L65.0656,435.8906 C65.0656,434.1094 66.3156,432.7969 68.05,432.7969 C68.6281,432.7969 69.2375,432.9531 69.7063,433.2031 C70.1906,433.4844 70.3625,433.7031 70.4563,434.1094 C70.5188,434.5156 70.55,434.6406 70.6906,434.7656 C70.8313,434.9063 71.0656,435.0156 71.2844,435.0156 C71.55,435.0156 71.8156,434.875 71.9875,434.6563 C72.0969,434.5 72.1281,434.3125 72.1281,433.8906 L72.1281,432.4688 C72.1281,432.0313 72.1125,431.9063 72.0188,431.75 C71.8625,431.4844 71.5813,431.3438 71.2844,431.3438 C70.9875,431.3438 70.7844,431.4375 70.5656,431.75 L70.3938,431.6719 Z " fill="#000000"/><text fill="#000000" font-family="sans-serif" font-size="14" lengthAdjust="spacing" textLength="66" x="82.95" y="440.8467">Category</text><line style="stroke:#181818;stroke-width:0.5;" x1="50" x2="155" y1="452" y2="452"/><text fill="#000000" font-family="sans-serif" font-size="14" lengthAdjust="spacing" textLength="95" x="55" y="468.9951">name : string</text><line style="stroke:#181818;stroke-width:0.5;" x1="50" x2="155" y1="476.2969" y2="476.2969"/></g><!--class Unavailability--><g id="elem_Unavailability"><rect codeLine="40" fill="#F1F1F1" height="80.5938" id="Unavailability" rx="2.5" ry="2.5" style="stroke:#181818;stroke-width:0.5;" width="133" x="282" y="39.5"/><ellipse cx="299.7" cy="55.5" fill="#ADD1B2" rx="11" ry="11" style="stroke:#181818;stroke-width:1.0;"/><path d="M302.0438,51.1719 C301.1063,50.7344 300.5125,50.5938 299.6375,50.5938 C297.0125,50.5938 295.0125,52.6719 295.0125,55.3906 L295.0125,56.5156 C295.0125,59.0938 297.1219,60.9844 300.0125,60.9844 C301.2313,60.9844 302.3875,60.6875 303.1375,60.1406 C303.7156,59.7344 304.0438,59.2813 304.0438,58.8906 C304.0438,58.4375 303.6531,58.0469 303.1844,58.0469 C302.9656,58.0469 302.7625,58.125 302.575,58.3125 C302.1219,58.7969 302.1219,58.7969 301.9344,58.8906 C301.5125,59.1563 300.825,59.2813 300.0594,59.2813 C298.0125,59.2813 296.7156,58.1875 296.7156,56.4844 L296.7156,55.3906 C296.7156,53.6094 297.9656,52.2969 299.7,52.2969 C300.2781,52.2969 300.8875,52.4531 301.3563,52.7031 C301.8406,52.9844 302.0125,53.2031 302.1063,53.6094 C302.1688,54.0156 302.2,54.1406 302.3406,54.2656 C302.4813,54.4063 302.7156,54.5156 302.9344,54.5156 C303.2,54.5156 303.4656,54.375 303.6375,54.1563 C303.7469,54 303.7781,53.8125 303.7781,53.3906 L303.7781,51.9688 C303.7781,51.5313 303.7625,51.4063 303.6688,51.25 C303.5125,50.9844 303.2313,50.8438 302.9344,50.8438 C302.6375,50.8438 302.4344,50.9375 302.2156,51.25 L302.0438,51.1719 Z " fill="#000000"/><text fill="#000000" font-family="sans-serif" font-size="14" lengthAdjust="spacing" textLength="95" x="314.3" y="60.3467">Unavailability</text><line style="stroke:#181818;stroke-width:0.5;" x1="283" x2="414" y1="71.5" y2="71.5"/><text fill="#000000" font-family="sans-serif" font-size="14" lengthAdjust="spacing" textLength="121" x="288" y="88.4951">start_date : date</text><text fill="#000000" font-family="sans-serif" font-size="14" lengthAdjust="spacing" textLength="113" x="288" y="104.792">end_date : date</text><line style="stroke:#181818;stroke-width:0.5;" x1="283" x2="414" y1="112.0938" y2="112.0938"/></g><!--class Borrow_Request--><g id="elem_Borrow_Request"><rect codeLine="45" fill="#F1F1F1" height="145.7813" id="Borrow_Request" rx="2.5" ry="2.5" style="stroke:#181818;stroke-width:0.5;" width="191" x="7" y="7"/><ellipse cx="40.9" cy="23" fill="#ADD1B2" rx="11" ry="11" style="stroke:#181818;stroke-width:1.0;"/><path d="M43.2438,18.6719 C42.3063,18.2344 41.7125,18.0938 40.8375,18.0938 C38.2125,18.0938 36.2125,20.1719 36.2125,22.8906 L36.2125,24.0156 C36.2125,26.5938 38.3219,28.4844 41.2125,28.4844 C42.4313,28.4844 43.5875,28.1875 44.3375,27.6406 C44.9156,27.2344 45.2438,26.7813 45.2438,26.3906 C45.2438,25.9375 44.8531,25.5469 44.3844,25.5469 C44.1656,25.5469 43.9625,25.625 43.775,25.8125 C43.3219,26.2969 43.3219,26.2969 43.1344,26.3906 C42.7125,26.6563 42.025,26.7813 41.2594,26.7813 C39.2125,26.7813 37.9156,25.6875 37.9156,23.9844 L37.9156,22.8906 C37.9156,21.1094 39.1656,19.7969 40.9,19.7969 C41.4781,19.7969 42.0875,19.9531 42.5563,20.2031 C43.0406,20.4844 43.2125,20.7031 43.3063,21.1094 C43.3688,21.5156 43.4,21.6406 43.5406,21.7656 C43.6813,21.9063 43.9156,22.0156 44.1344,22.0156 C44.4,22.0156 44.6656,21.875 44.8375,21.6563 C44.9469,21.5 44.9781,21.3125 44.9781,20.8906 L44.9781,19.4688 C44.9781,19.0313 44.9625,18.9063 44.8688,18.75 C44.7125,18.4844 44.4313,18.3438 44.1344,18.3438 C43.8375,18.3438 43.6344,18.4375 43.4156,18.75 L43.2438,18.6719 Z " fill="#000000"/><text fill="#000000" font-family="sans-serif" font-size="14" lengthAdjust="spacing" textLength="117" x="59.1" y="27.8467">Borrow_Request</text><line style="stroke:#181818;stroke-width:0.5;" x1="8" x2="197" y1="39" y2="39"/><text fill="#000000" font-family="sans-serif" font-size="14" lengthAdjust="spacing" textLength="148" x="13" y="55.9951">organisation : string,</text><text fill="#000000" font-family="sans-serif" font-size="14" lengthAdjust="spacing" textLength="179" x="13" y="72.292">request_date : datetime,</text><text fill="#000000" font-family="sans-serif" font-size="14" lengthAdjust="spacing" textLength="167" x="13" y="88.5889">debut_date : datetime,</text><text fill="#000000" font-family="sans-serif" font-size="14" lengthAdjust="spacing" textLength="151" x="13" y="104.8857">end_date : datetime,</text><text fill="#000000" font-family="sans-serif" font-size="14" lengthAdjust="spacing" textLength="97" x="13" y="121.1826">state : string,</text><text fill="#000000" font-family="sans-serif" font-size="14" lengthAdjust="spacing" textLength="125" x="13" y="137.4795">comment : string</text><line style="stroke:#181818;stroke-width:0.5;" x1="8" x2="197" y1="144.7813" y2="144.7813"/></g><!--class inventory--><g id="elem_inventory"><rect codeLine="54" fill="#F1F1F1" height="96.8906" id="inventory" rx="2.5" ry="2.5" style="stroke:#181818;stroke-width:0.5;" width="101" x="631" y="238"/><ellipse cx="646" cy="254" fill="#ADD1B2" rx="11" ry="11" style="stroke:#181818;stroke-width:1.0;"/><path d="M648.3438,249.6719 C647.4063,249.2344 646.8125,249.0938 645.9375,249.0938 C643.3125,249.0938 641.3125,251.1719 641.3125,253.8906 L641.3125,255.0156 C641.3125,257.5938 643.4219,259.4844 646.3125,259.4844 C647.5313,259.4844 648.6875,259.1875 649.4375,258.6406 C650.0156,258.2344 650.3438,257.7813 650.3438,257.3906 C650.3438,256.9375 649.9531,256.5469 649.4844,256.5469 C649.2656,256.5469 649.0625,256.625 648.875,256.8125 C648.4219,257.2969 648.4219,257.2969 648.2344,257.3906 C647.8125,257.6563 647.125,257.7813 646.3594,257.7813 C644.3125,257.7813 643.0156,256.6875 643.0156,254.9844 L643.0156,253.8906 C643.0156,252.1094 644.2656,250.7969 646,250.7969 C646.5781,250.7969 647.1875,250.9531 647.6563,251.2031 C648.1406,251.4844 648.3125,251.7031 648.4063,252.1094 C648.4688,252.5156 648.5,252.6406 648.6406,252.7656 C648.7813,252.9063 649.0156,253.0156 649.2344,253.0156 C649.5,253.0156 649.7656,252.875 649.9375,252.6563 C650.0469,252.5 650.0781,252.3125 650.0781,251.8906 L650.0781,250.4688 C650.0781,250.0313 650.0625,249.9063 649.9688,249.75 C649.8125,249.4844 649.5313,249.3438 649.2344,249.3438 C648.9375,249.3438 648.7344,249.4375 648.5156,249.75 L648.3438,249.6719 Z " fill="#000000"/><text fill="#000000" font-family="sans-serif" font-size="14" lengthAdjust="spacing" textLength="69" x="660" y="258.8467">inventory</text><line style="stroke:#181818;stroke-width:0.5;" x1="632" x2="731" y1="270" y2="270"/><text fill="#000000" font-family="sans-serif" font-size="14" lengthAdjust="spacing" textLength="81" x="637" y="286.9951">user: string</text><text fill="#000000" font-family="sans-serif" font-size="14" lengthAdjust="spacing" textLength="82" x="637" y="303.292">asso: string</text><text fill="#000000" font-family="sans-serif" font-size="14" lengthAdjust="spacing" textLength="75" x="637" y="319.5889">date: date</text><line style="stroke:#181818;stroke-width:0.5;" x1="632" x2="731" y1="326.8906" y2="326.8906"/></g><!--reverse link Class to Item--><g id="link_Class_Item"><path codeLine="60" d="M195.31,286.5 C233.9,286.5 262.008,286.5 296.645,286.5 " fill="none" id="Class-backto-Item" style="stroke:#181818;stroke-width:1.0;"/><polygon fill="none" points="177.31,286.5,195.31,292.5,195.31,280.5,177.31,286.5" style="stroke:#181818;stroke-width:1.0;"/><polygon fill="#000000" points="194.5,275.0664,203.5451,278.0053,203.5451,272.1275,194.5,275.0664" style="stroke:#000000;stroke-width:1.0;"/><text fill="#000000" font-family="sans-serif" font-size="13" lengthAdjust="spacing" textLength="70" x="208.5" y="279.5669">"belong to"</text><text fill="#000000" font-family="sans-serif" font-size="13" lengthAdjust="spacing" textLength="24" x="185.0415" y="299.2456">1..1</text><text fill="#000000" font-family="sans-serif" font-size="13" lengthAdjust="spacing" textLength="23" x="265.9236" y="299.5138">1..*</text></g><!--link Borrow_Request to Class--><g id="link_Borrow_Request_Class"><path codeLine="61" d="M102.5,153.099 C102.5,181.158 102.5,212.543 102.5,237.711 " fill="none" id="Borrow_Request-Class" style="stroke:#181818;stroke-width:1.0;"/><polygon fill="#000000" points="107.5,196.5664,110.4389,187.5213,104.5611,187.5213,107.5,196.5664" style="stroke:#000000;stroke-width:1.0;"/><text fill="#000000" font-family="sans-serif" font-size="13" lengthAdjust="spacing" textLength="99" x="116.5" y="196.0669">"correspond to"</text><text fill="#000000" font-family="sans-serif" font-size="13" lengthAdjust="spacing" textLength="24" x="77.3563" y="172.8647">1..1</text><text fill="#000000" font-family="sans-serif" font-size="13" lengthAdjust="spacing" textLength="23" x="77.8828" y="226.8793">0..*</text></g><!--link Class to Category--><g id="link_Class_Category"><path codeLine="62" d="M102.5,335.23 C102.5,362.565 102.5,396.0752 102.5,419.996 " fill="none" id="Class-Category" style="stroke:#181818;stroke-width:1.0;"/><polygon fill="#000000" points="107.5,376.5664,104.5611,385.6115,110.4389,385.6115,107.5,376.5664" style="stroke:#000000;stroke-width:1.0;"/><text fill="#000000" font-family="sans-serif" font-size="13" lengthAdjust="spacing" textLength="70" x="116.5" y="386.0669">"belong to"</text><text fill="#000000" font-family="sans-serif" font-size="13" lengthAdjust="spacing" textLength="23" x="77.9547" y="354.8691">1..*</text><text fill="#000000" font-family="sans-serif" font-size="13" lengthAdjust="spacing" textLength="23" x="77.1281" y="408.8983">0..*</text></g><!--link Unavailability to Item--><g id="link_Unavailability_Item"><path codeLine="63" d="M348.5,120.915 C348.5,156.949 348.5,209.683 348.5,245.686 " fill="none" id="Unavailability-Item" style="stroke:#181818;stroke-width:1.0;"/><polygon fill="#000000" points="353.5,186.5664,350.5611,195.6115,356.4389,195.6115,353.5,186.5664" style="stroke:#000000;stroke-width:1.0;"/><text fill="#000000" font-family="sans-serif" font-size="13" lengthAdjust="spacing" textLength="106" x="362.5" y="196.0669">"is not available"</text><text fill="#000000" font-family="sans-serif" font-size="13" lengthAdjust="spacing" textLength="24" x="322.7375" y="140.1324">1..1</text><text fill="#000000" font-family="sans-serif" font-size="13" lengthAdjust="spacing" textLength="23" x="323.5953" y="234.7955">0..*</text></g><!--SRC=[ZL8zJyCm4DtzAwoCLOleMY4aoiJ0Kc2kdEGebcnVE3j5LU2_Sx6TD6aPo93SntlllWAkjNA71ZeX-R5WIu9e4lW6dLUbINw3sIXh43z2GCzy2IfageFsFHg1cLjq2Pk_5a-GBTKUbVOZyZdxh5WPvRry1TiWAJezL1LudyHR3xIHFf1sXnXW9Cu2nErjuYJHzM31Xmbfr7yAO3kXQxcHRQjhuViHs8cZd66F_RiJJja-MNqe4ZNuYdGJD3evwZQaZqcWH3GJFWSFIATH8kFFY3UdU7AZIcrqO1mtGc5V9x7-mokkP_v8tI8HVkrtyDdob9r0EYYdlPgrjXIKybEDe2qiUPAo_IDyKIy5X_qCeXLQ2ox8wyrgT-H4dFb_D-kBd4UB6vV5-kPcNSYxxrKq5qKy65ShIZ3e3Z8WPwMOhs2WhPXr6rb9ZMaL0-ElN4Vg_QJEOaR81xii9UPtkguqzAUzT1Xa1XjWxYy0]--></g></svg>