<?xml version="1.0" encoding="us-ascii" standalone="no"?><svg xmlns="http://www.w3.org/2000/svg" xmlns:xlink="http://www.w3.org/1999/xlink" contentStyleType="text/css" height="588px" preserveAspectRatio="none" style="width:870px;height:588px;background:#FFFFFF;" version="1.1" viewBox="0 0 870 588" width="870px" zoomAndPan="magnify"><defs/><g><!--class RequestState--><g id="elem_RequestState"><rect codeLine="1" fill="#F1F1F1" height="96.8906" id="RequestState" rx="2.5" ry="2.5" style="stroke:#181818;stroke-width:0.5;" width="131" x="576.5" y="31.5"/><ellipse cx="591.5" cy="47.5" fill="#EB937F" rx="11" ry="11" style="stroke:#181818;stroke-width:1.0;"/><path d="M590.2969,48.375 L591.75,48.375 L591.75,48.4844 C591.75,48.8906 591.7813,49.0469 591.8594,49.2031 C592.0156,49.4531 592.2969,49.6094 592.5938,49.6094 C592.8438,49.6094 593.1094,49.4688 593.2656,49.25 C593.3906,49.0938 593.4219,48.9375 593.4219,48.4844 L593.4219,46.5625 C593.4219,46.4063 593.4219,46.3594 593.4063,46.2031 C593.3438,45.7344 593.0313,45.4219 592.5781,45.4219 C592.3281,45.4219 592.0625,45.5625 591.8906,45.7813 C591.7813,45.9531 591.75,46.1094 591.75,46.5625 L591.75,46.6875 L590.2969,46.6875 L590.2969,44.2813 L594.2813,44.2813 L594.2813,45.1406 C594.2813,45.5469 594.3125,45.7188 594.3906,45.875 C594.5625,46.125 594.8438,46.2813 595.125,46.2813 C595.3906,46.2813 595.6563,46.1406 595.8281,45.9219 C595.9375,45.75 595.9688,45.6094 595.9688,45.1406 L595.9688,42.5938 L588.3438,42.5938 C587.9063,42.5938 587.7813,42.6094 587.625,42.7031 C587.375,42.8594 587.2188,43.1563 587.2188,43.4375 C587.2188,43.7188 587.3594,43.9688 587.5781,44.1406 C587.7344,44.25 587.9219,44.2813 588.3438,44.2813 L588.5938,44.2813 L588.5938,50.7969 L588.3438,50.7969 C587.9375,50.7969 587.7813,50.8125 587.625,50.9219 C587.375,51.0938 587.2188,51.3594 587.2188,51.6563 C587.2188,51.9219 587.3594,52.1719 587.5781,52.3281 C587.7188,52.4531 587.9531,52.5 588.3438,52.5 L596.3438,52.5 L596.3438,49.9219 C596.3438,49.4844 596.3125,49.3438 596.2344,49.1875 C596.0625,48.9375 595.7813,48.7813 595.5,48.7813 C595.2344,48.7813 594.9688,48.8906 594.7969,49.1406 C594.6875,49.2969 594.6563,49.4375 594.6563,49.9219 L594.6563,50.7969 L590.2969,50.7969 L590.2969,48.375 Z " fill="#000000"/><text fill="#000000" font-family="sans-serif" font-size="14" lengthAdjust="spacing" textLength="99" x="605.5" y="52.3467">RequestState</text><line style="stroke:#181818;stroke-width:0.5;" x1="577.5" x2="706.5" y1="63.5" y2="63.5"/><text fill="#000000" font-family="sans-serif" font-size="14" lengthAdjust="spacing" textLength="53" x="582.5" y="80.4951">Validee</text><text fill="#000000" font-family="sans-serif" font-size="14" lengthAdjust="spacing" textLength="58" x="582.5" y="96.792">Refusee</text><text fill="#000000" font-family="sans-serif" font-size="14" lengthAdjust="spacing" textLength="78" x="582.5" y="113.0889">En attente</text><line style="stroke:#181818;stroke-width:0.5;" x1="577.5" x2="706.5" y1="120.3906" y2="120.3906"/></g><!--class ObjectState--><g id="elem_ObjectState"><rect codeLine="7" fill="#F1F1F1" height="145.7813" id="ObjectState" rx="2.5" ry="2.5" style="stroke:#181818;stroke-width:0.5;" width="121" x="742.5" y="7"/><ellipse cx="757.5" cy="23" fill="#EB937F" rx="11" ry="11" style="stroke:#181818;stroke-width:1.0;"/><path d="M756.2969,23.875 L757.75,23.875 L757.75,23.9844 C757.75,24.3906 757.7813,24.5469 757.8594,24.7031 C758.0156,24.9531 758.2969,25.1094 758.5938,25.1094 C758.8438,25.1094 759.1094,24.9688 759.2656,24.75 C759.3906,24.5938 759.4219,24.4375 759.4219,23.9844 L759.4219,22.0625 C759.4219,21.9063 759.4219,21.8594 759.4063,21.7031 C759.3438,21.2344 759.0313,20.9219 758.5781,20.9219 C758.3281,20.9219 758.0625,21.0625 757.8906,21.2813 C757.7813,21.4531 757.75,21.6094 757.75,22.0625 L757.75,22.1875 L756.2969,22.1875 L756.2969,19.7813 L760.2813,19.7813 L760.2813,20.6406 C760.2813,21.0469 760.3125,21.2188 760.3906,21.375 C760.5625,21.625 760.8438,21.7813 761.125,21.7813 C761.3906,21.7813 761.6563,21.6406 761.8281,21.4219 C761.9375,21.25 761.9688,21.1094 761.9688,20.6406 L761.9688,18.0938 L754.3438,18.0938 C753.9063,18.0938 753.7813,18.1094 753.625,18.2031 C753.375,18.3594 753.2188,18.6563 753.2188,18.9375 C753.2188,19.2188 753.3594,19.4688 753.5781,19.6406 C753.7344,19.75 753.9219,19.7813 754.3438,19.7813 L754.5938,19.7813 L754.5938,26.2969 L754.3438,26.2969 C753.9375,26.2969 753.7813,26.3125 753.625,26.4219 C753.375,26.5938 753.2188,26.8594 753.2188,27.1563 C753.2188,27.4219 753.3594,27.6719 753.5781,27.8281 C753.7188,27.9531 753.9531,28 754.3438,28 L762.3438,28 L762.3438,25.4219 C762.3438,24.9844 762.3125,24.8438 762.2344,24.6875 C762.0625,24.4375 761.7813,24.2813 761.5,24.2813 C761.2344,24.2813 760.9688,24.3906 760.7969,24.6406 C760.6875,24.7969 760.6563,24.9375 760.6563,25.4219 L760.6563,26.2969 L756.2969,26.2969 L756.2969,23.875 Z " fill="#000000"/><text fill="#000000" font-family="sans-serif" font-size="14" lengthAdjust="spacing" textLength="89" x="771.5" y="27.8467">ObjectState</text><line style="stroke:#181818;stroke-width:0.5;" x1="743.5" x2="862.5" y1="39" y2="39"/><text fill="#000000" font-family="sans-serif" font-size="14" lengthAdjust="spacing" textLength="32" x="748.5" y="55.9951">neuf</text><text fill="#000000" font-family="sans-serif" font-size="14" lengthAdjust="spacing" textLength="57" x="748.5" y="72.292">tresBon</text><text fill="#000000" font-family="sans-serif" font-size="14" lengthAdjust="spacing" textLength="28" x="748.5" y="88.5889">bon</text><text fill="#000000" font-family="sans-serif" font-size="14" lengthAdjust="spacing" textLength="49" x="748.5" y="104.8857">moyen</text><text fill="#000000" font-family="sans-serif" font-size="14" lengthAdjust="spacing" textLength="57" x="748.5" y="121.1826">mauvais</text><text fill="#000000" font-family="sans-serif" font-size="14" lengthAdjust="spacing" textLength="84" x="748.5" y="137.4795">tresMauvais</text><line style="stroke:#181818;stroke-width:0.5;" x1="743.5" x2="862.5" y1="144.7813" y2="144.7813"/></g><!--class TemporaryAccess--><g id="elem_TemporaryAccess"><rect codeLine="16" fill="#F1F1F1" height="96.8906" id="TemporaryAccess" rx="2.5" ry="2.5" style="stroke:#181818;stroke-width:0.5;" width="162" x="7" y="31.5"/><ellipse cx="22.9" cy="47.5" fill="#ADD1B2" rx="11" ry="11" style="stroke:#181818;stroke-width:1.0;"/><path d="M25.2438,43.1719 C24.3063,42.7344 23.7125,42.5938 22.8375,42.5938 C20.2125,42.5938 18.2125,44.6719 18.2125,47.3906 L18.2125,48.5156 C18.2125,51.0938 20.3219,52.9844 23.2125,52.9844 C24.4313,52.9844 25.5875,52.6875 26.3375,52.1406 C26.9156,51.7344 27.2438,51.2813 27.2438,50.8906 C27.2438,50.4375 26.8531,50.0469 26.3844,50.0469 C26.1656,50.0469 25.9625,50.125 25.775,50.3125 C25.3219,50.7969 25.3219,50.7969 25.1344,50.8906 C24.7125,51.1563 24.025,51.2813 23.2594,51.2813 C21.2125,51.2813 19.9156,50.1875 19.9156,48.4844 L19.9156,47.3906 C19.9156,45.6094 21.1656,44.2969 22.9,44.2969 C23.4781,44.2969 24.0875,44.4531 24.5563,44.7031 C25.0406,44.9844 25.2125,45.2031 25.3063,45.6094 C25.3688,46.0156 25.4,46.1406 25.5406,46.2656 C25.6813,46.4063 25.9156,46.5156 26.1344,46.5156 C26.4,46.5156 26.6656,46.375 26.8375,46.1563 C26.9469,46 26.9781,45.8125 26.9781,45.3906 L26.9781,43.9688 C26.9781,43.5313 26.9625,43.4063 26.8688,43.25 C26.7125,42.9844 26.4313,42.8438 26.1344,42.8438 C25.8375,42.8438 25.6344,42.9375 25.4156,43.25 L25.2438,43.1719 Z " fill="#000000"/><text fill="#000000" font-family="sans-serif" font-size="14" lengthAdjust="spacing" textLength="128" x="37.1" y="52.3467">TemporaryAccess</text><line style="stroke:#181818;stroke-width:0.5;" x1="8" x2="168" y1="63.5" y2="63.5"/><text fill="#000000" font-family="sans-serif" font-size="14" lengthAdjust="spacing" textLength="81" x="13" y="80.4951">user: string</text><text fill="#000000" font-family="sans-serif" font-size="14" lengthAdjust="spacing" textLength="109" x="13" y="96.792">end_date: date</text><text fill="#000000" font-family="sans-serif" font-size="14" lengthAdjust="spacing" textLength="150" x="13" y="113.0889">state : RequestState</text><line style="stroke:#181818;stroke-width:0.5;" x1="8" x2="168" y1="120.3906" y2="120.3906"/></g><!--class Item--><g id="elem_Item"><rect codeLine="22" fill="#F1F1F1" height="80.5938" id="Item" rx="2.5" ry="2.5" style="stroke:#181818;stroke-width:0.5;" width="145" x="384.5" y="501"/><ellipse cx="435.75" cy="517" fill="#ADD1B2" rx="11" ry="11" style="stroke:#181818;stroke-width:1.0;"/><path d="M438.0938,512.6719 C437.1563,512.2344 436.5625,512.0938 435.6875,512.0938 C433.0625,512.0938 431.0625,514.1719 431.0625,516.8906 L431.0625,518.0156 C431.0625,520.5938 433.1719,522.4844 436.0625,522.4844 C437.2813,522.4844 438.4375,522.1875 439.1875,521.6406 C439.7656,521.2344 440.0938,520.7813 440.0938,520.3906 C440.0938,519.9375 439.7031,519.5469 439.2344,519.5469 C439.0156,519.5469 438.8125,519.625 438.625,519.8125 C438.1719,520.2969 438.1719,520.2969 437.9844,520.3906 C437.5625,520.6563 436.875,520.7813 436.1094,520.7813 C434.0625,520.7813 432.7656,519.6875 432.7656,517.9844 L432.7656,516.8906 C432.7656,515.1094 434.0156,513.7969 435.75,513.7969 C436.3281,513.7969 436.9375,513.9531 437.4063,514.2031 C437.8906,514.4844 438.0625,514.7031 438.1563,515.1094 C438.2188,515.5156 438.25,515.6406 438.3906,515.7656 C438.5313,515.9063 438.7656,516.0156 438.9844,516.0156 C439.25,516.0156 439.5156,515.875 439.6875,515.6563 C439.7969,515.5 439.8281,515.3125 439.8281,514.8906 L439.8281,513.4688 C439.8281,513.0313 439.8125,512.9063 439.7188,512.75 C439.5625,512.4844 439.2813,512.3438 438.9844,512.3438 C438.6875,512.3438 438.4844,512.4375 438.2656,512.75 L438.0938,512.6719 Z " fill="#000000"/><text fill="#000000" font-family="sans-serif" font-size="14" lengthAdjust="spacing" textLength="34" x="456.25" y="521.8467">Item</text><line style="stroke:#181818;stroke-width:0.5;" x1="385.5" x2="528.5" y1="533" y2="533"/><text fill="#000000" font-family="sans-serif" font-size="14" lengthAdjust="spacing" textLength="91" x="390.5" y="549.9951">state : State</text><text fill="#000000" font-family="sans-serif" font-size="14" lengthAdjust="spacing" textLength="133" x="390.5" y="566.292">description: string</text><line style="stroke:#181818;stroke-width:0.5;" x1="385.5" x2="528.5" y1="573.5938" y2="573.5938"/></g><!--class Class--><g id="elem_Class"><rect codeLine="27" fill="#F1F1F1" height="113.1875" id="Class" rx="2.5" ry="2.5" style="stroke:#181818;stroke-width:0.5;" width="149" x="658.5" y="303"/><ellipse cx="710.75" cy="319" fill="#ADD1B2" rx="11" ry="11" style="stroke:#181818;stroke-width:1.0;"/><path d="M713.0938,314.6719 C712.1563,314.2344 711.5625,314.0938 710.6875,314.0938 C708.0625,314.0938 706.0625,316.1719 706.0625,318.8906 L706.0625,320.0156 C706.0625,322.5938 708.1719,324.4844 711.0625,324.4844 C712.2813,324.4844 713.4375,324.1875 714.1875,323.6406 C714.7656,323.2344 715.0938,322.7813 715.0938,322.3906 C715.0938,321.9375 714.7031,321.5469 714.2344,321.5469 C714.0156,321.5469 713.8125,321.625 713.625,321.8125 C713.1719,322.2969 713.1719,322.2969 712.9844,322.3906 C712.5625,322.6563 711.875,322.7813 711.1094,322.7813 C709.0625,322.7813 707.7656,321.6875 707.7656,319.9844 L707.7656,318.8906 C707.7656,317.1094 709.0156,315.7969 710.75,315.7969 C711.3281,315.7969 711.9375,315.9531 712.4063,316.2031 C712.8906,316.4844 713.0625,316.7031 713.1563,317.1094 C713.2188,317.5156 713.25,317.6406 713.3906,317.7656 C713.5313,317.9063 713.7656,318.0156 713.9844,318.0156 C714.25,318.0156 714.5156,317.875 714.6875,317.6563 C714.7969,317.5 714.8281,317.3125 714.8281,316.8906 L714.8281,315.4688 C714.8281,315.0313 714.8125,314.9063 714.7188,314.75 C714.5625,314.4844 714.2813,314.3438 713.9844,314.3438 C713.6875,314.3438 713.4844,314.4375 713.2656,314.75 L713.0938,314.6719 Z " fill="#000000"/><text fill="#000000" font-family="sans-serif" font-size="14" lengthAdjust="spacing" textLength="36" x="731.25" y="323.8467">Class</text><line style="stroke:#181818;stroke-width:0.5;" x1="659.5" x2="806.5" y1="335" y2="335"/><text fill="#000000" font-family="sans-serif" font-size="14" lengthAdjust="spacing" textLength="84" x="664.5" y="351.9951">name : char</text><text fill="#000000" font-family="sans-serif" font-size="14" lengthAdjust="spacing" textLength="137" x="664.5" y="368.292">description : string</text><text fill="#000000" font-family="sans-serif" font-size="14" lengthAdjust="spacing" textLength="135" x="664.5" y="384.5889">association : string</text><text fill="#000000" font-family="sans-serif" font-size="14" lengthAdjust="spacing" textLength="97" x="664.5" y="400.8857">private : bool</text><line style="stroke:#181818;stroke-width:0.5;" x1="659.5" x2="806.5" y1="408.1875" y2="408.1875"/></g><!--class Category--><g id="elem_Category"><rect codeLine="34" fill="#F1F1F1" height="64.2969" id="Category" rx="2.5" ry="2.5" style="stroke:#181818;stroke-width:0.5;" width="107" x="734.5" y="509.5"/><ellipse cx="753.55" cy="525.5" fill="#ADD1B2" rx="11" ry="11" style="stroke:#181818;stroke-width:1.0;"/><path d="M755.8938,521.1719 C754.9563,520.7344 754.3625,520.5938 753.4875,520.5938 C750.8625,520.5938 748.8625,522.6719 748.8625,525.3906 L748.8625,526.5156 C748.8625,529.0938 750.9719,530.9844 753.8625,530.9844 C755.0813,530.9844 756.2375,530.6875 756.9875,530.1406 C757.5656,529.7344 757.8938,529.2813 757.8938,528.8906 C757.8938,528.4375 757.5031,528.0469 757.0344,528.0469 C756.8156,528.0469 756.6125,528.125 756.425,528.3125 C755.9719,528.7969 755.9719,528.7969 755.7844,528.8906 C755.3625,529.1563 754.675,529.2813 753.9094,529.2813 C751.8625,529.2813 750.5656,528.1875 750.5656,526.4844 L750.5656,525.3906 C750.5656,523.6094 751.8156,522.2969 753.55,522.2969 C754.1281,522.2969 754.7375,522.4531 755.2063,522.7031 C755.6906,522.9844 755.8625,523.2031 755.9563,523.6094 C756.0188,524.0156 756.05,524.1406 756.1906,524.2656 C756.3313,524.4063 756.5656,524.5156 756.7844,524.5156 C757.05,524.5156 757.3156,524.375 757.4875,524.1563 C757.5969,524 757.6281,523.8125 757.6281,523.3906 L757.6281,521.9688 C757.6281,521.5313 757.6125,521.4063 757.5188,521.25 C757.3625,520.9844 757.0813,520.8438 756.7844,520.8438 C756.4875,520.8438 756.2844,520.9375 756.0656,521.25 L755.8938,521.1719 Z " fill="#000000"/><text fill="#000000" font-family="sans-serif" font-size="14" lengthAdjust="spacing" textLength="66" x="768.45" y="530.3467">Category</text><line style="stroke:#181818;stroke-width:0.5;" x1="735.5" x2="840.5" y1="541.5" y2="541.5"/><text fill="#000000" font-family="sans-serif" font-size="14" lengthAdjust="spacing" textLength="95" x="740.5" y="558.4951">name : string</text><line style="stroke:#181818;stroke-width:0.5;" x1="735.5" x2="840.5" y1="565.7969" y2="565.7969"/></g><!--class Unavailability--><g id="elem_Unavailability"><rect codeLine="38" fill="#F1F1F1" height="80.5938" id="Unavailability" rx="2.5" ry="2.5" style="stroke:#181818;stroke-width:0.5;" width="133" x="466.5" y="319"/><ellipse cx="484.2" cy="335" fill="#ADD1B2" rx="11" ry="11" style="stroke:#181818;stroke-width:1.0;"/><path d="M486.5438,330.6719 C485.6063,330.2344 485.0125,330.0938 484.1375,330.0938 C481.5125,330.0938 479.5125,332.1719 479.5125,334.8906 L479.5125,336.0156 C479.5125,338.5938 481.6219,340.4844 484.5125,340.4844 C485.7313,340.4844 486.8875,340.1875 487.6375,339.6406 C488.2156,339.2344 488.5438,338.7813 488.5438,338.3906 C488.5438,337.9375 488.1531,337.5469 487.6844,337.5469 C487.4656,337.5469 487.2625,337.625 487.075,337.8125 C486.6219,338.2969 486.6219,338.2969 486.4344,338.3906 C486.0125,338.6563 485.325,338.7813 484.5594,338.7813 C482.5125,338.7813 481.2156,337.6875 481.2156,335.9844 L481.2156,334.8906 C481.2156,333.1094 482.4656,331.7969 484.2,331.7969 C484.7781,331.7969 485.3875,331.9531 485.8563,332.2031 C486.3406,332.4844 486.5125,332.7031 486.6063,333.1094 C486.6688,333.5156 486.7,333.6406 486.8406,333.7656 C486.9813,333.9063 487.2156,334.0156 487.4344,334.0156 C487.7,334.0156 487.9656,333.875 488.1375,333.6563 C488.2469,333.5 488.2781,333.3125 488.2781,332.8906 L488.2781,331.4688 C488.2781,331.0313 488.2625,330.9063 488.1688,330.75 C488.0125,330.4844 487.7313,330.3438 487.4344,330.3438 C487.1375,330.3438 486.9344,330.4375 486.7156,330.75 L486.5438,330.6719 Z " fill="#000000"/><text fill="#000000" font-family="sans-serif" font-size="14" lengthAdjust="spacing" textLength="95" x="498.8" y="339.8467">Unavailability</text><line style="stroke:#181818;stroke-width:0.5;" x1="467.5" x2="598.5" y1="351" y2="351"/><text fill="#000000" font-family="sans-serif" font-size="14" lengthAdjust="spacing" textLength="121" x="472.5" y="367.9951">start_date : date</text><text fill="#000000" font-family="sans-serif" font-size="14" lengthAdjust="spacing" textLength="113" x="472.5" y="384.292">end_date : date</text><line style="stroke:#181818;stroke-width:0.5;" x1="467.5" x2="598.5" y1="391.5938" y2="391.5938"/></g><!--class Borrow_Request--><g id="elem_Borrow_Request"><rect codeLine="43" fill="#F1F1F1" height="129.4844" id="Borrow_Request" rx="2.5" ry="2.5" style="stroke:#181818;stroke-width:0.5;" width="191" x="168.5" y="295"/><ellipse cx="202.4" cy="311" fill="#ADD1B2" rx="11" ry="11" style="stroke:#181818;stroke-width:1.0;"/><path d="M204.7438,306.6719 C203.8063,306.2344 203.2125,306.0938 202.3375,306.0938 C199.7125,306.0938 197.7125,308.1719 197.7125,310.8906 L197.7125,312.0156 C197.7125,314.5938 199.8219,316.4844 202.7125,316.4844 C203.9313,316.4844 205.0875,316.1875 205.8375,315.6406 C206.4156,315.2344 206.7438,314.7813 206.7438,314.3906 C206.7438,313.9375 206.3531,313.5469 205.8844,313.5469 C205.6656,313.5469 205.4625,313.625 205.275,313.8125 C204.8219,314.2969 204.8219,314.2969 204.6344,314.3906 C204.2125,314.6563 203.525,314.7813 202.7594,314.7813 C200.7125,314.7813 199.4156,313.6875 199.4156,311.9844 L199.4156,310.8906 C199.4156,309.1094 200.6656,307.7969 202.4,307.7969 C202.9781,307.7969 203.5875,307.9531 204.0563,308.2031 C204.5406,308.4844 204.7125,308.7031 204.8063,309.1094 C204.8688,309.5156 204.9,309.6406 205.0406,309.7656 C205.1813,309.9063 205.4156,310.0156 205.6344,310.0156 C205.9,310.0156 206.1656,309.875 206.3375,309.6563 C206.4469,309.5 206.4781,309.3125 206.4781,308.8906 L206.4781,307.4688 C206.4781,307.0313 206.4625,306.9063 206.3688,306.75 C206.2125,306.4844 205.9313,306.3438 205.6344,306.3438 C205.3375,306.3438 205.1344,306.4375 204.9156,306.75 L204.7438,306.6719 Z " fill="#000000"/><text fill="#000000" font-family="sans-serif" font-size="14" lengthAdjust="spacing" textLength="117" x="220.6" y="315.8467">Borrow_Request</text><line style="stroke:#181818;stroke-width:0.5;" x1="169.5" x2="358.5" y1="327" y2="327"/><text fill="#000000" font-family="sans-serif" font-size="14" lengthAdjust="spacing" textLength="179" x="174.5" y="343.9951">request_date : datetime,</text><text fill="#000000" font-family="sans-serif" font-size="14" lengthAdjust="spacing" textLength="167" x="174.5" y="360.292">debut_date : datetime,</text><text fill="#000000" font-family="sans-serif" font-size="14" lengthAdjust="spacing" textLength="151" x="174.5" y="376.5889">end_date : datetime,</text><text fill="#000000" font-family="sans-serif" font-size="14" lengthAdjust="spacing" textLength="154" x="174.5" y="392.8857">state : RequestState,</text><text fill="#000000" font-family="sans-serif" font-size="14" lengthAdjust="spacing" textLength="125" x="174.5" y="409.1826">comment : string</text><line style="stroke:#181818;stroke-width:0.5;" x1="169.5" x2="358.5" y1="416.4844" y2="416.4844"/></g><!--class Inventory--><g id="elem_Inventory"><rect codeLine="51" fill="#F1F1F1" height="96.8906" id="Inventory" rx="2.5" ry="2.5" style="stroke:#181818;stroke-width:0.5;" width="101" x="440.5" y="31.5"/><ellipse cx="455.5" cy="47.5" fill="#ADD1B2" rx="11" ry="11" style="stroke:#181818;stroke-width:1.0;"/><path d="M457.8438,43.1719 C456.9063,42.7344 456.3125,42.5938 455.4375,42.5938 C452.8125,42.5938 450.8125,44.6719 450.8125,47.3906 L450.8125,48.5156 C450.8125,51.0938 452.9219,52.9844 455.8125,52.9844 C457.0313,52.9844 458.1875,52.6875 458.9375,52.1406 C459.5156,51.7344 459.8438,51.2813 459.8438,50.8906 C459.8438,50.4375 459.4531,50.0469 458.9844,50.0469 C458.7656,50.0469 458.5625,50.125 458.375,50.3125 C457.9219,50.7969 457.9219,50.7969 457.7344,50.8906 C457.3125,51.1563 456.625,51.2813 455.8594,51.2813 C453.8125,51.2813 452.5156,50.1875 452.5156,48.4844 L452.5156,47.3906 C452.5156,45.6094 453.7656,44.2969 455.5,44.2969 C456.0781,44.2969 456.6875,44.4531 457.1563,44.7031 C457.6406,44.9844 457.8125,45.2031 457.9063,45.6094 C457.9688,46.0156 458,46.1406 458.1406,46.2656 C458.2813,46.4063 458.5156,46.5156 458.7344,46.5156 C459,46.5156 459.2656,46.375 459.4375,46.1563 C459.5469,46 459.5781,45.8125 459.5781,45.3906 L459.5781,43.9688 C459.5781,43.5313 459.5625,43.4063 459.4688,43.25 C459.3125,42.9844 459.0313,42.8438 458.7344,42.8438 C458.4375,42.8438 458.2344,42.9375 458.0156,43.25 L457.8438,43.1719 Z " fill="#000000"/><text fill="#000000" font-family="sans-serif" font-size="14" lengthAdjust="spacing" textLength="69" x="469.5" y="52.3467">Inventory</text><line style="stroke:#181818;stroke-width:0.5;" x1="441.5" x2="540.5" y1="63.5" y2="63.5"/><text fill="#000000" font-family="sans-serif" font-size="14" lengthAdjust="spacing" textLength="81" x="446.5" y="80.4951">user: string</text><text fill="#000000" font-family="sans-serif" font-size="14" lengthAdjust="spacing" textLength="82" x="446.5" y="96.792">asso: string</text><text fill="#000000" font-family="sans-serif" font-size="14" lengthAdjust="spacing" textLength="75" x="446.5" y="113.0889">date: date</text><line style="stroke:#181818;stroke-width:0.5;" x1="441.5" x2="540.5" y1="120.3906" y2="120.3906"/></g><!--class Association--><g id="elem_Association"><rect codeLine="57" fill="#F1F1F1" height="64.2969" id="Association" rx="2.5" ry="2.5" style="stroke:#181818;stroke-width:0.5;" width="114" x="253" y="48"/><ellipse cx="268" cy="64" fill="#ADD1B2" rx="11" ry="11" style="stroke:#181818;stroke-width:1.0;"/><path d="M270.3438,59.6719 C269.4063,59.2344 268.8125,59.0938 267.9375,59.0938 C265.3125,59.0938 263.3125,61.1719 263.3125,63.8906 L263.3125,65.0156 C263.3125,67.5938 265.4219,69.4844 268.3125,69.4844 C269.5313,69.4844 270.6875,69.1875 271.4375,68.6406 C272.0156,68.2344 272.3438,67.7813 272.3438,67.3906 C272.3438,66.9375 271.9531,66.5469 271.4844,66.5469 C271.2656,66.5469 271.0625,66.625 270.875,66.8125 C270.4219,67.2969 270.4219,67.2969 270.2344,67.3906 C269.8125,67.6563 269.125,67.7813 268.3594,67.7813 C266.3125,67.7813 265.0156,66.6875 265.0156,64.9844 L265.0156,63.8906 C265.0156,62.1094 266.2656,60.7969 268,60.7969 C268.5781,60.7969 269.1875,60.9531 269.6563,61.2031 C270.1406,61.4844 270.3125,61.7031 270.4063,62.1094 C270.4688,62.5156 270.5,62.6406 270.6406,62.7656 C270.7813,62.9063 271.0156,63.0156 271.2344,63.0156 C271.5,63.0156 271.7656,62.875 271.9375,62.6563 C272.0469,62.5 272.0781,62.3125 272.0781,61.8906 L272.0781,60.4688 C272.0781,60.0313 272.0625,59.9063 271.9688,59.75 C271.8125,59.4844 271.5313,59.3438 271.2344,59.3438 C270.9375,59.3438 270.7344,59.4375 270.5156,59.75 L270.3438,59.6719 Z " fill="#000000"/><text fill="#000000" font-family="sans-serif" font-size="14" lengthAdjust="spacing" textLength="82" x="282" y="68.8467">Association</text><line style="stroke:#181818;stroke-width:0.5;" x1="254" x2="366" y1="80" y2="80"/><text fill="#000000" font-family="sans-serif" font-size="14" lengthAdjust="spacing" textLength="91" x="259" y="96.9951">name: string</text><line style="stroke:#181818;stroke-width:0.5;" x1="254" x2="366" y1="104.2969" y2="104.2969"/></g><ellipse cx="310" cy="216" fill="#181818" rx="2" ry="2" style="stroke:#181818;stroke-width:1.0;"/><!--link Class to Item--><g id="link_Class_Item"><path codeLine="61" d="M684.76,416.098 C666.198,435.22 643.928,455.657 621,471 C593.116,489.6599 559.408,504.9869 529.823,516.4543 " fill="none" id="Class-Item" style="stroke:#181818;stroke-width:1.0;"/><polygon fill="#000000" points="650.1966,459.8482,641.0072,462.2988,644.2026,467.2322,650.1966,459.8482" style="stroke:#000000;stroke-width:1.0;"/><text fill="#000000" font-family="sans-serif" font-size="13" lengthAdjust="spacing" textLength="70" x="655" y="467.0669">"belong to"</text><text fill="#000000" font-family="sans-serif" font-size="13" lengthAdjust="spacing" textLength="24" x="653.0418" y="436.3739">1..1</text><text fill="#000000" font-family="sans-serif" font-size="13" lengthAdjust="spacing" textLength="23" x="537.5965" y="510.5457">1..*</text></g><!--link Borrow_Request to Item--><g id="link_Borrow_Request_Item"><path codeLine="62" d="M257.44,424.187 C258.71,440.772 262.984,457.7 273,471 C299.191,505.779 344.934,523.1544 384.258,531.8349 " fill="none" id="Borrow_Request-Item" style="stroke:#181818;stroke-width:1.0;"/><polygon fill="#000000" points="281.8119,465.8021,276.818,457.7081,273.0142,462.1893,281.8119,465.8021" style="stroke:#000000;stroke-width:1.0;"/><text fill="#000000" font-family="sans-serif" font-size="13" lengthAdjust="spacing" textLength="99" x="287" y="467.0669">"correspond to"</text><text fill="#000000" font-family="sans-serif" font-size="13" lengthAdjust="spacing" textLength="24" x="231.294" y="444.5802">1..1</text><text fill="#000000" font-family="sans-serif" font-size="13" lengthAdjust="spacing" textLength="23" x="353.4919" y="527.3442">0..*</text></g><!--link Class to Category--><g id="link_Class_Category"><path codeLine="63" d="M750.101,416.466 C759.466,447.117 770.719,483.9446 778.518,509.4689 " fill="none" id="Class-Category" style="stroke:#181818;stroke-width:1.0;"/><polygon fill="#000000" points="768.5389,457.7846,768.3714,467.2937,773.9927,465.5761,768.5389,457.7846" style="stroke:#000000;stroke-width:1.0;"/><text fill="#000000" font-family="sans-serif" font-size="13" lengthAdjust="spacing" textLength="70" x="779" y="467.0669">"belong to"</text><text fill="#000000" font-family="sans-serif" font-size="13" lengthAdjust="spacing" textLength="23" x="727.7836" y="436.3864">1..*</text><text fill="#000000" font-family="sans-serif" font-size="13" lengthAdjust="spacing" textLength="23" x="751.1905" y="498.3656">0..*</text></g><!--link Unavailability to Item--><g id="link_Unavailability_Item"><path codeLine="64" d="M516.321,400.002 C503.694,429.91 486.421,470.818 473.771,500.7798 " fill="none" id="Unavailability-Item" style="stroke:#181818;stroke-width:1.0;"/><polygon fill="#000000" points="498.9448,457.9601,492.7191,465.1498,498.1341,467.4361,498.9448,457.9601" style="stroke:#000000;stroke-width:1.0;"/><text fill="#000000" font-family="sans-serif" font-size="13" lengthAdjust="spacing" textLength="106" x="506" y="467.0669">"is not available"</text><text fill="#000000" font-family="sans-serif" font-size="13" lengthAdjust="spacing" textLength="24" x="487.7503" y="419.7622">1..1</text><text fill="#000000" font-family="sans-serif" font-size="13" lengthAdjust="spacing" textLength="23" x="451.644" y="489.9049">0..*</text></g><!--link TemporaryAccess to Association--><g id="link_TemporaryAccess_Association"><path codeLine="65" d="M169.089,80 C196.835,80 227.274,80 252.739,80 " fill="none" id="TemporaryAccess-Association" style="stroke:#181818;stroke-width:1.0;"/><polygon fill="#000000" points="186.5,68.5664,195.5451,71.5053,195.5451,65.6275,186.5,68.5664" style="stroke:#000000;stroke-width:1.0;"/><text fill="#000000" font-family="sans-serif" font-size="13" lengthAdjust="spacing" textLength="34" x="200.5" y="73.0669">gives</text><text fill="#000000" font-family="sans-serif" font-size="13" lengthAdjust="spacing" textLength="23" x="177.0459" y="92.7218">0..*</text><text fill="#000000" font-family="sans-serif" font-size="13" lengthAdjust="spacing" textLength="24" x="221.1636" y="92.8782">1..1</text></g><!--link Association to Inventory--><g id="link_Association_Inventory"><path codeLine="66" d="M367.27,80 C390.676,80 417.527,80 440.22,80 " fill="none" id="Association-Inventory" style="stroke:#181818;stroke-width:1.0;"/><polygon fill="#000000" points="384.25,68.5664,393.2951,71.5053,393.2951,65.6275,384.25,68.5664" style="stroke:#000000;stroke-width:1.0;"/><text fill="#000000" font-family="sans-serif" font-size="13" lengthAdjust="spacing" textLength="24" x="398.25" y="73.0669">vvv</text><text fill="#000000" font-family="sans-serif" font-size="13" lengthAdjust="spacing" textLength="24" x="374.8464" y="92.8782">1..1</text><text fill="#000000" font-family="sans-serif" font-size="13" lengthAdjust="spacing" textLength="23" x="409.6296" y="92.9957">0..*</text></g><!--link Association to Item--><g id="link_Association_Item"><path codeLine="67" d="M324.321,112.331 C333.179,132.322 344.452,158.913 353,183 C393.319,296.609 430.089,434.424 447.081,500.8797 " fill="none" id="Association-Item" style="stroke:#181818;stroke-width:1.0;"/><polygon fill="#000000" points="386.5063,261.3341,386.5837,251.8239,380.979,253.5947,386.5063,261.3341" style="stroke:#000000;stroke-width:1.0;"/><text fill="#000000" font-family="sans-serif" font-size="13" lengthAdjust="spacing" textLength="67" x="394" y="261.0669">Belongs to</text><text fill="#000000" font-family="sans-serif" font-size="13" lengthAdjust="spacing" textLength="20" x="305.2122" y="132.5961">1.1</text><text fill="#000000" font-family="sans-serif" font-size="13" lengthAdjust="spacing" textLength="23" x="420.5335" y="490.0213">0..*</text></g><!--link Association to apoint20--><g id="link_Association_apoint20"><path d="M299.043,112.079 C294.866,149.809 297.988,209.114 308.409,214.591 " fill="none" id="Association-apoint20" style="stroke:#181818;stroke-width:1.0;"/><text fill="#000000" font-family="sans-serif" font-size="13" lengthAdjust="spacing" textLength="23" x="271.4112" y="132.2921">0..*</text></g><!--link apoint20 to Association--><g id="link_apoint20_Association"><path d="M311.684,214.591 C322.719,209.114 326.025,149.809 321.602,112.079 " fill="none" id="apoint20-Association" style="stroke:#181818;stroke-width:1.0;"/><text fill="#000000" font-family="sans-serif" font-size="13" lengthAdjust="spacing" textLength="23" x="326.3668" y="132.2921">0..*</text></g><!--link apoint20 to Borrow_Request--><g id="link_apoint20_Borrow_Request"><path d="M309.483,218.589 C306.947,226.392 295.497,261.613 284.721,294.761 " fill="none" id="apoint20-Borrow_Request" style="stroke:#181818;stroke-width:1.0;stroke-dasharray:7.0,7.0;"/></g><!--SRC=[TLDDJyCm3BtdLrWz0Teck4u8QKCSE20algueJSq8QfEHf4NJn7_7ITCkwSOEdUkyvsS_fwZQ1fxmkqNhdXrtk6T0lpTUomenn4_uqTeOtodWpg5oo7uPGqz-BBzGf5o5xKS8d46xrYh4PVnlz0vZnDkEIpiY7-8xrHKrjnPUiDbgmyrk9GHQsnUdJimIh3DIRK82LVLUaVOI_3EahEy5bjbOXxBt3fjzXki1FbEX5KPkdTHg51c9j_uPH-ID9ufFRgOyoBeZXXQI7nziZUnwzLBhEX6Xv4QRNQOpxUHLSRAgvgMifICe3M9SS06Y3OChm_j8NMjZzCzxj6RFJ1-aO2SRdB4Ao_P4UbAuJvuoVCQ4RXgwAIVwlrST7OnJ7ktKkvObaWMFHLO7QmzcfLfXNm35rM9nLS1yteSNHRW1r5LHOgtL1fmku1fOxan2AoupbY0SsgrMLM3UH9rO-u0VDZbLOlds_XUI5fHs4C4rUkxacnWeyw7AAhjl6zcX9LQQ7UH6jM4NXE-wpZinWPzg3jPX8aiZaGCPuNBYGtB8pfANMNfo3el9rVm3]--></g></svg>