<?xml version="1.0" encoding="us-ascii" standalone="no"?><svg xmlns="http://www.w3.org/2000/svg" xmlns:xlink="http://www.w3.org/1999/xlink" contentStyleType="text/css" height="806px" preserveAspectRatio="none" style="width:1075px;height:806px;background:#FFFFFF;" version="1.1" viewBox="0 0 1075 806" width="1075px" zoomAndPan="magnify"><defs/><g><!--class RequestState--><g id="elem_RequestState"><rect codeLine="1" fill="#F1F1F1" height="96.8906" id="RequestState" rx="2.5" ry="2.5" style="stroke:#181818;stroke-width:0.5;" width="131" x="800" y="31.5"/><ellipse cx="815" cy="47.5" fill="#EB937F" rx="11" ry="11" style="stroke:#181818;stroke-width:1.0;"/><path d="M813.7969,48.375 L815.25,48.375 L815.25,48.4844 C815.25,48.8906 815.2813,49.0469 815.3594,49.2031 C815.5156,49.4531 815.7969,49.6094 816.0938,49.6094 C816.3438,49.6094 816.6094,49.4688 816.7656,49.25 C816.8906,49.0938 816.9219,48.9375 816.9219,48.4844 L816.9219,46.5625 C816.9219,46.4063 816.9219,46.3594 816.9063,46.2031 C816.8438,45.7344 816.5313,45.4219 816.0781,45.4219 C815.8281,45.4219 815.5625,45.5625 815.3906,45.7813 C815.2813,45.9531 815.25,46.1094 815.25,46.5625 L815.25,46.6875 L813.7969,46.6875 L813.7969,44.2813 L817.7813,44.2813 L817.7813,45.1406 C817.7813,45.5469 817.8125,45.7188 817.8906,45.875 C818.0625,46.125 818.3438,46.2813 818.625,46.2813 C818.8906,46.2813 819.1563,46.1406 819.3281,45.9219 C819.4375,45.75 819.4688,45.6094 819.4688,45.1406 L819.4688,42.5938 L811.8438,42.5938 C811.4063,42.5938 811.2813,42.6094 811.125,42.7031 C810.875,42.8594 810.7188,43.1563 810.7188,43.4375 C810.7188,43.7188 810.8594,43.9688 811.0781,44.1406 C811.2344,44.25 811.4219,44.2813 811.8438,44.2813 L812.0938,44.2813 L812.0938,50.7969 L811.8438,50.7969 C811.4375,50.7969 811.2813,50.8125 811.125,50.9219 C810.875,51.0938 810.7188,51.3594 810.7188,51.6563 C810.7188,51.9219 810.8594,52.1719 811.0781,52.3281 C811.2188,52.4531 811.4531,52.5 811.8438,52.5 L819.8438,52.5 L819.8438,49.9219 C819.8438,49.4844 819.8125,49.3438 819.7344,49.1875 C819.5625,48.9375 819.2813,48.7813 819,48.7813 C818.7344,48.7813 818.4688,48.8906 818.2969,49.1406 C818.1875,49.2969 818.1563,49.4375 818.1563,49.9219 L818.1563,50.7969 L813.7969,50.7969 L813.7969,48.375 Z " fill="#000000"/><text fill="#000000" font-family="sans-serif" font-size="14" lengthAdjust="spacing" textLength="99" x="829" y="52.3467">RequestState</text><line style="stroke:#181818;stroke-width:0.5;" x1="801" x2="930" y1="63.5" y2="63.5"/><text fill="#000000" font-family="sans-serif" font-size="14" lengthAdjust="spacing" textLength="53" x="806" y="80.4951">Validee</text><text fill="#000000" font-family="sans-serif" font-size="14" lengthAdjust="spacing" textLength="58" x="806" y="96.792">Refusee</text><text fill="#000000" font-family="sans-serif" font-size="14" lengthAdjust="spacing" textLength="78" x="806" y="113.0889">En attente</text><line style="stroke:#181818;stroke-width:0.5;" x1="801" x2="930" y1="120.3906" y2="120.3906"/></g><!--class Condition--><g id="elem_Condition"><rect codeLine="7" fill="#F1F1F1" height="145.7813" id="Condition" rx="2.5" ry="2.5" style="stroke:#181818;stroke-width:0.5;" width="102" x="966.5" y="7"/><ellipse cx="981.5" cy="23" fill="#EB937F" rx="11" ry="11" style="stroke:#181818;stroke-width:1.0;"/><path d="M980.2969,23.875 L981.75,23.875 L981.75,23.9844 C981.75,24.3906 981.7813,24.5469 981.8594,24.7031 C982.0156,24.9531 982.2969,25.1094 982.5938,25.1094 C982.8438,25.1094 983.1094,24.9688 983.2656,24.75 C983.3906,24.5938 983.4219,24.4375 983.4219,23.9844 L983.4219,22.0625 C983.4219,21.9063 983.4219,21.8594 983.4063,21.7031 C983.3438,21.2344 983.0313,20.9219 982.5781,20.9219 C982.3281,20.9219 982.0625,21.0625 981.8906,21.2813 C981.7813,21.4531 981.75,21.6094 981.75,22.0625 L981.75,22.1875 L980.2969,22.1875 L980.2969,19.7813 L984.2813,19.7813 L984.2813,20.6406 C984.2813,21.0469 984.3125,21.2188 984.3906,21.375 C984.5625,21.625 984.8438,21.7813 985.125,21.7813 C985.3906,21.7813 985.6563,21.6406 985.8281,21.4219 C985.9375,21.25 985.9688,21.1094 985.9688,20.6406 L985.9688,18.0938 L978.3438,18.0938 C977.9063,18.0938 977.7813,18.1094 977.625,18.2031 C977.375,18.3594 977.2188,18.6563 977.2188,18.9375 C977.2188,19.2188 977.3594,19.4688 977.5781,19.6406 C977.7344,19.75 977.9219,19.7813 978.3438,19.7813 L978.5938,19.7813 L978.5938,26.2969 L978.3438,26.2969 C977.9375,26.2969 977.7813,26.3125 977.625,26.4219 C977.375,26.5938 977.2188,26.8594 977.2188,27.1563 C977.2188,27.4219 977.3594,27.6719 977.5781,27.8281 C977.7188,27.9531 977.9531,28 978.3438,28 L986.3438,28 L986.3438,25.4219 C986.3438,24.9844 986.3125,24.8438 986.2344,24.6875 C986.0625,24.4375 985.7813,24.2813 985.5,24.2813 C985.2344,24.2813 984.9688,24.3906 984.7969,24.6406 C984.6875,24.7969 984.6563,24.9375 984.6563,25.4219 L984.6563,26.2969 L980.2969,26.2969 L980.2969,23.875 Z " fill="#000000"/><text fill="#000000" font-family="sans-serif" font-size="14" lengthAdjust="spacing" textLength="70" x="995.5" y="27.8467">Condition</text><line style="stroke:#181818;stroke-width:0.5;" x1="967.5" x2="1067.5" y1="39" y2="39"/><text fill="#000000" font-family="sans-serif" font-size="14" lengthAdjust="spacing" textLength="32" x="972.5" y="55.9951">neuf</text><text fill="#000000" font-family="sans-serif" font-size="14" lengthAdjust="spacing" textLength="57" x="972.5" y="72.292">tresBon</text><text fill="#000000" font-family="sans-serif" font-size="14" lengthAdjust="spacing" textLength="28" x="972.5" y="88.5889">bon</text><text fill="#000000" font-family="sans-serif" font-size="14" lengthAdjust="spacing" textLength="49" x="972.5" y="104.8857">moyen</text><text fill="#000000" font-family="sans-serif" font-size="14" lengthAdjust="spacing" textLength="57" x="972.5" y="121.1826">mauvais</text><text fill="#000000" font-family="sans-serif" font-size="14" lengthAdjust="spacing" textLength="84" x="972.5" y="137.4795">tresMauvais</text><line style="stroke:#181818;stroke-width:0.5;" x1="967.5" x2="1067.5" y1="144.7813" y2="144.7813"/></g><!--class ConditionHistory--><g id="elem_ConditionHistory"><rect codeLine="16" fill="#F1F1F1" height="80.5938" id="ConditionHistory" rx="2.5" ry="2.5" style="stroke:#181818;stroke-width:0.5;" width="159" x="289" y="719"/><ellipse cx="306.7" cy="735" fill="#ADD1B2" rx="11" ry="11" style="stroke:#181818;stroke-width:1.0;"/><path d="M309.0438,730.6719 C308.1063,730.2344 307.5125,730.0938 306.6375,730.0938 C304.0125,730.0938 302.0125,732.1719 302.0125,734.8906 L302.0125,736.0156 C302.0125,738.5938 304.1219,740.4844 307.0125,740.4844 C308.2313,740.4844 309.3875,740.1875 310.1375,739.6406 C310.7156,739.2344 311.0438,738.7813 311.0438,738.3906 C311.0438,737.9375 310.6531,737.5469 310.1844,737.5469 C309.9656,737.5469 309.7625,737.625 309.575,737.8125 C309.1219,738.2969 309.1219,738.2969 308.9344,738.3906 C308.5125,738.6563 307.825,738.7813 307.0594,738.7813 C305.0125,738.7813 303.7156,737.6875 303.7156,735.9844 L303.7156,734.8906 C303.7156,733.1094 304.9656,731.7969 306.7,731.7969 C307.2781,731.7969 307.8875,731.9531 308.3563,732.2031 C308.8406,732.4844 309.0125,732.7031 309.1063,733.1094 C309.1688,733.5156 309.2,733.6406 309.3406,733.7656 C309.4813,733.9063 309.7156,734.0156 309.9344,734.0156 C310.2,734.0156 310.4656,733.875 310.6375,733.6563 C310.7469,733.5 310.7781,733.3125 310.7781,732.8906 L310.7781,731.4688 C310.7781,731.0313 310.7625,730.9063 310.6688,730.75 C310.5125,730.4844 310.2313,730.3438 309.9344,730.3438 C309.6375,730.3438 309.4344,730.4375 309.2156,730.75 L309.0438,730.6719 Z " fill="#000000"/><text fill="#000000" font-family="sans-serif" font-size="14" lengthAdjust="spacing" textLength="121" x="321.3" y="739.8467">ConditionHistory</text><line style="stroke:#181818;stroke-width:0.5;" x1="290" x2="447" y1="751" y2="751"/><text fill="#000000" font-family="sans-serif" font-size="14" lengthAdjust="spacing" textLength="113" x="295" y="767.9951">date: datetime,</text><text fill="#000000" font-family="sans-serif" font-size="14" lengthAdjust="spacing" textLength="147" x="295" y="784.292">condition: Condition</text><line style="stroke:#181818;stroke-width:0.5;" x1="290" x2="447" y1="791.5938" y2="791.5938"/></g><!--class TemporaryAccess--><g id="elem_TemporaryAccess"><rect codeLine="21" fill="#F1F1F1" height="96.8906" id="TemporaryAccess" rx="2.5" ry="2.5" style="stroke:#181818;stroke-width:0.5;" width="162" x="221.5" y="31.5"/><ellipse cx="237.4" cy="47.5" fill="#ADD1B2" rx="11" ry="11" style="stroke:#181818;stroke-width:1.0;"/><path d="M239.7438,43.1719 C238.8063,42.7344 238.2125,42.5938 237.3375,42.5938 C234.7125,42.5938 232.7125,44.6719 232.7125,47.3906 L232.7125,48.5156 C232.7125,51.0938 234.8219,52.9844 237.7125,52.9844 C238.9313,52.9844 240.0875,52.6875 240.8375,52.1406 C241.4156,51.7344 241.7438,51.2813 241.7438,50.8906 C241.7438,50.4375 241.3531,50.0469 240.8844,50.0469 C240.6656,50.0469 240.4625,50.125 240.275,50.3125 C239.8219,50.7969 239.8219,50.7969 239.6344,50.8906 C239.2125,51.1563 238.525,51.2813 237.7594,51.2813 C235.7125,51.2813 234.4156,50.1875 234.4156,48.4844 L234.4156,47.3906 C234.4156,45.6094 235.6656,44.2969 237.4,44.2969 C237.9781,44.2969 238.5875,44.4531 239.0563,44.7031 C239.5406,44.9844 239.7125,45.2031 239.8063,45.6094 C239.8688,46.0156 239.9,46.1406 240.0406,46.2656 C240.1813,46.4063 240.4156,46.5156 240.6344,46.5156 C240.9,46.5156 241.1656,46.375 241.3375,46.1563 C241.4469,46 241.4781,45.8125 241.4781,45.3906 L241.4781,43.9688 C241.4781,43.5313 241.4625,43.4063 241.3688,43.25 C241.2125,42.9844 240.9313,42.8438 240.6344,42.8438 C240.3375,42.8438 240.1344,42.9375 239.9156,43.25 L239.7438,43.1719 Z " fill="#000000"/><text fill="#000000" font-family="sans-serif" font-size="14" lengthAdjust="spacing" textLength="128" x="251.6" y="52.3467">TemporaryAccess</text><line style="stroke:#181818;stroke-width:0.5;" x1="222.5" x2="382.5" y1="63.5" y2="63.5"/><text fill="#000000" font-family="sans-serif" font-size="14" lengthAdjust="spacing" textLength="81" x="227.5" y="80.4951">user: string</text><text fill="#000000" font-family="sans-serif" font-size="14" lengthAdjust="spacing" textLength="109" x="227.5" y="96.792">end_date: date</text><text fill="#000000" font-family="sans-serif" font-size="14" lengthAdjust="spacing" textLength="150" x="227.5" y="113.0889">state : RequestState</text><line style="stroke:#181818;stroke-width:0.5;" x1="222.5" x2="382.5" y1="120.3906" y2="120.3906"/></g><!--class Item--><g id="elem_Item"><rect codeLine="27" fill="#F1F1F1" height="96.8906" id="Item" rx="2.5" ry="2.5" style="stroke:#181818;stroke-width:0.5;" width="145" x="296" y="545"/><ellipse cx="347.25" cy="561" fill="#ADD1B2" rx="11" ry="11" style="stroke:#181818;stroke-width:1.0;"/><path d="M349.5938,556.6719 C348.6563,556.2344 348.0625,556.0938 347.1875,556.0938 C344.5625,556.0938 342.5625,558.1719 342.5625,560.8906 L342.5625,562.0156 C342.5625,564.5938 344.6719,566.4844 347.5625,566.4844 C348.7813,566.4844 349.9375,566.1875 350.6875,565.6406 C351.2656,565.2344 351.5938,564.7813 351.5938,564.3906 C351.5938,563.9375 351.2031,563.5469 350.7344,563.5469 C350.5156,563.5469 350.3125,563.625 350.125,563.8125 C349.6719,564.2969 349.6719,564.2969 349.4844,564.3906 C349.0625,564.6563 348.375,564.7813 347.6094,564.7813 C345.5625,564.7813 344.2656,563.6875 344.2656,561.9844 L344.2656,560.8906 C344.2656,559.1094 345.5156,557.7969 347.25,557.7969 C347.8281,557.7969 348.4375,557.9531 348.9063,558.2031 C349.3906,558.4844 349.5625,558.7031 349.6563,559.1094 C349.7188,559.5156 349.75,559.6406 349.8906,559.7656 C350.0313,559.9063 350.2656,560.0156 350.4844,560.0156 C350.75,560.0156 351.0156,559.875 351.1875,559.6563 C351.2969,559.5 351.3281,559.3125 351.3281,558.8906 L351.3281,557.4688 C351.3281,557.0313 351.3125,556.9063 351.2188,556.75 C351.0625,556.4844 350.7813,556.3438 350.4844,556.3438 C350.1875,556.3438 349.9844,556.4375 349.7656,556.75 L349.5938,556.6719 Z " fill="#000000"/><text fill="#000000" font-family="sans-serif" font-size="14" lengthAdjust="spacing" textLength="34" x="367.75" y="565.8467">Item</text><line style="stroke:#181818;stroke-width:0.5;" x1="297" x2="440" y1="577" y2="577"/><text fill="#000000" font-family="sans-serif" font-size="14" lengthAdjust="spacing" textLength="93" x="302" y="593.9951">quantity : int</text><text fill="#000000" font-family="sans-serif" font-size="14" lengthAdjust="spacing" textLength="126" x="302" y="610.292">mono-item : bool</text><text fill="#000000" font-family="sans-serif" font-size="14" lengthAdjust="spacing" textLength="133" x="302" y="626.5889">description: string</text><line style="stroke:#181818;stroke-width:0.5;" x1="297" x2="440" y1="633.8906" y2="633.8906"/></g><!--class Class--><g id="elem_Class"><rect codeLine="33" fill="#F1F1F1" height="96.8906" id="Class" rx="2.5" ry="2.5" style="stroke:#181818;stroke-width:0.5;" width="149" x="195" y="246"/><ellipse cx="247.25" cy="262" fill="#ADD1B2" rx="11" ry="11" style="stroke:#181818;stroke-width:1.0;"/><path d="M249.5938,257.6719 C248.6563,257.2344 248.0625,257.0938 247.1875,257.0938 C244.5625,257.0938 242.5625,259.1719 242.5625,261.8906 L242.5625,263.0156 C242.5625,265.5938 244.6719,267.4844 247.5625,267.4844 C248.7813,267.4844 249.9375,267.1875 250.6875,266.6406 C251.2656,266.2344 251.5938,265.7813 251.5938,265.3906 C251.5938,264.9375 251.2031,264.5469 250.7344,264.5469 C250.5156,264.5469 250.3125,264.625 250.125,264.8125 C249.6719,265.2969 249.6719,265.2969 249.4844,265.3906 C249.0625,265.6563 248.375,265.7813 247.6094,265.7813 C245.5625,265.7813 244.2656,264.6875 244.2656,262.9844 L244.2656,261.8906 C244.2656,260.1094 245.5156,258.7969 247.25,258.7969 C247.8281,258.7969 248.4375,258.9531 248.9063,259.2031 C249.3906,259.4844 249.5625,259.7031 249.6563,260.1094 C249.7188,260.5156 249.75,260.6406 249.8906,260.7656 C250.0313,260.9063 250.2656,261.0156 250.4844,261.0156 C250.75,261.0156 251.0156,260.875 251.1875,260.6563 C251.2969,260.5 251.3281,260.3125 251.3281,259.8906 L251.3281,258.4688 C251.3281,258.0313 251.3125,257.9063 251.2188,257.75 C251.0625,257.4844 250.7813,257.3438 250.4844,257.3438 C250.1875,257.3438 249.9844,257.4375 249.7656,257.75 L249.5938,257.6719 Z " fill="#000000"/><text fill="#000000" font-family="sans-serif" font-size="14" lengthAdjust="spacing" textLength="36" x="267.75" y="266.8467">Class</text><line style="stroke:#181818;stroke-width:0.5;" x1="196" x2="343" y1="278" y2="278"/><text fill="#000000" font-family="sans-serif" font-size="14" lengthAdjust="spacing" textLength="84" x="201" y="294.9951">name : char</text><text fill="#000000" font-family="sans-serif" font-size="14" lengthAdjust="spacing" textLength="137" x="201" y="311.292">description : string</text><text fill="#000000" font-family="sans-serif" font-size="14" lengthAdjust="spacing" textLength="97" x="201" y="327.5889">private : bool</text><line style="stroke:#181818;stroke-width:0.5;" x1="196" x2="343" y1="334.8906" y2="334.8906"/></g><!--class Category--><g id="elem_Category"><rect codeLine="39" fill="#F1F1F1" height="64.2969" id="Category" rx="2.5" ry="2.5" style="stroke:#181818;stroke-width:0.5;" width="107" x="464" y="262.5"/><ellipse cx="483.05" cy="278.5" fill="#ADD1B2" rx="11" ry="11" style="stroke:#181818;stroke-width:1.0;"/><path d="M485.3938,274.1719 C484.4563,273.7344 483.8625,273.5938 482.9875,273.5938 C480.3625,273.5938 478.3625,275.6719 478.3625,278.3906 L478.3625,279.5156 C478.3625,282.0938 480.4719,283.9844 483.3625,283.9844 C484.5813,283.9844 485.7375,283.6875 486.4875,283.1406 C487.0656,282.7344 487.3938,282.2813 487.3938,281.8906 C487.3938,281.4375 487.0031,281.0469 486.5344,281.0469 C486.3156,281.0469 486.1125,281.125 485.925,281.3125 C485.4719,281.7969 485.4719,281.7969 485.2844,281.8906 C484.8625,282.1563 484.175,282.2813 483.4094,282.2813 C481.3625,282.2813 480.0656,281.1875 480.0656,279.4844 L480.0656,278.3906 C480.0656,276.6094 481.3156,275.2969 483.05,275.2969 C483.6281,275.2969 484.2375,275.4531 484.7063,275.7031 C485.1906,275.9844 485.3625,276.2031 485.4563,276.6094 C485.5188,277.0156 485.55,277.1406 485.6906,277.2656 C485.8313,277.4063 486.0656,277.5156 486.2844,277.5156 C486.55,277.5156 486.8156,277.375 486.9875,277.1563 C487.0969,277 487.1281,276.8125 487.1281,276.3906 L487.1281,274.9688 C487.1281,274.5313 487.1125,274.4063 487.0188,274.25 C486.8625,273.9844 486.5813,273.8438 486.2844,273.8438 C485.9875,273.8438 485.7844,273.9375 485.5656,274.25 L485.3938,274.1719 Z " fill="#000000"/><text fill="#000000" font-family="sans-serif" font-size="14" lengthAdjust="spacing" textLength="66" x="497.95" y="283.3467">Category</text><line style="stroke:#181818;stroke-width:0.5;" x1="465" x2="570" y1="294.5" y2="294.5"/><text fill="#000000" font-family="sans-serif" font-size="14" lengthAdjust="spacing" textLength="95" x="470" y="311.4951">name : string</text><line style="stroke:#181818;stroke-width:0.5;" x1="465" x2="570" y1="318.7969" y2="318.7969"/></g><!--class Unavailability--><g id="elem_Unavailability"><rect codeLine="43" fill="#F1F1F1" height="80.5938" id="Unavailability" rx="2.5" ry="2.5" style="stroke:#181818;stroke-width:0.5;" width="133" x="7" y="553"/><ellipse cx="24.7" cy="569" fill="#ADD1B2" rx="11" ry="11" style="stroke:#181818;stroke-width:1.0;"/><path d="M27.0438,564.6719 C26.1063,564.2344 25.5125,564.0938 24.6375,564.0938 C22.0125,564.0938 20.0125,566.1719 20.0125,568.8906 L20.0125,570.0156 C20.0125,572.5938 22.1219,574.4844 25.0125,574.4844 C26.2313,574.4844 27.3875,574.1875 28.1375,573.6406 C28.7156,573.2344 29.0438,572.7813 29.0438,572.3906 C29.0438,571.9375 28.6531,571.5469 28.1844,571.5469 C27.9656,571.5469 27.7625,571.625 27.575,571.8125 C27.1219,572.2969 27.1219,572.2969 26.9344,572.3906 C26.5125,572.6563 25.825,572.7813 25.0594,572.7813 C23.0125,572.7813 21.7156,571.6875 21.7156,569.9844 L21.7156,568.8906 C21.7156,567.1094 22.9656,565.7969 24.7,565.7969 C25.2781,565.7969 25.8875,565.9531 26.3563,566.2031 C26.8406,566.4844 27.0125,566.7031 27.1063,567.1094 C27.1688,567.5156 27.2,567.6406 27.3406,567.7656 C27.4813,567.9063 27.7156,568.0156 27.9344,568.0156 C28.2,568.0156 28.4656,567.875 28.6375,567.6563 C28.7469,567.5 28.7781,567.3125 28.7781,566.8906 L28.7781,565.4688 C28.7781,565.0313 28.7625,564.9063 28.6688,564.75 C28.5125,564.4844 28.2313,564.3438 27.9344,564.3438 C27.6375,564.3438 27.4344,564.4375 27.2156,564.75 L27.0438,564.6719 Z " fill="#000000"/><text fill="#000000" font-family="sans-serif" font-size="14" lengthAdjust="spacing" textLength="95" x="39.3" y="573.8467">Unavailability</text><line style="stroke:#181818;stroke-width:0.5;" x1="8" x2="139" y1="585" y2="585"/><text fill="#000000" font-family="sans-serif" font-size="14" lengthAdjust="spacing" textLength="121" x="13" y="601.9951">start_date : date</text><text fill="#000000" font-family="sans-serif" font-size="14" lengthAdjust="spacing" textLength="113" x="13" y="618.292">end_date : date</text><line style="stroke:#181818;stroke-width:0.5;" x1="8" x2="139" y1="625.5938" y2="625.5938"/></g><!--class Borrow_Request--><g id="elem_Borrow_Request"><rect codeLine="48" fill="#F1F1F1" height="129.4844" id="Borrow_Request" rx="2.5" ry="2.5" style="stroke:#181818;stroke-width:0.5;" width="191" x="606" y="230"/><ellipse cx="639.9" cy="246" fill="#ADD1B2" rx="11" ry="11" style="stroke:#181818;stroke-width:1.0;"/><path d="M642.2438,241.6719 C641.3063,241.2344 640.7125,241.0938 639.8375,241.0938 C637.2125,241.0938 635.2125,243.1719 635.2125,245.8906 L635.2125,247.0156 C635.2125,249.5938 637.3219,251.4844 640.2125,251.4844 C641.4313,251.4844 642.5875,251.1875 643.3375,250.6406 C643.9156,250.2344 644.2438,249.7813 644.2438,249.3906 C644.2438,248.9375 643.8531,248.5469 643.3844,248.5469 C643.1656,248.5469 642.9625,248.625 642.775,248.8125 C642.3219,249.2969 642.3219,249.2969 642.1344,249.3906 C641.7125,249.6563 641.025,249.7813 640.2594,249.7813 C638.2125,249.7813 636.9156,248.6875 636.9156,246.9844 L636.9156,245.8906 C636.9156,244.1094 638.1656,242.7969 639.9,242.7969 C640.4781,242.7969 641.0875,242.9531 641.5563,243.2031 C642.0406,243.4844 642.2125,243.7031 642.3063,244.1094 C642.3688,244.5156 642.4,244.6406 642.5406,244.7656 C642.6813,244.9063 642.9156,245.0156 643.1344,245.0156 C643.4,245.0156 643.6656,244.875 643.8375,244.6563 C643.9469,244.5 643.9781,244.3125 643.9781,243.8906 L643.9781,242.4688 C643.9781,242.0313 643.9625,241.9063 643.8688,241.75 C643.7125,241.4844 643.4313,241.3438 643.1344,241.3438 C642.8375,241.3438 642.6344,241.4375 642.4156,241.75 L642.2438,241.6719 Z " fill="#000000"/><text fill="#000000" font-family="sans-serif" font-size="14" lengthAdjust="spacing" textLength="117" x="658.1" y="250.8467">Borrow_Request</text><line style="stroke:#181818;stroke-width:0.5;" x1="607" x2="796" y1="262" y2="262"/><text fill="#000000" font-family="sans-serif" font-size="14" lengthAdjust="spacing" textLength="179" x="612" y="278.9951">request_date : datetime,</text><text fill="#000000" font-family="sans-serif" font-size="14" lengthAdjust="spacing" textLength="167" x="612" y="295.292">debut_date : datetime,</text><text fill="#000000" font-family="sans-serif" font-size="14" lengthAdjust="spacing" textLength="151" x="612" y="311.5889">end_date : datetime,</text><text fill="#000000" font-family="sans-serif" font-size="14" lengthAdjust="spacing" textLength="154" x="612" y="327.8857">state : RequestState,</text><text fill="#000000" font-family="sans-serif" font-size="14" lengthAdjust="spacing" textLength="125" x="612" y="344.1826">comment : string</text><line style="stroke:#181818;stroke-width:0.5;" x1="607" x2="796" y1="351.4844" y2="351.4844"/></g><!--class Inventory--><g id="elem_Inventory"><rect codeLine="56" fill="#F1F1F1" height="80.5938" id="Inventory" rx="2.5" ry="2.5" style="stroke:#181818;stroke-width:0.5;" width="101" x="664" y="39.5"/><ellipse cx="679" cy="55.5" fill="#ADD1B2" rx="11" ry="11" style="stroke:#181818;stroke-width:1.0;"/><path d="M681.3438,51.1719 C680.4063,50.7344 679.8125,50.5938 678.9375,50.5938 C676.3125,50.5938 674.3125,52.6719 674.3125,55.3906 L674.3125,56.5156 C674.3125,59.0938 676.4219,60.9844 679.3125,60.9844 C680.5313,60.9844 681.6875,60.6875 682.4375,60.1406 C683.0156,59.7344 683.3438,59.2813 683.3438,58.8906 C683.3438,58.4375 682.9531,58.0469 682.4844,58.0469 C682.2656,58.0469 682.0625,58.125 681.875,58.3125 C681.4219,58.7969 681.4219,58.7969 681.2344,58.8906 C680.8125,59.1563 680.125,59.2813 679.3594,59.2813 C677.3125,59.2813 676.0156,58.1875 676.0156,56.4844 L676.0156,55.3906 C676.0156,53.6094 677.2656,52.2969 679,52.2969 C679.5781,52.2969 680.1875,52.4531 680.6563,52.7031 C681.1406,52.9844 681.3125,53.2031 681.4063,53.6094 C681.4688,54.0156 681.5,54.1406 681.6406,54.2656 C681.7813,54.4063 682.0156,54.5156 682.2344,54.5156 C682.5,54.5156 682.7656,54.375 682.9375,54.1563 C683.0469,54 683.0781,53.8125 683.0781,53.3906 L683.0781,51.9688 C683.0781,51.5313 683.0625,51.4063 682.9688,51.25 C682.8125,50.9844 682.5313,50.8438 682.2344,50.8438 C681.9375,50.8438 681.7344,50.9375 681.5156,51.25 L681.3438,51.1719 Z " fill="#000000"/><text fill="#000000" font-family="sans-serif" font-size="14" lengthAdjust="spacing" textLength="69" x="693" y="60.3467">Inventory</text><line style="stroke:#181818;stroke-width:0.5;" x1="665" x2="764" y1="71.5" y2="71.5"/><text fill="#000000" font-family="sans-serif" font-size="14" lengthAdjust="spacing" textLength="81" x="670" y="88.4951">user: string</text><text fill="#000000" font-family="sans-serif" font-size="14" lengthAdjust="spacing" textLength="75" x="670" y="104.792">date: date</text><line style="stroke:#181818;stroke-width:0.5;" x1="665" x2="764" y1="112.0938" y2="112.0938"/></g><!--class Association--><g id="elem_Association"><rect codeLine="61" fill="#F1F1F1" height="64.2969" id="Association" rx="2.5" ry="2.5" style="stroke:#181818;stroke-width:0.5;" width="114" x="467.5" y="48"/><ellipse cx="482.5" cy="64" fill="#ADD1B2" rx="11" ry="11" style="stroke:#181818;stroke-width:1.0;"/><path d="M484.8438,59.6719 C483.9063,59.2344 483.3125,59.0938 482.4375,59.0938 C479.8125,59.0938 477.8125,61.1719 477.8125,63.8906 L477.8125,65.0156 C477.8125,67.5938 479.9219,69.4844 482.8125,69.4844 C484.0313,69.4844 485.1875,69.1875 485.9375,68.6406 C486.5156,68.2344 486.8438,67.7813 486.8438,67.3906 C486.8438,66.9375 486.4531,66.5469 485.9844,66.5469 C485.7656,66.5469 485.5625,66.625 485.375,66.8125 C484.9219,67.2969 484.9219,67.2969 484.7344,67.3906 C484.3125,67.6563 483.625,67.7813 482.8594,67.7813 C480.8125,67.7813 479.5156,66.6875 479.5156,64.9844 L479.5156,63.8906 C479.5156,62.1094 480.7656,60.7969 482.5,60.7969 C483.0781,60.7969 483.6875,60.9531 484.1563,61.2031 C484.6406,61.4844 484.8125,61.7031 484.9063,62.1094 C484.9688,62.5156 485,62.6406 485.1406,62.7656 C485.2813,62.9063 485.5156,63.0156 485.7344,63.0156 C486,63.0156 486.2656,62.875 486.4375,62.6563 C486.5469,62.5 486.5781,62.3125 486.5781,61.8906 L486.5781,60.4688 C486.5781,60.0313 486.5625,59.9063 486.4688,59.75 C486.3125,59.4844 486.0313,59.3438 485.7344,59.3438 C485.4375,59.3438 485.2344,59.4375 485.0156,59.75 L484.8438,59.6719 Z " fill="#000000"/><text fill="#000000" font-family="sans-serif" font-size="14" lengthAdjust="spacing" textLength="82" x="496.5" y="68.8467">Association</text><line style="stroke:#181818;stroke-width:0.5;" x1="468.5" x2="580.5" y1="80" y2="80"/><text fill="#000000" font-family="sans-serif" font-size="14" lengthAdjust="spacing" textLength="91" x="473.5" y="96.9951">name: string</text><line style="stroke:#181818;stroke-width:0.5;" x1="468.5" x2="580.5" y1="104.2969" y2="104.2969"/></g><!--class Borrowed_Item--><g id="elem_Borrowed_Item"><rect codeLine="64" fill="#F1F1F1" height="64.2969" id="Borrowed_Item" rx="2.5" ry="2.5" style="stroke:#181818;stroke-width:0.5;" width="142" x="544.5" y="420"/><ellipse cx="559.5" cy="436" fill="#ADD1B2" rx="11" ry="11" style="stroke:#181818;stroke-width:1.0;"/><path d="M561.8438,431.6719 C560.9063,431.2344 560.3125,431.0938 559.4375,431.0938 C556.8125,431.0938 554.8125,433.1719 554.8125,435.8906 L554.8125,437.0156 C554.8125,439.5938 556.9219,441.4844 559.8125,441.4844 C561.0313,441.4844 562.1875,441.1875 562.9375,440.6406 C563.5156,440.2344 563.8438,439.7813 563.8438,439.3906 C563.8438,438.9375 563.4531,438.5469 562.9844,438.5469 C562.7656,438.5469 562.5625,438.625 562.375,438.8125 C561.9219,439.2969 561.9219,439.2969 561.7344,439.3906 C561.3125,439.6563 560.625,439.7813 559.8594,439.7813 C557.8125,439.7813 556.5156,438.6875 556.5156,436.9844 L556.5156,435.8906 C556.5156,434.1094 557.7656,432.7969 559.5,432.7969 C560.0781,432.7969 560.6875,432.9531 561.1563,433.2031 C561.6406,433.4844 561.8125,433.7031 561.9063,434.1094 C561.9688,434.5156 562,434.6406 562.1406,434.7656 C562.2813,434.9063 562.5156,435.0156 562.7344,435.0156 C563,435.0156 563.2656,434.875 563.4375,434.6563 C563.5469,434.5 563.5781,434.3125 563.5781,433.8906 L563.5781,432.4688 C563.5781,432.0313 563.5625,431.9063 563.4688,431.75 C563.3125,431.4844 563.0313,431.3438 562.7344,431.3438 C562.4375,431.3438 562.2344,431.4375 562.0156,431.75 L561.8438,431.6719 Z " fill="#000000"/><text fill="#000000" font-family="sans-serif" font-size="14" lengthAdjust="spacing" textLength="110" x="573.5" y="440.8467">Borrowed_Item</text><line style="stroke:#181818;stroke-width:0.5;" x1="545.5" x2="685.5" y1="452" y2="452"/><text fill="#000000" font-family="sans-serif" font-size="14" lengthAdjust="spacing" textLength="93" x="550.5" y="468.9951">quantity : int</text><line style="stroke:#181818;stroke-width:0.5;" x1="545.5" x2="685.5" y1="476.2969" y2="476.2969"/></g><ellipse cx="507.5" cy="452" fill="#181818" rx="2" ry="2" style="stroke:#181818;stroke-width:1.0;"/><!--link Class to Item--><g id="link_Class_Item"><path codeLine="68" d="M285.406,343.218 C303.881,398.642 334.176,489.527 352.633,544.9 " fill="none" id="Class-Item" style="stroke:#181818;stroke-width:1.0;"/><polygon fill="#000000" points="335.9189,447.323,335.9911,456.8333,341.5673,454.9745,335.9189,447.323" style="stroke:#000000;stroke-width:1.0;"/><text fill="#000000" font-family="sans-serif" font-size="13" lengthAdjust="spacing" textLength="70" x="346.5" y="456.5669">"belong to"</text><text fill="#000000" font-family="sans-serif" font-size="13" lengthAdjust="spacing" textLength="24" x="261.9309" y="362.8555">1..1</text><text fill="#000000" font-family="sans-serif" font-size="13" lengthAdjust="spacing" textLength="23" x="325.7845" y="534.0949">1..*</text></g><!--link Borrow_Request to apoint16--><g id="link_Borrow_Request_apoint16"><path d="M605.989,354.13 C578.916,373.227 550.564,395.8 527.5,420 C517.779,430.2 509.995,445.763 507.999,449.938 " fill="none" id="Borrow_Request-apoint16" style="stroke:#181818;stroke-width:1.0;"/><text fill="#000000" font-family="sans-serif" font-size="13" lengthAdjust="spacing" textLength="23" x="575.1304" y="355.0123">0..*</text></g><!--link apoint16 to Item--><g id="link_apoint16_Item"><path d="M506.612,453.891 C499.653,460.875 453.142,507.553 415.99,544.84 " fill="none" id="apoint16-Item" style="stroke:#181818;stroke-width:1.0;"/><text fill="#000000" font-family="sans-serif" font-size="13" lengthAdjust="spacing" textLength="23" x="398.0511" y="534.0264">1..*</text></g><!--link apoint16 to Borrowed_Item--><g id="link_apoint16_Borrowed_Item"><path d="M509.609,452 C521.191,452 532.773,452 544.355,452 " fill="none" id="apoint16-Borrowed_Item" style="stroke:#181818;stroke-width:1.0;stroke-dasharray:7.0,7.0;"/></g><!--link Category to Class--><g id="link_Category_Class"><path codeLine="71" d="M463.78,294.5 C428.827,294.5 382.752,294.5 344.244,294.5 " fill="none" id="Category-Class" style="stroke:#181818;stroke-width:1.0;"/><polygon fill="#000000" points="361.5,283.0664,370.5451,286.0053,370.5451,280.1275,361.5,283.0664" style="stroke:#000000;stroke-width:1.0;"/><text fill="#000000" font-family="sans-serif" font-size="13" lengthAdjust="spacing" textLength="70" x="375.5" y="287.5669">"belong to"</text><text fill="#000000" font-family="sans-serif" font-size="13" lengthAdjust="spacing" textLength="23" x="432.8313" y="307.471">0..*</text><text fill="#000000" font-family="sans-serif" font-size="13" lengthAdjust="spacing" textLength="23" x="351.9251" y="307.2456">0..*</text></g><!--link Unavailability to Item--><g id="link_Unavailability_Item"><path codeLine="72" d="M140.072,593.5 C186.464,593.5 248.327,593.5 295.973,593.5 " fill="none" id="Unavailability-Item" style="stroke:#181818;stroke-width:1.0;"/><polygon fill="#000000" points="157.5,582.0664,166.5451,585.0053,166.5451,579.1275,157.5,582.0664" style="stroke:#000000;stroke-width:1.0;"/><text fill="#000000" font-family="sans-serif" font-size="13" lengthAdjust="spacing" textLength="106" x="171.5" y="586.5669">"is not available"</text><text fill="#000000" font-family="sans-serif" font-size="13" lengthAdjust="spacing" textLength="24" x="148.1747" y="606.3681">1..1</text><text fill="#000000" font-family="sans-serif" font-size="13" lengthAdjust="spacing" textLength="23" x="264.9642" y="606.2933">0..*</text></g><!--link TemporaryAccess to Association--><g id="link_TemporaryAccess_Association"><path codeLine="73" d="M383.589,80 C411.335,80 441.774,80 467.239,80 " fill="none" id="TemporaryAccess-Association" style="stroke:#181818;stroke-width:1.0;"/><polygon fill="#000000" points="401,68.5664,410.0451,71.5053,410.0451,65.6275,401,68.5664" style="stroke:#000000;stroke-width:1.0;"/><text fill="#000000" font-family="sans-serif" font-size="13" lengthAdjust="spacing" textLength="34" x="415" y="73.0669">gives</text><text fill="#000000" font-family="sans-serif" font-size="13" lengthAdjust="spacing" textLength="23" x="391.5459" y="92.7218">0..*</text><text fill="#000000" font-family="sans-serif" font-size="13" lengthAdjust="spacing" textLength="24" x="435.6636" y="92.8782">1..1</text></g><!--link Association to Inventory--><g id="link_Association_Inventory"><path codeLine="74" d="M581.506,80 C607.74,80 638.602,80 663.989,80 " fill="none" id="Association-Inventory" style="stroke:#181818;stroke-width:1.0;"/><polygon fill="#000000" points="608.75,68.5664,599.7049,65.6275,599.7049,71.5053,608.75,68.5664" style="stroke:#000000;stroke-width:1.0;"/><text fill="#000000" font-family="sans-serif" font-size="13" lengthAdjust="spacing" textLength="33" x="612.75" y="73.0669">"has"</text><text fill="#000000" font-family="sans-serif" font-size="13" lengthAdjust="spacing" textLength="24" x="589.4848" y="92.9246">1..1</text><text fill="#000000" font-family="sans-serif" font-size="13" lengthAdjust="spacing" textLength="23" x="633.0438" y="93.0624">0..*</text></g><!--link Association to Class--><g id="link_Association_Class"><path codeLine="75" d="M487.148,112.127 C444.955,147.288 375.796,204.92 326.771,245.774 " fill="none" id="Association-Class" style="stroke:#181818;stroke-width:1.0;"/><polygon fill="#000000" points="406.3411,188.3655,397.511,191.8983,401.2739,196.4137,406.3411,188.3655" style="stroke:#000000;stroke-width:1.0;"/><text fill="#000000" font-family="sans-serif" font-size="13" lengthAdjust="spacing" textLength="67" x="411.5" y="196.0669">Belongs to</text><text fill="#000000" font-family="sans-serif" font-size="13" lengthAdjust="spacing" textLength="20" x="457.3817" y="132.35">1.1</text><text fill="#000000" font-family="sans-serif" font-size="13" lengthAdjust="spacing" textLength="23" x="310.2075" y="234.9511">0..*</text></g><!--link Association to Borrow_Request--><g id="link_Association_Borrow_Request"><path codeLine="76" d="M550.617,112.355 C576.293,143.18 616.221,191.117 648.555,229.936 " fill="none" id="Association-Borrow_Request" style="stroke:#181818;stroke-width:1.0;"/><polygon fill="#000000" points="631.7,195.4083,628.1693,186.5774,623.6529,190.3392,631.7,195.4083" style="stroke:#000000;stroke-width:1.0;"/><text fill="#000000" font-family="sans-serif" font-size="13" lengthAdjust="spacing" textLength="70" x="637.5" y="196.0669">"demands"</text><text fill="#000000" font-family="sans-serif" font-size="13" lengthAdjust="spacing" textLength="24" x="529.3963" y="132.2522">1..1</text><text fill="#000000" font-family="sans-serif" font-size="13" lengthAdjust="spacing" textLength="23" x="618.5063" y="219.1017">0..*</text></g><!--link Item to ConditionHistory--><g id="link_Item_ConditionHistory"><path codeLine="79" d="M368.5,642.376 C368.5,666.674 368.5,695.838 368.5,718.8598 " fill="none" id="Item-ConditionHistory" style="stroke:#181818;stroke-width:1.0;"/><polygon fill="#000000" points="373.5,685.5664,376.4389,676.5213,370.5611,676.5213,373.5,685.5664" style="stroke:#000000;stroke-width:1.0;"/><text fill="#000000" font-family="sans-serif" font-size="13" lengthAdjust="spacing" textLength="33" x="382.5" y="685.0669">"has"</text><text fill="#000000" font-family="sans-serif" font-size="13" lengthAdjust="spacing" textLength="24" x="342.8875" y="662.0347">1..1</text><text fill="#000000" font-family="sans-serif" font-size="13" lengthAdjust="spacing" textLength="23" x="343.5953" y="707.9981">1..*</text></g><!--SRC=[TLJ1Rjim3BthAmYVrY49rcim36Y60UjXbxRRDP1jDXLWIwb8fmY2_ljeIRPbDyt1eMc-nyT7sMYx5XxmjKFYHzQC5mNo-wSRKoE6-06VEqhnBmkQ6IsZUbSAU_1FPsl3njc8jDWzXu0zqixP49VfltLdJ97kJjhGMFadtGjhrMYYYVQt8NR-7DbhKRWDLpOjhaAk6Ygt4sZYUSBswBpsvxkgGg988_FuBH1xOmyXWRRUJzmXHRqRi9sPCz7UCxQHwxNJbWsVfTHOJcDQjpPI8RdIkIPAHwgyEKQXgVKqRNzD1kgsRrkzQB_4mKppqPjJb1XwJ5oIF8oE9RfbmxzMYz-DBaqZsYzAflKSB83amM39S3z2TyvxzxPFlboKZq5U79TJOzbTII-8O_AQsojLkRQLmtP5_xqzoODnoWyBpPOvOkw8N6LqTbR5cumw7m_h_MSh1lKEIeMD0HItcyrj0Ujr3ByMuMH8OL5Yu-m1s1Nm7TJSD2Y-XLg1vIZrPLws2kaRsCn5gM738yqGH57pvZ_KVDUZv04q23O4rZ6asWP5jrgyFLd3I99PAXG7Sq8IL9xzq6rOND_oHLClS54V_LoC1Bim4ibCdtGO8GklfK-DhRPrwALKc3S3nGKilpUJlFy0]--></g></svg>