<?xml version="1.0" encoding="us-ascii" standalone="no"?><svg xmlns="http://www.w3.org/2000/svg" xmlns:xlink="http://www.w3.org/1999/xlink" contentStyleType="text/css" height="1498px" preserveAspectRatio="none" style="width:1422px;height:1498px;background:#FFFFFF;" version="1.1" viewBox="0 0 1422 1498" width="1422px" zoomAndPan="magnify"><defs/><g><!--cluster Commun--><g id="cluster_Commun"><rect fill="none" height="384" rx="2.5" ry="2.5" style="stroke:#181818;stroke-width:1.0;" width="507.5" x="121" y="802"/><text fill="#000000" font-family="sans-serif" font-size="14" font-weight="bold" lengthAdjust="spacing" textLength="70" x="339.75" y="816.9951">Commun</text></g><!--cluster Acteurs--><g id="cluster_Acteurs"><rect fill="none" height="238" rx="2.5" ry="2.5" style="stroke:#181818;stroke-width:1.0;" width="124" x="786" y="202"/><text fill="#000000" font-family="sans-serif" font-size="14" font-weight="bold" lengthAdjust="spacing" textLength="63" x="816.5" y="216.9951">Acteurs</text></g><!--cluster Acteurs2--><g id="cluster_Acteurs2"><rect fill="none" height="273" rx="2.5" ry="2.5" style="stroke:#181818;stroke-width:1.0;" width="89" x="544.5" y="489"/><text fill="#000000" font-family="sans-serif" font-size="14" font-weight="bold" lengthAdjust="spacing" textLength="73" x="552.5" y="503.9951">Acteurs2</text></g><!--cluster Repondants--><g id="cluster_Repondants"><rect fill="none" height="460" rx="2.5" ry="2.5" style="stroke:#181818;stroke-width:1.0;" width="124" x="1292" y="7"/><text fill="#000000" font-family="sans-serif" font-size="14" font-weight="bold" lengthAdjust="spacing" textLength="97" x="1305.5" y="21.9951">Repondants</text></g><!--entity Utilisateur--><g id="elem_Utilisateur"><ellipse cx="191" cy="1075.5" fill="#F1F1F1" rx="8" ry="8" style="stroke:#181818;stroke-width:0.5;"/><path d="M191,1083.5 L191,1110.5 M178,1091.5 L204,1091.5 M191,1110.5 L178,1125.5 M191,1110.5 L204,1125.5 " fill="none" style="stroke:#181818;stroke-width:0.5;"/><text fill="#000000" font-family="sans-serif" font-size="14" lengthAdjust="spacing" textLength="73" x="154.5" y="1139.9951">Utilisateur</text></g><!--entity Membre--><g id="elem_Membre"><ellipse cx="191" cy="964.5" fill="#F1F1F1" rx="8" ry="8" style="stroke:#181818;stroke-width:0.5;"/><path d="M191,972.5 L191,999.5 M178,980.5 L204,980.5 M191,999.5 L178,1014.5 M191,999.5 L204,1014.5 " fill="none" style="stroke:#181818;stroke-width:0.5;"/><text fill="#000000" font-family="sans-serif" font-size="14" lengthAdjust="spacing" textLength="60" x="161" y="1028.9951">Membre</text></g><!--entity Responsable--><g id="elem_Responsable"><ellipse cx="191" cy="853.5" fill="#F1F1F1" rx="8" ry="8" style="stroke:#181818;stroke-width:0.5;"/><path d="M191,861.5 L191,888.5 M178,869.5 L204,869.5 M191,888.5 L178,903.5 M191,888.5 L204,903.5 " fill="none" style="stroke:#181818;stroke-width:0.5;"/><text fill="#000000" font-family="sans-serif" font-size="14" lengthAdjust="spacing" textLength="92" x="145" y="917.9951">Responsable</text></g><!--entity Pole--><g id="elem_Pole"><ellipse cx="589" cy="1075.5" fill="#F1F1F1" rx="8" ry="8" style="stroke:#181818;stroke-width:0.5;"/><path d="M589,1083.5 L589,1110.5 M576,1091.5 L602,1091.5 M589,1110.5 L576,1125.5 M589,1110.5 L602,1125.5 " fill="none" style="stroke:#181818;stroke-width:0.5;"/><text fill="#000000" font-family="sans-serif" font-size="14" lengthAdjust="spacing" textLength="31" x="573.5" y="1139.9951">Pole</text></g><!--entity BDE--><g id="elem_BDE"><ellipse cx="589" cy="964.5" fill="#F1F1F1" rx="8" ry="8" style="stroke:#181818;stroke-width:0.5;"/><path d="M589,972.5 L589,999.5 M576,980.5 L602,980.5 M589,999.5 L576,1014.5 M589,999.5 L602,1014.5 " fill="none" style="stroke:#181818;stroke-width:0.5;"/><text fill="#000000" font-family="sans-serif" font-size="14" lengthAdjust="spacing" textLength="30" x="574" y="1028.9951">BDE</text></g><!--entity m--><g id="elem_m"><ellipse cx="848" cy="245.5" fill="#F1F1F1" rx="8" ry="8" style="stroke:#181818;stroke-width:0.5;"/><path d="M848,253.5 L848,280.5 M835,261.5 L861,261.5 M848,280.5 L835,295.5 M848,280.5 L861,295.5 " fill="none" style="stroke:#181818;stroke-width:0.5;"/><text fill="#000000" font-family="sans-serif" font-size="14" lengthAdjust="spacing" textLength="60" x="818" y="309.9951">Membre</text></g><!--entity r--><g id="elem_r"><ellipse cx="848" cy="356.5" fill="#F1F1F1" rx="8" ry="8" style="stroke:#181818;stroke-width:0.5;"/><path d="M848,364.5 L848,391.5 M835,372.5 L861,372.5 M848,391.5 L835,406.5 M848,391.5 L861,406.5 " fill="none" style="stroke:#181818;stroke-width:0.5;"/><text fill="#000000" font-family="sans-serif" font-size="14" lengthAdjust="spacing" textLength="92" x="802" y="420.9951">Responsable</text></g><!--entity p--><g id="elem_p"><ellipse cx="589" cy="540.5" fill="#F1F1F1" rx="8" ry="8" style="stroke:#181818;stroke-width:0.5;"/><path d="M589,548.5 L589,575.5 M576,556.5 L602,556.5 M589,575.5 L576,590.5 M589,575.5 L602,590.5 " fill="none" style="stroke:#181818;stroke-width:0.5;"/><text fill="#000000" font-family="sans-serif" font-size="14" lengthAdjust="spacing" textLength="31" x="573.5" y="604.9951">Pole</text></g><!--entity b--><g id="elem_b"><ellipse cx="589" cy="651.5" fill="#F1F1F1" rx="8" ry="8" style="stroke:#181818;stroke-width:0.5;"/><path d="M589,659.5 L589,686.5 M576,667.5 L602,667.5 M589,686.5 L576,701.5 M589,686.5 L602,701.5 " fill="none" style="stroke:#181818;stroke-width:0.5;"/><text fill="#000000" font-family="sans-serif" font-size="14" lengthAdjust="spacing" textLength="30" x="574" y="715.9951">BDE</text></g><!--entity m2--><g id="elem_m2"><ellipse cx="1354" cy="383.5" fill="#F1F1F1" rx="8" ry="8" style="stroke:#181818;stroke-width:0.5;"/><path d="M1354,391.5 L1354,418.5 M1341,399.5 L1367,399.5 M1354,418.5 L1341,433.5 M1354,418.5 L1367,433.5 " fill="none" style="stroke:#181818;stroke-width:0.5;"/><text fill="#000000" font-family="sans-serif" font-size="14" lengthAdjust="spacing" textLength="60" x="1324" y="447.9951">Membre</text></g><!--entity r2--><g id="elem_r2"><ellipse cx="1354" cy="272.5" fill="#F1F1F1" rx="8" ry="8" style="stroke:#181818;stroke-width:0.5;"/><path d="M1354,280.5 L1354,307.5 M1341,288.5 L1367,288.5 M1354,307.5 L1341,322.5 M1354,307.5 L1367,322.5 " fill="none" style="stroke:#181818;stroke-width:0.5;"/><text fill="#000000" font-family="sans-serif" font-size="14" lengthAdjust="spacing" textLength="92" x="1308" y="336.9951">Responsable</text></g><!--entity p2--><g id="elem_p2"><ellipse cx="1354" cy="50.5" fill="#F1F1F1" rx="8" ry="8" style="stroke:#181818;stroke-width:0.5;"/><path d="M1354,58.5 L1354,85.5 M1341,66.5 L1367,66.5 M1354,85.5 L1341,100.5 M1354,85.5 L1367,100.5 " fill="none" style="stroke:#181818;stroke-width:0.5;"/><text fill="#000000" font-family="sans-serif" font-size="14" lengthAdjust="spacing" textLength="31" x="1338.5" y="114.9951">Pole</text></g><!--entity b2--><g id="elem_b2"><ellipse cx="1354" cy="161.5" fill="#F1F1F1" rx="8" ry="8" style="stroke:#181818;stroke-width:0.5;"/><path d="M1354,169.5 L1354,196.5 M1341,177.5 L1367,177.5 M1354,196.5 L1341,211.5 M1354,196.5 L1367,211.5 " fill="none" style="stroke:#181818;stroke-width:0.5;"/><text fill="#000000" font-family="sans-serif" font-size="14" lengthAdjust="spacing" textLength="30" x="1339" y="225.9951">BDE</text></g><g id="elem_US1"><ellipse cx="589.1781" cy="1227.1356" fill="#F1F1F1" rx="71.1781" ry="16.6356" style="stroke:#181818;stroke-width:0.5;"/><text fill="#000000" font-family="sans-serif" font-size="14" lengthAdjust="spacing" textLength="96" x="538.1781" y="1230.8832">Se connecter</text></g><g id="elem_US2"><ellipse cx="589.1551" cy="1297.031" fill="#F1F1F1" rx="78.1551" ry="18.031" style="stroke:#181818;stroke-width:0.5;"/><text fill="#000000" font-family="sans-serif" font-size="14" lengthAdjust="spacing" textLength="114" x="529.7659" y="1300.6166">Se deconnecter</text></g><g id="elem_US3"><ellipse cx="589.2481" cy="1372.8496" fill="#F1F1F1" rx="102.2481" ry="22.8496" style="stroke:#181818;stroke-width:0.5;"/><text fill="#000000" font-family="sans-serif" font-size="14" lengthAdjust="spacing" textLength="169" x="504.7481" y="1375.6963">Rechercher du materiel</text></g><g id="elem_US4"><ellipse cx="589.1446" cy="1462.1289" fill="#F1F1F1" rx="141.1446" ry="30.6289" style="stroke:#181818;stroke-width:0.5;"/><text fill="#000000" font-family="sans-serif" font-size="14" lengthAdjust="spacing" textLength="252" x="463.1446" y="1464.9756">Voir la liste du materiel de son asso</text></g><g id="elem_US5"><ellipse cx="1100.7915" cy="310.1583" fill="#F1F1F1" rx="88.7915" ry="20.1583" style="stroke:#181818;stroke-width:0.5;"/><text fill="#000000" font-family="sans-serif" font-size="14" lengthAdjust="spacing" textLength="139" x="1031.2915" y="313.005">Ajouter du materiel</text></g><g id="elem_US6"><ellipse cx="1100.9431" cy="386.1886" fill="#F1F1F1" rx="91.4431" ry="20.6886" style="stroke:#181818;stroke-width:0.5;"/><text fill="#000000" font-family="sans-serif" font-size="14" lengthAdjust="spacing" textLength="145" x="1028.4431" y="389.0353">Modifier du materiel</text></g><g id="elem_US7"><ellipse cx="1101.0673" cy="464.2135" fill="#F1F1F1" rx="99.0673" ry="22.2135" style="stroke:#181818;stroke-width:0.5;"/><text fill="#000000" font-family="sans-serif" font-size="14" lengthAdjust="spacing" textLength="162" x="1020.0673" y="467.0601">Supprimer du materiel</text></g><g id="elem_US8"><ellipse cx="1101.0271" cy="635.8054" fill="#F1F1F1" rx="117.0271" ry="25.8054" style="stroke:#181818;stroke-width:0.5;"/><text fill="#000000" font-family="sans-serif" font-size="14" lengthAdjust="spacing" textLength="201" x="1000.5271" y="638.6521">Donner des acces restreints</text></g><g id="elem_US9"><ellipse cx="1101.0617" cy="548.2123" fill="#F1F1F1" rx="124.0617" ry="27.2123" style="stroke:#181818;stroke-width:0.5;"/><text fill="#000000" font-family="sans-serif" font-size="14" lengthAdjust="spacing" textLength="216" x="993.0617" y="551.059">Faire une demande d'emprunt</text></g><g id="elem_US10"><ellipse cx="589.0617" cy="242.2123" fill="#F1F1F1" rx="124.0617" ry="27.2123" style="stroke:#181818;stroke-width:0.5;"/><text fill="#000000" font-family="sans-serif" font-size="14" lengthAdjust="spacing" textLength="216" x="481.0617" y="245.059">Voir l'historique des emprunts</text></g><g id="elem_US11"><ellipse cx="1100.8886" cy="222.7777" fill="#F1F1F1" rx="146.8886" ry="31.7777" style="stroke:#181818;stroke-width:0.5;"/><text fill="#000000" font-family="sans-serif" font-size="14" lengthAdjust="spacing" textLength="264" x="968.8886" y="225.6244">Repondre aux demandes d'emprunts</text></g><g id="elem_US12"><ellipse cx="589.1339" cy="337.0268" fill="#F1F1F1" rx="153.1339" ry="33.0268" style="stroke:#181818;stroke-width:0.5;"/><text fill="#000000" font-family="sans-serif" font-size="14" lengthAdjust="spacing" textLength="277" x="450.6339" y="339.8735">Voir les emprunts de son asso en cours</text></g><g id="elem_US13"><ellipse cx="1100.7771" cy="134.9554" fill="#F1F1F1" rx="92.7771" ry="20.9554" style="stroke:#181818;stroke-width:0.5;"/><text fill="#000000" font-family="sans-serif" font-size="14" lengthAdjust="spacing" textLength="148" x="1026.7771" y="137.8021">Demander des acces</text></g><g id="elem_US14"><ellipse cx="589.2348" cy="435.247" fill="#F1F1F1" rx="139.2348" ry="30.247" style="stroke:#181818;stroke-width:0.5;"/><text fill="#000000" font-family="sans-serif" font-size="14" lengthAdjust="spacing" textLength="248" x="465.2348" y="438.0936">Voir le materiel pret&#233; par son asso</text></g><g id="elem_GMN32"><path d="M6,734 L6,774.2656 L376,774.2656 L376,744 L366,734 L6,734 " fill="#FEFFDD" style="stroke:#181818;stroke-width:0.5;"/><path d="M366,734 L366,744 L376,744 L366,734 " fill="#FEFFDD" style="stroke:#181818;stroke-width:1.0;"/><text fill="#000000" font-family="sans-serif" font-size="13" lengthAdjust="spacing" textLength="345" x="12" y="751.0669">Acteurs2 herite de Responsable pour toutes les assos</text><text fill="#000000" font-family="sans-serif" font-size="13" lengthAdjust="spacing" textLength="167" x="16" y="766.1997">dont ils sont responsables</text></g><!--link Commun to US1--><g id="link_Commun_US1"><path d="M256.9411,1186.0356 C257.8165,1186.1439 258.6984,1186.253 259.5865,1186.3629 C263.139,1186.8025 266.7925,1187.2545 270.537,1187.7179 C285.5148,1189.5712 301.9493,1191.6047 319.2103,1193.7405 C388.2543,1202.2838 464.5689,1211.7267 519.7454,1218.5542 " fill="none" id="Commun-to-US1" style="stroke:#181818;stroke-width:1.0;"/><polygon fill="#181818" points="525.7,1219.291,517.2593,1214.2161,520.7378,1218.677,516.2769,1222.1555,525.7,1219.291" style="stroke:#181818;stroke-width:1.0;"/></g><!--link Commun to US2--><g id="link_Commun_US2"><path d="M213.3749,1186.0413 C213.5889,1186.121 213.8044,1186.2011 214.0213,1186.2818 C214.8889,1186.6045 215.779,1186.9351 216.691,1187.2735 C231.2827,1192.6882 251.4843,1200.0862 274.9446,1208.4099 C321.8653,1225.0572 381.8205,1245.4075 436,1261 C467.143,1269.963 496.4784,1277.0847 525.1494,1283.5367 " fill="none" id="Commun-to-US2" style="stroke:#181818;stroke-width:1.0;"/><polygon fill="#181818" points="531.003,1284.854,523.1008,1278.9757,526.125,1283.7563,521.3444,1286.7805,531.003,1284.854" style="stroke:#181818;stroke-width:1.0;"/></g><!--link Commun to US3--><g id="link_Commun_US3"><path d="M202.218,1186.1643 C203.415,1187.1066 204.71,1188.122 206.0989,1189.2059 C208.8767,1191.3737 212.0303,1193.8156 215.5283,1196.4953 C229.5202,1207.2141 249.0223,1221.7375 272.0261,1237.7438 C318.0338,1269.7563 378.048,1307.7 436,1333 C459.883,1343.426 481.28,1350.1812 506.019,1356.3822 " fill="none" id="Commun-to-US3" style="stroke:#181818;stroke-width:1.0;"/><polygon fill="#181818" points="511.839,1357.841,504.0816,1351.7728,506.989,1356.6253,502.1365,1359.5328,511.839,1357.841" style="stroke:#181818;stroke-width:1.0;"/></g><!--link Acteurs2 to r--><g id="link_Acteurs2_r"><path d="M633.8604,760.3841 C634.7633,760.4467 635.6747,760.5057 636.5941,760.5606 C640.2718,760.7805 644.0781,760.9362 647.9784,761.006 C679.1808,761.5645 716.4025,756.624 742,735 C790.093,694.372 823.8317,523.7628 837.8217,441.9028 " fill="none" id="Acteurs2-to-r" style="stroke:#181818;stroke-width:1.0;"/><polygon fill="none" points="840.854,424.16,831.9075,440.892,843.736,442.9135,840.854,424.16" style="stroke:#181818;stroke-width:1.0;"/></g><!--link GMN32 to Acteurs2--><g id="link_GMN32_Acteurs2"><path d="M376.088,754 C426.9865,754 479.1173,754 518.9371,754 C523.9146,754 528.6997,754 533.2661,754 C535.5492,754 537.7777,754 539.9481,754 C541.0333,754 542.1041,754 543.1599,754 C543.4238,754 543.6868,754 543.9489,754 " fill="none" id="GMN32-Acteurs2" style="stroke:#181818;stroke-width:1.0;stroke-dasharray:7.0,7.0;"/></g><!--link Commun to US4--><g id="link_Commun_US4"><path d="M197.9947,1186.0698 C198.1064,1186.2176 198.2196,1186.3673 198.3342,1186.5189 C202.0033,1191.3688 207.196,1198.1182 213.7277,1206.3192 C226.7911,1222.7213 245.2103,1244.9299 267.5074,1269.3631 C312.1015,1318.2295 372.207,1375.994 436,1414 C453.474,1424.4105 467.7642,1430.8659 487.3552,1437.5365 " fill="none" id="Commun-to-US4" style="stroke:#181818;stroke-width:1.0;"/><polygon fill="#181818" points="493.035,1439.4704,485.8046,1432.783,488.3018,1437.8588,483.226,1440.356,493.035,1439.4704" style="stroke:#181818;stroke-width:1.0;"/></g><!--link r to US9--><g id="link_r_US9"><path d="M874.206,424 C893.272,449.99 921.641,483.34 954,504 C971.07,514.897 985.266,521.3682 1004.79,527.6692 " fill="none" id="r-to-US9" style="stroke:#181818;stroke-width:1.0;"/><polygon fill="#181818" points="1010.5,529.512,1003.1635,522.9411,1005.7417,527.9763,1000.7065,530.5545,1010.5,529.512" style="stroke:#181818;stroke-width:1.0;"/></g><!--link r to US5--><g id="link_r_US5"><path d="M894.17,368.61 C912.595,361.8 934.189,354.15 954,348 C981.766,339.38 1007.0806,332.5509 1033.4506,325.9309 " fill="none" id="r-to-US5" style="stroke:#181818;stroke-width:1.0;"/><polygon fill="#181818" points="1039.27,324.47,1029.5669,322.7818,1034.4205,325.6874,1031.5148,330.541,1039.27,324.47" style="stroke:#181818;stroke-width:1.0;"/></g><!--link r to US6--><g id="link_r_US6"><path d="M894.164,386 C926.203,386 964.293,386 1003.45,386 " fill="none" id="r-to-US6" style="stroke:#181818;stroke-width:1.0;"/><polygon fill="#181818" points="1009.45,386,1000.45,382,1004.45,386,1000.45,390,1009.45,386" style="stroke:#181818;stroke-width:1.0;"/></g><!--link r to US7--><g id="link_r_US7"><path d="M894.211,403.26 C912.642,410.06 934.229,417.72 954,424 C980.428,432.39 1004.074,439.1086 1029.554,445.9286 " fill="none" id="r-to-US7" style="stroke:#181818;stroke-width:1.0;"/><polygon fill="#181818" points="1035.35,447.48,1027.6903,441.289,1030.52,446.1872,1025.6218,449.0169,1035.35,447.48" style="stroke:#181818;stroke-width:1.0;"/></g><!--link r to US8--><g id="link_r_US8"><path d="M858.403,424.32 C871.804,470.92 900.872,548.803 954,593 C969.032,605.505 981.8839,612.4675 1000.6509,618.7565 " fill="none" id="r-to-US8" style="stroke:#181818;stroke-width:1.0;"/><polygon fill="#181818" points="1006.34,620.663,999.0774,614.0106,1001.5991,619.0743,996.5354,621.596,1006.34,620.663" style="stroke:#181818;stroke-width:1.0;"/></g><!--link US8 to m2--><g id="link_US8_m2"><path d="M1194.35,620.239 C1213.41,613.973 1232.4,605.222 1248,593 C1294.99,556.185 1322.9163,497.6654 1338.3263,456.7254 " fill="none" id="US8-to-m2" style="stroke:#181818;stroke-width:1.0;"/><polygon fill="#181818" points="1340.44,451.11,1333.5259,458.124,1338.6786,455.7895,1341.0131,460.9422,1340.44,451.11" style="stroke:#181818;stroke-width:1.0;"/></g><!--link US9 to r2--><g id="link_US9_r2"><path d="M1203.25,532.488 C1219.96,525.999 1235.78,516.857 1248,504 C1294.04,455.55 1248.19,414.43 1284,358 C1290.28,348.1 1294.3424,343.0306 1303.3824,335.3306 " fill="none" id="US9-to-r2" style="stroke:#181818;stroke-width:1.0;"/><polygon fill="#181818" points="1307.95,331.44,1298.5048,334.2308,1304.1436,334.6822,1303.6923,340.321,1307.95,331.44" style="stroke:#181818;stroke-width:1.0;"/></g><!--reverse link US10 to r--><g id="link_US10_r"><path d="M688.0566,261.5833 C708.7476,268.1033 724.12,275.12 742,287 C763.045,300.98 760.02,313.25 778,331 C785.304,338.21 793.511,345.42 801.648,352.12 " fill="none" id="US10-backto-r" style="stroke:#181818;stroke-width:1.0;"/><polygon fill="#181818" points="682.334,259.78,689.7157,266.3,687.1028,261.2827,692.1201,258.6698,682.334,259.78" style="stroke:#181818;stroke-width:1.0;"/></g><!--link r to US11--><g id="link_r_US11"><path d="M894.11,353.82 C902.533,346.8 910.906,339.04 918,331 C938.321,307.96 929.987,291.16 954,272 C967.376,261.33 977.6325,255.1914 993.8275,248.6014 " fill="none" id="r-to-US11" style="stroke:#181818;stroke-width:1.0;"/><polygon fill="#181818" points="999.385,246.34,989.5411,246.0272,994.7537,248.2245,992.5564,253.4372,999.385,246.34" style="stroke:#181818;stroke-width:1.0;"/></g><!--reverse link US12 to r--><g id="link_US12_r"><path d="M710.115,359.903 C744.702,366.493 774.792,372.23 801.984,377.42 " fill="none" id="US12-backto-r" style="stroke:#181818;stroke-width:1.0;"/><polygon fill="#181818" points="704.221,358.78,712.3133,364.3938,709.1326,359.7158,713.8106,356.5352,704.221,358.78" style="stroke:#181818;stroke-width:1.0;"/></g><!--link m to US13--><g id="link_m_US13"><path d="M878.027,238.47 C897.356,216.47 924.546,189.58 954,173 C975.34,160.99 994.7376,154.1005 1018.1706,148.3905 " fill="none" id="m-to-US13" style="stroke:#181818;stroke-width:1.0;"/><polygon fill="#181818" points="1024,146.97,1014.3089,145.2144,1019.1421,148.1537,1016.2028,152.987,1024,146.97" style="stroke:#181818;stroke-width:1.0;"/></g><!--link US13 to r2--><g id="link_US13_r2"><path d="M1185.4,143.9 C1207.55,149.51 1230.23,158.52 1248,173 C1276.05,195.85 1261.43,217.73 1284,246 C1290.83,254.56 1294.6203,258.7801 1303.1203,266.0501 " fill="none" id="US13-to-r2" style="stroke:#181818;stroke-width:1.0;"/><polygon fill="#181818" points="1307.68,269.95,1303.4404,261.0604,1303.8802,266.7001,1298.2405,267.14,1307.68,269.95" style="stroke:#181818;stroke-width:1.0;"/></g><!--link US13 to b2--><g id="link_US13_b2"><path d="M1167.95,149.71 C1226.05,162.68 1300.4542,179.2727 1332.7942,186.4927 " fill="none" id="US13-to-b2" style="stroke:#181818;stroke-width:1.0;"/><polygon fill="#181818" points="1338.65,187.8,1330.7378,181.9351,1333.7701,186.7106,1328.9947,189.7429,1338.65,187.8" style="stroke:#181818;stroke-width:1.0;"/></g><!--link US13 to p2--><g id="link_US13_p2"><path d="M1168.28,120.48 C1226.08,107.81 1299.7793,91.6652 1332.3393,84.5252 " fill="none" id="US13-to-p2" style="stroke:#181818;stroke-width:1.0;"/><polygon fill="#181818" points="1338.2,83.24,1328.5521,81.2606,1333.316,84.311,1330.2657,89.0749,1338.2,83.24" style="stroke:#181818;stroke-width:1.0;"/></g><!--reverse link US14 to r--><g id="link_US14_r"><path d="M699.6849,414.0865 C737.2989,406.9165 771.954,400.31 801.882,394.6 " fill="none" id="US14-backto-r" style="stroke:#181818;stroke-width:1.0;"/><polygon fill="#181818" points="693.791,415.21,703.3808,417.454,698.7026,414.2738,701.8828,409.5955,693.791,415.21" style="stroke:#181818;stroke-width:1.0;"/></g><!--link US11 to r2--><g id="link_US11_r2"><path d="M1185.58,249.31 C1226.37,262.14 1268.107,275.278 1302.057,285.968 " fill="none" id="US11-to-r2" style="stroke:#181818;stroke-width:1.0;"/><polygon fill="#181818" points="1307.78,287.77,1300.3969,281.2516,1303.0108,286.2683,1297.9942,288.8823,1307.78,287.77" style="stroke:#181818;stroke-width:1.0;"/></g><!--SRC=[TLFBRjim4BppAnQvv6IWbfoNK0H8w_OMe4YGddgXfNNCGYBL9GaKSFj1_Ox-M7TbFIZ5FLWUahCxkyiXOHcqVQqHFhgcYHQEgdW9fZPU1unKgE8HcnrX0QfuGjyww_MkHjx_uhg_3zjFXVgjLFHOQezmyOnGEcivBz85Q0ylp-lPQONBysmwVyBoW2G_g28qN0GPh7jUhbID-m310PdNGu3A4ESnpgg- -jNgljERBRFvCa-A_UeCGQs1-msOAdALu9rbNUzwzSqKzl3TnN2snAk9zEWgipTdMTV9G6BRacdEqcucsbP6nXpqeCkIluG-41eRV4- -dSYVDSy5efLPDzfoAzKbDYr56thotN84bmUUW2Fp8s8dqjE7vEjtwHMn2oeMqF7d8E0dXJ5alTH8qgRZ1RJic4XZO6A7xIbzqlX0ojzad-wk9Gn__q2hQNc7wurID5h-eHIF- -DaSYOrSwFB5ed1tuHbn_uH2AKzlGI1Es4F7FRShtiWKDQnmJhtklsO0Oe9ikMDU10XaOUM1yD-PxVvRe3IYuTl5Yfd0vZQIuT1t324-BJKqrrfdlYYoUnCbrdQJvOqb4b7_tjvyyUrKTIZEnZX5QWHNoVu9i6teEGZ2ovEIRnWBahS1-zNAvdYm6PpYL5EswePTdFPpMLrYklWRe9j1pSIHeBMlSO_]--></g></svg>