<?xml version="1.0" encoding="us-ascii" standalone="no"?><svg xmlns="http://www.w3.org/2000/svg" xmlns:xlink="http://www.w3.org/1999/xlink" contentStyleType="text/css" height="1441px" preserveAspectRatio="none" style="width:1182px;height:1441px;background:#FFFFFF;" version="1.1" viewBox="0 0 1182 1441" width="1182px" zoomAndPan="magnify"><defs/><g><!--cluster Commun--><g id="cluster_Commun"><rect fill="none" height="384" rx="2.5" ry="2.5" style="stroke:#181818;stroke-width:1.0;" width="463.5" x="89" y="745"/><text fill="#000000" font-family="sans-serif" font-size="14" font-weight="bold" lengthAdjust="spacing" textLength="70" x="285.75" y="759.9951">Commun</text></g><!--cluster Acteurs--><g id="cluster_Acteurs"><rect fill="none" height="460" rx="2.5" ry="2.5" style="stroke:#181818;stroke-width:1.0;" width="124" x="451" y="253"/><text fill="#000000" font-family="sans-serif" font-size="14" font-weight="bold" lengthAdjust="spacing" textLength="63" x="481.5" y="267.9951">Acteurs</text></g><!--cluster Repondants--><g id="cluster_Repondants"><rect fill="none" height="460" rx="2.5" ry="2.5" style="stroke:#181818;stroke-width:1.0;" width="124" x="1052" y="7"/><text fill="#000000" font-family="sans-serif" font-size="14" font-weight="bold" lengthAdjust="spacing" textLength="97" x="1065.5" y="21.9951">Repondants</text></g><!--entity Utilisateur--><g id="elem_Utilisateur"><ellipse cx="159" cy="1018.5" fill="#F1F1F1" rx="8" ry="8" style="stroke:#181818;stroke-width:0.5;"/><path d="M159,1026.5 L159,1053.5 M146,1034.5 L172,1034.5 M159,1053.5 L146,1068.5 M159,1053.5 L172,1068.5 " fill="none" style="stroke:#181818;stroke-width:0.5;"/><text fill="#000000" font-family="sans-serif" font-size="14" lengthAdjust="spacing" textLength="73" x="122.5" y="1082.9951">Utilisateur</text></g><!--entity Membre--><g id="elem_Membre"><ellipse cx="159" cy="907.5" fill="#F1F1F1" rx="8" ry="8" style="stroke:#181818;stroke-width:0.5;"/><path d="M159,915.5 L159,942.5 M146,923.5 L172,923.5 M159,942.5 L146,957.5 M159,942.5 L172,957.5 " fill="none" style="stroke:#181818;stroke-width:0.5;"/><text fill="#000000" font-family="sans-serif" font-size="14" lengthAdjust="spacing" textLength="60" x="129" y="971.9951">Membre</text></g><!--entity Responsable--><g id="elem_Responsable"><ellipse cx="159" cy="796.5" fill="#F1F1F1" rx="8" ry="8" style="stroke:#181818;stroke-width:0.5;"/><path d="M159,804.5 L159,831.5 M146,812.5 L172,812.5 M159,831.5 L146,846.5 M159,831.5 L172,846.5 " fill="none" style="stroke:#181818;stroke-width:0.5;"/><text fill="#000000" font-family="sans-serif" font-size="14" lengthAdjust="spacing" textLength="92" x="113" y="860.9951">Responsable</text></g><!--entity Pole--><g id="elem_Pole"><ellipse cx="513" cy="1018.5" fill="#F1F1F1" rx="8" ry="8" style="stroke:#181818;stroke-width:0.5;"/><path d="M513,1026.5 L513,1053.5 M500,1034.5 L526,1034.5 M513,1053.5 L500,1068.5 M513,1053.5 L526,1068.5 " fill="none" style="stroke:#181818;stroke-width:0.5;"/><text fill="#000000" font-family="sans-serif" font-size="14" lengthAdjust="spacing" textLength="31" x="497.5" y="1082.9951">Pole</text></g><!--entity BDE--><g id="elem_BDE"><ellipse cx="513" cy="907.5" fill="#F1F1F1" rx="8" ry="8" style="stroke:#181818;stroke-width:0.5;"/><path d="M513,915.5 L513,942.5 M500,923.5 L526,923.5 M513,942.5 L500,957.5 M513,942.5 L526,957.5 " fill="none" style="stroke:#181818;stroke-width:0.5;"/><text fill="#000000" font-family="sans-serif" font-size="14" lengthAdjust="spacing" textLength="30" x="498" y="971.9951">BDE</text></g><!--entity m--><g id="elem_m"><ellipse cx="513" cy="296.5" fill="#F1F1F1" rx="8" ry="8" style="stroke:#181818;stroke-width:0.5;"/><path d="M513,304.5 L513,331.5 M500,312.5 L526,312.5 M513,331.5 L500,346.5 M513,331.5 L526,346.5 " fill="none" style="stroke:#181818;stroke-width:0.5;"/><text fill="#000000" font-family="sans-serif" font-size="14" lengthAdjust="spacing" textLength="60" x="483" y="360.9951">Membre</text></g><!--entity r--><g id="elem_r"><ellipse cx="513" cy="407.5" fill="#F1F1F1" rx="8" ry="8" style="stroke:#181818;stroke-width:0.5;"/><path d="M513,415.5 L513,442.5 M500,423.5 L526,423.5 M513,442.5 L500,457.5 M513,442.5 L526,457.5 " fill="none" style="stroke:#181818;stroke-width:0.5;"/><text fill="#000000" font-family="sans-serif" font-size="14" lengthAdjust="spacing" textLength="92" x="467" y="471.9951">Responsable</text></g><!--entity p--><g id="elem_p"><ellipse cx="513" cy="518.5" fill="#F1F1F1" rx="8" ry="8" style="stroke:#181818;stroke-width:0.5;"/><path d="M513,526.5 L513,553.5 M500,534.5 L526,534.5 M513,553.5 L500,568.5 M513,553.5 L526,568.5 " fill="none" style="stroke:#181818;stroke-width:0.5;"/><text fill="#000000" font-family="sans-serif" font-size="14" lengthAdjust="spacing" textLength="31" x="497.5" y="582.9951">Pole</text></g><!--entity b--><g id="elem_b"><ellipse cx="513" cy="629.5" fill="#F1F1F1" rx="8" ry="8" style="stroke:#181818;stroke-width:0.5;"/><path d="M513,637.5 L513,664.5 M500,645.5 L526,645.5 M513,664.5 L500,679.5 M513,664.5 L526,679.5 " fill="none" style="stroke:#181818;stroke-width:0.5;"/><text fill="#000000" font-family="sans-serif" font-size="14" lengthAdjust="spacing" textLength="30" x="498" y="693.9951">BDE</text></g><!--entity m2--><g id="elem_m2"><ellipse cx="1114" cy="383.5" fill="#F1F1F1" rx="8" ry="8" style="stroke:#181818;stroke-width:0.5;"/><path d="M1114,391.5 L1114,418.5 M1101,399.5 L1127,399.5 M1114,418.5 L1101,433.5 M1114,418.5 L1127,433.5 " fill="none" style="stroke:#181818;stroke-width:0.5;"/><text fill="#000000" font-family="sans-serif" font-size="14" lengthAdjust="spacing" textLength="60" x="1084" y="447.9951">Membre</text></g><!--entity r2--><g id="elem_r2"><ellipse cx="1114" cy="272.5" fill="#F1F1F1" rx="8" ry="8" style="stroke:#181818;stroke-width:0.5;"/><path d="M1114,280.5 L1114,307.5 M1101,288.5 L1127,288.5 M1114,307.5 L1101,322.5 M1114,307.5 L1127,322.5 " fill="none" style="stroke:#181818;stroke-width:0.5;"/><text fill="#000000" font-family="sans-serif" font-size="14" lengthAdjust="spacing" textLength="92" x="1068" y="336.9951">Responsable</text></g><!--entity p2--><g id="elem_p2"><ellipse cx="1114" cy="50.5" fill="#F1F1F1" rx="8" ry="8" style="stroke:#181818;stroke-width:0.5;"/><path d="M1114,58.5 L1114,85.5 M1101,66.5 L1127,66.5 M1114,85.5 L1101,100.5 M1114,85.5 L1127,100.5 " fill="none" style="stroke:#181818;stroke-width:0.5;"/><text fill="#000000" font-family="sans-serif" font-size="14" lengthAdjust="spacing" textLength="31" x="1098.5" y="114.9951">Pole</text></g><!--entity b2--><g id="elem_b2"><ellipse cx="1114" cy="161.5" fill="#F1F1F1" rx="8" ry="8" style="stroke:#181818;stroke-width:0.5;"/><path d="M1114,169.5 L1114,196.5 M1101,177.5 L1127,177.5 M1114,196.5 L1101,211.5 M1114,196.5 L1127,211.5 " fill="none" style="stroke:#181818;stroke-width:0.5;"/><text fill="#000000" font-family="sans-serif" font-size="14" lengthAdjust="spacing" textLength="30" x="1099" y="225.9951">BDE</text></g><g id="elem_US1"><ellipse cx="513.1781" cy="1347.1356" fill="#F1F1F1" rx="71.1781" ry="16.6356" style="stroke:#181818;stroke-width:0.5;"/><text fill="#000000" font-family="sans-serif" font-size="14" lengthAdjust="spacing" textLength="96" x="462.1781" y="1350.8832">Se connecter</text></g><g id="elem_US2"><ellipse cx="513.1551" cy="1417.031" fill="#F1F1F1" rx="78.1551" ry="18.031" style="stroke:#181818;stroke-width:0.5;"/><text fill="#000000" font-family="sans-serif" font-size="14" lengthAdjust="spacing" textLength="114" x="453.7659" y="1420.6166">Se deconnecter</text></g><g id="elem_US3"><ellipse cx="513.2481" cy="1175.8496" fill="#F1F1F1" rx="102.2481" ry="22.8496" style="stroke:#181818;stroke-width:0.5;"/><text fill="#000000" font-family="sans-serif" font-size="14" lengthAdjust="spacing" textLength="169" x="428.7481" y="1178.6963">Rechercher du materiel</text></g><g id="elem_US4"><ellipse cx="513.1446" cy="1265.1289" fill="#F1F1F1" rx="141.1446" ry="30.6289" style="stroke:#181818;stroke-width:0.5;"/><text fill="#000000" font-family="sans-serif" font-size="14" lengthAdjust="spacing" textLength="252" x="387.1446" y="1267.9756">Voir la liste du materiel de son asso</text></g><g id="elem_US5"><ellipse cx="860.7915" cy="422.1583" fill="#F1F1F1" rx="88.7915" ry="20.1583" style="stroke:#181818;stroke-width:0.5;"/><text fill="#000000" font-family="sans-serif" font-size="14" lengthAdjust="spacing" textLength="139" x="791.2915" y="425.005">Ajouter du materiel</text></g><g id="elem_US6"><ellipse cx="860.9431" cy="498.1886" fill="#F1F1F1" rx="91.4431" ry="20.6886" style="stroke:#181818;stroke-width:0.5;"/><text fill="#000000" font-family="sans-serif" font-size="14" lengthAdjust="spacing" textLength="145" x="788.4431" y="501.0353">Modifier du materiel</text></g><g id="elem_US7"><ellipse cx="861.0673" cy="576.2135" fill="#F1F1F1" rx="99.0673" ry="22.2135" style="stroke:#181818;stroke-width:0.5;"/><text fill="#000000" font-family="sans-serif" font-size="14" lengthAdjust="spacing" textLength="162" x="780.0673" y="579.0601">Supprimer du materiel</text></g><g id="elem_US8"><ellipse cx="861.0271" cy="658.8054" fill="#F1F1F1" rx="117.0271" ry="25.8054" style="stroke:#181818;stroke-width:0.5;"/><text fill="#000000" font-family="sans-serif" font-size="14" lengthAdjust="spacing" textLength="201" x="760.5271" y="661.6521">Donner des acces restreints</text></g><g id="elem_US9"><ellipse cx="861.0617" cy="241.2123" fill="#F1F1F1" rx="124.0617" ry="27.2123" style="stroke:#181818;stroke-width:0.5;"/><text fill="#000000" font-family="sans-serif" font-size="14" lengthAdjust="spacing" textLength="216" x="753.0617" y="244.059">Faire une demande d'emprunt</text></g><g id="elem_US10"><ellipse cx="159.0617" cy="342.2123" fill="#F1F1F1" rx="124.0617" ry="27.2123" style="stroke:#181818;stroke-width:0.5;"/><text fill="#000000" font-family="sans-serif" font-size="14" lengthAdjust="spacing" textLength="216" x="51.0617" y="345.059">Voir l'historique des emprunts</text></g><g id="elem_US11"><ellipse cx="860.8886" cy="334.7777" fill="#F1F1F1" rx="146.8886" ry="31.7777" style="stroke:#181818;stroke-width:0.5;"/><text fill="#000000" font-family="sans-serif" font-size="14" lengthAdjust="spacing" textLength="264" x="728.8886" y="337.6244">Repondre aux demandes d'emprunts</text></g><g id="elem_US12"><ellipse cx="159.1339" cy="437.0268" fill="#F1F1F1" rx="153.1339" ry="33.0268" style="stroke:#181818;stroke-width:0.5;"/><text fill="#000000" font-family="sans-serif" font-size="14" lengthAdjust="spacing" textLength="277" x="20.6339" y="439.8735">Voir les emprunts de son asso en cours</text></g><g id="elem_US13"><ellipse cx="860.7771" cy="157.9554" fill="#F1F1F1" rx="92.7771" ry="20.9554" style="stroke:#181818;stroke-width:0.5;"/><text fill="#000000" font-family="sans-serif" font-size="14" lengthAdjust="spacing" textLength="148" x="786.7771" y="160.8021">Demander des acces</text></g><g id="elem_US14"><ellipse cx="159.2348" cy="535.247" fill="#F1F1F1" rx="139.2348" ry="30.247" style="stroke:#181818;stroke-width:0.5;"/><text fill="#000000" font-family="sans-serif" font-size="14" lengthAdjust="spacing" textLength="248" x="35.2348" y="538.0936">Voir le materiel pret&#233; par son asso</text></g><!--link Commun to US1--><g id="link_Commun_US1"><path d="M166.4515,1129.272 C166.559,1129.4072 166.6679,1129.5439 166.778,1129.6822 C167.2186,1130.2351 167.6795,1130.8118 168.1606,1131.4117 C169.1227,1132.6114 170.1651,1133.9036 171.2854,1135.2822 C173.5259,1138.0394 176.0778,1141.1425 178.9208,1144.5435 C190.2925,1158.1475 206.3213,1176.5187 225.7105,1196.5944 C264.489,1236.7458 316.7095,1283.715 372,1313 C396.203,1325.819 419.4299,1332.7246 444.8229,1337.7661 " fill="none" id="Commun-to-US1" style="stroke:#181818;stroke-width:1.0;"/><polygon fill="#181818" points="450.708,1338.9345,442.6593,1333.2584,445.8037,1337.9608,441.1014,1341.1053,450.708,1338.9345" style="stroke:#181818;stroke-width:1.0;"/></g><!--link Commun to US2--><g id="link_Commun_US2"><path d="M164.093,1129.1379 C164.1745,1129.2962 164.2573,1129.4566 164.3412,1129.6192 C164.5091,1129.9443 164.6816,1130.2778 164.859,1130.6197 C167.6961,1136.0901 171.7423,1143.6947 176.9097,1152.914 C187.2444,1171.3525 202.0637,1196.2494 220.6636,1223.4479 C257.8635,1277.8448 310.186,1341.4475 372,1381 C393.456,1394.7291 414.0439,1401.9515 438.1549,1407.2126 " fill="none" id="Commun-to-US2" style="stroke:#181818;stroke-width:1.0;"/><polygon fill="#181818" points="444.017,1408.4917,436.0766,1402.665,439.1319,1407.4258,434.3711,1410.4811,444.017,1408.4917" style="stroke:#181818;stroke-width:1.0;"/></g><!--link Commun to US3--><g id="link_Commun_US3"><path d="M211.2075,1129.0012 C213.9237,1129.4256 216.7216,1129.8628 219.5945,1130.3117 C231.0861,1132.1072 243.778,1134.0903 257.2449,1136.1945 C311.1125,1144.6113 371.4519,1154.0392 422.8969,1162.0777 " fill="none" id="Commun-to-US3" style="stroke:#181818;stroke-width:1.0;"/><polygon fill="#181818" points="428.825,1163.004,420.5504,1157.6625,423.8849,1162.2321,419.3154,1165.5666,428.825,1163.004" style="stroke:#181818;stroke-width:1.0;"/></g><!--link Commun to US4--><g id="link_Commun_US4"><path d="M176.3398,1129.0433 C176.5152,1129.1289 176.692,1129.2152 176.8699,1129.302 C178.2938,1129.9968 179.7976,1130.7294 181.3775,1131.4975 C194.0166,1137.6422 211.5234,1146.0614 231.8773,1155.599 C272.585,1174.6743 324.681,1198.2235 372,1217 C391.823,1224.866 407.834,1230.7261 428.091,1237.6911 " fill="none" id="Commun-to-US4" style="stroke:#181818;stroke-width:1.0;"/><polygon fill="#181818" points="433.765,1239.642,426.5546,1232.933,429.0367,1238.0163,423.9534,1240.4983,433.765,1239.642" style="stroke:#181818;stroke-width:1.0;"/></g><!--link r to US9--><g id="link_r_US9"><path d="M559.115,427.13 C588.601,418.9 626.583,404.78 654,382 C692.7,349.85 674.116,316.67 714,286 C729.559,274.03 742.649,267.1838 761.464,260.7038 " fill="none" id="r-to-US9" style="stroke:#181818;stroke-width:1.0;"/><polygon fill="#181818" points="767.137,258.75,757.325,257.8987,762.4095,260.3782,759.9301,265.4627,767.137,258.75" style="stroke:#181818;stroke-width:1.0;"/></g><!--link r to US5--><g id="link_r_US5"><path d="M559.233,435.039 C613.454,432.69 699.5126,428.96 767.5316,426.01 " fill="none" id="r-to-US5" style="stroke:#181818;stroke-width:1.0;"/><polygon fill="#181818" points="773.526,425.75,764.3611,422.1437,768.5307,425.9666,764.7078,430.1362,773.526,425.75" style="stroke:#181818;stroke-width:1.0;"/></g><!--link r to US6--><g id="link_r_US6"><path d="M559.233,444.975 C617.576,455.26 713.8111,472.2273 782.6851,484.3693 " fill="none" id="r-to-US6" style="stroke:#181818;stroke-width:1.0;"/><polygon fill="#181818" points="788.594,485.411,780.4251,479.9092,783.6699,484.5429,779.0362,487.7877,788.594,485.411" style="stroke:#181818;stroke-width:1.0;"/></g><!--link r to US7--><g id="link_r_US7"><path d="M559.071,451.889 C587.145,461.92 623.58,476.335 654,493 C682.773,508.762 684.382,521.889 714,536 C736.777,546.852 757.1945,553.6863 781.0785,559.8693 " fill="none" id="r-to-US7" style="stroke:#181818;stroke-width:1.0;"/><polygon fill="#181818" points="786.887,561.373,779.1767,555.2451,782.0466,560.1199,777.1718,562.9898,786.887,561.373" style="stroke:#181818;stroke-width:1.0;"/></g><!--link r to US8--><g id="link_r_US8"><path d="M559.272,446.139 C589.201,454.161 627.632,468.498 654,493 C698.557,534.403 667.545,576.738 714,616 C728.833,628.537 741.4997,635.4985 760.1257,641.7915 " fill="none" id="r-to-US8" style="stroke:#181818;stroke-width:1.0;"/><polygon fill="#181818" points="765.81,643.712,758.5638,637.0417,761.0731,642.1116,756.0032,644.6208,765.81,643.712" style="stroke:#181818;stroke-width:1.0;"/></g><!--link US8 to m2--><g id="link_US8_m2"><path d="M955.587,643.573 C974.357,637.289 992.919,628.446 1008,616 C1060.18,572.941 1087.708,502.9396 1101.428,457.1446 " fill="none" id="US8-to-m2" style="stroke:#181818;stroke-width:1.0;"/><polygon fill="#181818" points="1103.15,451.397,1096.7353,458.8704,1101.715,456.1867,1104.3988,461.1664,1103.15,451.397" style="stroke:#181818;stroke-width:1.0;"/></g><!--link p to US8--><g id="link_p_US8"><path d="M528.734,553.243 C561.754,564.941 644.257,593.884 714,616 C738.054,623.628 758.7217,629.8631 782.4017,636.7961 " fill="none" id="p-to-US8" style="stroke:#181818;stroke-width:1.0;"/><polygon fill="#181818" points="788.16,638.482,780.6465,632.1143,783.3614,637.0771,778.3987,639.792,788.16,638.482" style="stroke:#181818;stroke-width:1.0;"/></g><!--link b to US8--><g id="link_b_US8"><path d="M528.427,659 C564.877,659 657.486,659 737.759,659 " fill="none" id="b-to-US8" style="stroke:#181818;stroke-width:1.0;"/><polygon fill="#181818" points="743.759,659,734.759,655,738.759,659,734.759,663,743.759,659" style="stroke:#181818;stroke-width:1.0;"/></g><!--link US9 to r2--><g id="link_US9_r2"><path d="M944.534,261.06 C985.542,271.02 1027.6797,281.2633 1061.9197,289.5833 " fill="none" id="US9-to-r2" style="stroke:#181818;stroke-width:1.0;"/><polygon fill="#181818" points="1067.75,291,1059.949,284.988,1062.8914,289.8194,1058.06,292.7618,1067.75,291" style="stroke:#181818;stroke-width:1.0;"/></g><!--reverse link US10 to r--><g id="link_US10_r"><path d="M243.4768,364.5333 C313.7308,383.4933 408.965,409.19 466.783,424.8 " fill="none" id="US10-backto-r" style="stroke:#181818;stroke-width:1.0;"/><polygon fill="#181818" points="237.684,362.97,245.3309,369.1768,242.5113,364.2728,247.4154,361.4532,237.684,362.97" style="stroke:#181818;stroke-width:1.0;"/></g><!--link r to US11--><g id="link_r_US11"><path d="M559.233,423.67 C613.271,407.74 699.1308,382.4265 767.0808,362.3965 " fill="none" id="r-to-US11" style="stroke:#181818;stroke-width:1.0;"/><polygon fill="#181818" points="772.836,360.7,763.0723,359.4079,768.04,362.1137,765.3342,367.0815,772.836,360.7" style="stroke:#181818;stroke-width:1.0;"/></g><!--reverse link US12 to r--><g id="link_US12_r"><path d="M318.089,437 C374.057,437 427.311,437 466.644,437 " fill="none" id="US12-backto-r" style="stroke:#181818;stroke-width:1.0;"/><polygon fill="#181818" points="312.089,437,321.089,441,317.089,437,321.089,433,312.089,437" style="stroke:#181818;stroke-width:1.0;"/></g><!--link m to US13--><g id="link_m_US13"><path d="M543.092,302.73 C580.555,273.84 648.641,224.84 714,196 C737.724,185.53 759.1026,178.8964 783.5536,172.9564 " fill="none" id="m-to-US13" style="stroke:#181818;stroke-width:1.0;"/><polygon fill="#181818" points="789.384,171.54,779.6941,169.7777,784.5253,172.7203,781.5826,177.5516,789.384,171.54" style="stroke:#181818;stroke-width:1.0;"/></g><!--link US13 to r2--><g id="link_US13_r2"><path d="M942.023,168.41 C964.736,174.02 988.554,182.68 1008,196 C1030.59,211.48 1025.2,226.09 1044,246 C1051.2,253.63 1054.8531,257.2921 1063.0831,264.2321 " fill="none" id="US13-to-r2" style="stroke:#181818;stroke-width:1.0;"/><polygon fill="#181818" points="1067.67,268.1,1063.3683,259.2402,1063.8476,264.8767,1058.2111,265.3561,1067.67,268.1" style="stroke:#181818;stroke-width:1.0;"/></g><!--link US13 to b2--><g id="link_US13_b2"><path d="M941.763,168.49 C998.321,175.92 1063.2911,184.4683 1092.9711,188.3683 " fill="none" id="US13-to-b2" style="stroke:#181818;stroke-width:1.0;"/><polygon fill="#181818" points="1098.92,189.15,1090.5178,184.0116,1093.9626,188.4986,1089.4756,191.9434,1098.92,189.15" style="stroke:#181818;stroke-width:1.0;"/></g><!--link US13 to p2--><g id="link_US13_p2"><path d="M916.463,141.08 C974.857,122.93 1058.1104,97.0609 1092.7604,86.2909 " fill="none" id="US13-to-p2" style="stroke:#181818;stroke-width:1.0;"/><polygon fill="#181818" points="1098.49,84.51,1088.7083,83.3616,1093.7153,85.9941,1091.0828,91.0011,1098.49,84.51" style="stroke:#181818;stroke-width:1.0;"/></g><!--reverse link US14 to r--><g id="link_US14_r"><path d="M250.9892,509.6678 C320.7792,490.2378 411.016,465.115 466.798,449.585 " fill="none" id="US14-backto-r" style="stroke:#181818;stroke-width:1.0;"/><polygon fill="#181818" points="245.209,511.277,254.9521,512.7166,250.0258,509.936,252.8064,505.0097,245.209,511.277" style="stroke:#181818;stroke-width:1.0;"/></g><!--link US11 to r2--><g id="link_US11_r2"><path d="M987.132,318.55 C1016.11,314.74 1039.1711,311.701 1062.0211,308.701 " fill="none" id="US11-to-r2" style="stroke:#181818;stroke-width:1.0;"/><polygon fill="#181818" points="1067.97,307.92,1058.5259,305.1256,1063.0125,308.5709,1059.5673,313.0575,1067.97,307.92" style="stroke:#181818;stroke-width:1.0;"/></g><!--SRC=[TLBBRjmm3BphAuXSSbgWjZUFDOe2IRQz1GWIf7VPPh8ARCcX9A10q0_AT_J7IjbUItQtX_MEgE6G8eUmTbA_jWXtfkkyXWzHFZlLAYiTUYf5UOzTHLY2A1_HzaPRMRN8yGSp_DtklvVYjn3UOYqjmjaJGcsqPbsaCv0Mdf-onMs3w_iytZzYVK0AFsWyTDm4AMmdNY54YoyEd05IhmS7ZIBMKKQBgVlDvjjGRt7CbySYQVQdKGIj17wlmxGYTmdMQAvhpLHz6zDktent9rkyYAHxqwWNTP9rcGp4zpsfxYJjAjBsOMJCGGkohlbBQ1sXqivEvEj8_Y5vBk1rc7KdDJ-bESUk9w_THDwjHt1-u0aOKkyUXo8J_IYUVKbNn2vek83qluu5RAmmfsJh6ebiEbv0pOxnD2ScTjYFyid3ZwJY7_MukvxG_Vc4Nj9wXzbM29ejVrC7ZzkFQ78cTKkZXn1DRW-u7oqVO1Ly7zN6kKX-tKemFw6Ofv9vefa7qV-vV6dahQ09xM265o1cV9dWgmHVWmYVSE3c-XYjKi9kE72dOVtmTRC1YcLuks5JOrXqnsWHeaKuZNa3h2Bi1xWDQHHGDjNu2m00]--></g></svg>